<?xml version="1.0" encoding="utf-8"?>
<!-- Generator: Adobe Illustrator 23.0.1, SVG Export Plug-In . SVG Version: 6.00 Build 0)  -->
<svg version="1.1" id="Layer_1" xmlns="http://www.w3.org/2000/svg" xmlns:xlink="http://www.w3.org/1999/xlink" x="0px" y="0px"
	 viewBox="0 0 1366 158" style="enable-background:new 0 0 1366 158;" xml:space="preserve">
<style type="text/css">
	.st0{fill:#85A864;}
	.st1{fill:#ADEAE4;}
	.st2{fill:#C7B299;}
	.st3{fill:#5E6372;}
	.st4{fill:#6CA1AD;}
	.st5{fill:#534741;}
	.st6{fill:#DDC9B3;}
	.st7{fill:#F4DEC9;}
	.st8{fill:#006837;}
	.st9{fill:#22B573;}
	.st10{fill:#F4DEC9;stroke:#C7B299;stroke-width:1.765;stroke-miterlimit:10;}
	.st11{fill:#998675;}
	.st12{fill:#CCC1B6;}
	.st13{fill:#7F7755;}
	.st14{fill:#A3A09D;}
	.st15{fill:#D1C8BF;}
	.st16{fill:#B5B1AC;}
	.st17{fill:#7C7975;}
	.st18{fill:#C1B49A;stroke:#5A4A42;stroke-width:0.1011;stroke-miterlimit:10;}
	.st19{fill:#5A4A42;stroke:#5A4A42;stroke-width:0.1011;stroke-miterlimit:10;}
	.st20{fill:#7A7268;stroke:#5A4A42;stroke-width:0.1082;stroke-miterlimit:10;}
	.st21{fill:#F1F1F2;stroke:#5A4A42;stroke-width:0.1011;stroke-miterlimit:10;}
	.st22{fill:#A87C4F;stroke:#5A4A42;stroke-width:0.1011;stroke-miterlimit:10;}
	.st23{fill:#C3996B;stroke:#5A4A42;stroke-width:0.1011;stroke-miterlimit:10;}
	.st24{fill:#00ADEE;stroke:#5A4A42;stroke-width:0.1011;stroke-miterlimit:10;}
	.st25{fill:#7A7268;stroke:#5A4A42;stroke-width:0.1011;stroke-miterlimit:10;}
	.st26{fill:#CCAA89;}
	.st27{fill:#958778;}
	.st28{fill:#EDE5E1;stroke:#5A4A42;stroke-width:0.1411;stroke-miterlimit:10;}
	.st29{fill:#5A4A42;stroke:#C1B49A;stroke-width:0.1008;stroke-miterlimit:10;}
	.st30{fill:#7A7268;}
	.st31{fill:#617A46;}
	.st32{fill:#5B773E;}
	.st33{fill:#96661F;}
	.st34{fill:#79AA0D;}
	.st35{fill:#E3BC97;}
	.st36{fill:#93C520;}
	.st37{fill:#A1CE3B;}
	.st38{fill:#7D9622;}
	.st39{fill:#5C7519;}
	.st40{fill:#95B737;}
	.st41{fill:#FEFEFD;}
	.st42{fill:#586814;}
	.st43{fill:#A4CE78;}
	.st44{fill:#0D4D63;}
	.st45{opacity:0.66;}
	.st46{fill:#3A3625;}
	.st47{fill:#2D2F30;}
	.st48{fill:#C1B9B2;}
</style>
<rect x="0.5" y="92.5" class="st0" width="1366" height="77.7"/>
<rect x="0.5" y="-8.8" class="st1" width="1366" height="101.3"/>
<g>
	<rect x="114.2" y="39.5" class="st2" width="52.1" height="53.4"/>
	<rect x="124.4" y="47" class="st3" width="30.9" height="7.1"/>
	<rect x="125.2" y="57.6" class="st4" width="30" height="7.9"/>
	<rect x="125.2" y="70.8" class="st4" width="9.7" height="7.9"/>
	<rect x="145.5" y="70.8" class="st4" width="9.7" height="7.9"/>
	<rect x="135.8" y="69.1" class="st5" width="8.8" height="14.1"/>
	<rect x="121.3" y="42.1" class="st6" width="7.1" height="2.6"/>
	<rect x="132.3" y="45.2" class="st6" width="4.4" height="39.7"/>
	<rect x="131" y="42.1" class="st6" width="7.1" height="2.6"/>
	<rect x="142.9" y="45.2" class="st6" width="4.4" height="39.7"/>
	<rect x="141.6" y="42.1" class="st6" width="7.1" height="2.6"/>
	<rect x="150.4" y="42.1" class="st6" width="7.1" height="2.6"/>
	<rect x="114.2" y="25.4" class="st6" width="51.2" height="12.4"/>
	<rect x="111.6" y="36.8" class="st7" width="55.6" height="2.6"/>
	<rect x="112.5" y="22.7" class="st7" width="55.6" height="2.6"/>
	<rect x="166.3" y="40.4" class="st6" width="32.7" height="58.2"/>
	<rect x="120.8" y="37.3" class="st7" width="37.1" height="4.4"/>
	<rect x="198.1" y="38.6" class="st6" width="37.9" height="60"/>
	<rect x="81.5" y="40.4" class="st6" width="32.7" height="58.2"/>
	<rect x="44.5" y="38.6" class="st6" width="37.9" height="60"/>
	<path class="st8" d="M125.2,19.2v-2.6c0,0,4.9-7.1,15.4-7.1c10.6,0,14.1,7.1,14.1,7.1v2.6H125.2z"/>
	<path class="st9" d="M135.8,9.9V9.1c0,0,1.5-3.9,4.6-3.9s4.2,3.9,4.2,3.9v0.8l-1.5-0.3c-1.9-0.4-3.9-0.4-5.9,0L135.8,9.9z"/>
	<polygon class="st10" points="121.7,37.3 121.7,34.6 140.3,26.7 157,34.6 157,37.3 	"/>
	<rect x="125.2" y="18.8" class="st7" width="30" height="4.4"/>
	<rect x="82.4" y="40.4" class="st11" width="0.9" height="58.7"/>
	<rect x="197.2" y="40.4" class="st11" width="0.9" height="58.7"/>
	<rect x="167.6" y="47" class="st4" width="27.4" height="7.1"/>
	<rect x="167.6" y="60.2" class="st4" width="27.4" height="7.1"/>
	<rect x="167.6" y="73.5" class="st4" width="27.4" height="7.1"/>
	<rect x="167.6" y="86.7" class="st4" width="27.4" height="7.1"/>
	<rect x="172.6" y="44.3" class="st6" width="4.8" height="52.1"/>
	<rect x="184" y="44.3" class="st6" width="4.8" height="52.1"/>
	<polygon class="st12" points="125.7,83.6 112.5,94.7 112.5,99.5 168,99.5 168,93.7 154.4,83.6 	"/>
	<rect x="151.7" y="45.2" class="st6" width="4.4" height="41.5"/>
	<rect x="122.6" y="45.2" class="st6" width="4.4" height="41.5"/>
	<rect x="202" y="43.7" class="st4" width="29.7" height="7.7"/>
	<rect x="202" y="58" class="st4" width="29.7" height="7.7"/>
	<rect x="202" y="72.4" class="st4" width="29.7" height="7.7"/>
	<rect x="202" y="86.8" class="st4" width="29.7" height="7.7"/>
	<rect x="207.4" y="40.8" class="st6" width="5.2" height="56.5"/>
	<rect x="219.8" y="40.8" class="st6" width="5.2" height="56.5"/>
	<rect x="84.7" y="47" class="st4" width="27.4" height="7.1"/>
	<rect x="84.7" y="60.2" class="st4" width="27.4" height="7.1"/>
	<rect x="84.7" y="73.5" class="st4" width="27.4" height="7.1"/>
	<rect x="84.7" y="86.7" class="st4" width="27.4" height="7.1"/>
	<rect x="89.6" y="44.3" class="st6" width="4.8" height="52.1"/>
	<rect x="101.1" y="44.3" class="st6" width="4.8" height="52.1"/>
	<rect x="48.5" y="43.7" class="st4" width="29.7" height="7.7"/>
	<rect x="48.5" y="58" class="st4" width="29.7" height="7.7"/>
	<rect x="48.5" y="72.4" class="st4" width="29.7" height="7.7"/>
	<rect x="48.5" y="86.8" class="st4" width="29.7" height="7.7"/>
	<rect x="53.8" y="40.8" class="st6" width="5.2" height="56.5"/>
	<rect x="66.3" y="40.8" class="st6" width="5.2" height="56.5"/>
</g>
<g>
	<path class="st13" d="M1215.1,94.7c-5.8,0.6-11.7,1.3-17.5,2.1c-5.8,0.8-11.6,1.6-17.3,2.6c-2.9,0.5-5.7,1.1-8.5,1.7
		s-5.6,1.3-8.2,2.2c-0.7,0.2-1.3,0.5-1.9,0.7s-1.1,0.5-1.8,0.8c-0.3,0.1-0.7,0.2-1,0.3c-0.3,0.1-0.6,0.3-0.9,0.4
		c-0.6,0.3-1.2,0.6-1.8,0.9c-2.4,1.3-4.5,2.8-6.5,4.7c-2,1.8-4.1,4.2-6.9,6.1c-2.7,1.9-5.9,3.1-8.9,3.8c-1.5,0.4-3.2,0.6-4.8,0.7
		c-1.6,0-3.1-0.1-4.6-0.2c-3-0.3-5.9-0.9-8.9-1.4c-11.6-2.1-23.2-3.6-34.8-4.5c-5.8-0.5-11.6-0.7-17.4-0.8
		c-5.8-0.1-11.6-0.1-17.3,0.2c-5.8,0.3-11.5,0.7-17.3,1.6c-2.9,0.4-5.8,0.8-8.7,1.2c-2.9,0.4-5.8,0.9-8.7,1.4s-5.8,1-8.6,1.6
		c-1.4,0.3-2.8,0.8-4.2,1.2l-4.3,1.1c-5.7,1.4-11.3,2.9-17,4.3c-5.7,1.4-11.4,2.9-17.3,3.4c-5.9,0.6-11.9,0.9-17.9,0.1V130
		c5.8-1.2,11.4-2.6,17-4c5.6-1.6,11.4-2.5,17.1-3.7c5.7-1.2,11.5-2.2,17.3-3.3c1.4-0.3,2.9-0.5,4.3-0.8c1.5-0.2,2.9-0.4,4.4-0.6
		l8.6-1.8c5.8-1.2,11.5-2.4,17.3-3.5c5.8-1.1,11.8-2,17.7-2.3c5.9-0.4,11.9-0.4,17.8,0c5.9,0.3,11.8,1.1,17.6,1.9
		c5.8,0.8,11.6,1.9,17.4,2.8s11.6,2,17.4,2.5c2.9,0.2,5.8,0.3,8.6,0.3c0.7,0,1.4-0.1,2.1-0.1s1.4-0.1,2-0.2c1.4-0.1,2.5-0.4,3.9-0.8
		c2.6-0.8,5-1.8,7-3.4c2-1.5,3.9-3.6,6.1-5.8c2.2-2.2,4.8-4.2,7.5-5.8c0.7-0.4,1.4-0.8,2.1-1.2c0.7-0.3,1.4-0.7,2.1-1.1
		s1.5-0.6,2.3-0.9c0.8-0.2,1.6-0.4,2.3-0.6c3-0.7,6-1.2,9-1.5c3-0.4,5.9-0.6,8.9-0.9c11.8-0.9,23.6-1.2,35.3-1.1L1215.1,94.7z"/>
</g>
<g>
	<polygon class="st14" points="1342.3,19.2 1337.5,14.2 1337.5,101.1 1342.3,101.1 	"/>
	<rect x="1227.4" y="13.5" class="st15" width="105.5" height="88.2"/>
	<polygon class="st16" points="1330,101.7 1230.2,101.7 1230.2,83.3 1322.3,83.3 1330,88.5 	"/>
	<rect x="1222.9" y="7.9" class="st15" width="4.5" height="93.8"/>
	<rect x="1332.8" y="7.9" class="st15" width="4.5" height="93.8"/>
	<rect x="1330" y="96.2" class="st14" width="10.5" height="5.5"/>
	<polygon class="st14" points="1341.2,101.1 1340.4,101.7 1340.4,96.2 1341.2,95.6 	"/>
	<rect x="1341.2" y="95.6" class="st14" width="6.7" height="5.5"/>
	<rect x="1230.2" y="18.5" class="st4" width="100.8" height="8.5"/>
	<rect x="1230.2" y="31.5" class="st4" width="100.8" height="8.5"/>
	<rect x="1230.2" y="44.4" class="st4" width="100.8" height="8.5"/>
	<rect x="1229.8" y="57.7" class="st4" width="100.8" height="8.5"/>
	<rect x="1230.2" y="70.9" class="st4" width="100.8" height="8.5"/>
	<rect x="1236.7" y="16.4" class="st15" width="3" height="64.3"/>
	<rect x="1246.8" y="16.4" class="st15" width="3" height="64.3"/>
	<rect x="1256.2" y="16" class="st15" width="3" height="64.3"/>
	<rect x="1265.3" y="17.1" class="st15" width="3" height="64.3"/>
	<rect x="1274.7" y="16.4" class="st15" width="3" height="64.3"/>
	<rect x="1283.6" y="16" class="st15" width="3" height="64.3"/>
	<rect x="1293" y="16.4" class="st15" width="3" height="64.3"/>
	<rect x="1302.1" y="17.1" class="st15" width="3" height="64.3"/>
	<rect x="1311.3" y="17.1" class="st15" width="3" height="64.3"/>
	<rect x="1321" y="17.1" class="st15" width="3" height="64.3"/>
	<polygon class="st14" points="1218.1,19.8 1222.9,14.8 1222.9,101.7 1218.1,101.7 	"/>
	<polygon class="st17" points="1237.3,13.5 1237.3,11.8 1239.5,10 1315.7,10 1318.6,11.3 1318.6,13.5 	"/>
	<rect x="1229" y="70.2" class="st16" width="103.3" height="1.4"/>
	<rect x="1229" y="78.5" class="st16" width="103.3" height="1.4"/>
	<rect x="1229" y="57.3" class="st16" width="103.3" height="1.4"/>
	<rect x="1229" y="65.5" class="st16" width="103.3" height="1.4"/>
	<rect x="1229" y="44" class="st16" width="103.3" height="1.4"/>
	<rect x="1229" y="52.3" class="st16" width="103.3" height="1.4"/>
	<rect x="1229" y="30.8" class="st16" width="103.3" height="1.4"/>
	<rect x="1229" y="39.1" class="st16" width="103.3" height="1.4"/>
	<rect x="1229" y="17.9" class="st16" width="103.3" height="1.4"/>
	<rect x="1229" y="26.2" class="st16" width="103.3" height="1.4"/>
</g>
<g>
	<path class="st13" d="M-2.7,141.3c7.1,0.7,14.4,0.6,21.6,0.4c7.2-0.2,14.4-1,21.6-1.7c14.5-1.4,28.9-2.2,43.3-3.5
		c7.2-0.6,14.4-1.4,21.5-2.4s14.2-2.2,20.9-4.1c1.7-0.5,3.2-1.1,5-1.6c0.9-0.3,1.9-0.6,2.8-0.9l2.7-0.7c3.6-0.8,7.2-1.5,10.8-2.2
		c7.2-1.3,14.4-2.4,21.6-3.4c14.4-2,28.8-3.8,43.2-5.5c14.4-1.6,28.8-3.1,43.3-4.6c14.4-1.5,28.9-2.7,43.3-3.9
		c14.5-1.2,28.9-2.1,43.4-3c7.2-0.4,14.5-0.8,21.8-1.1c7.3-0.3,14.5-0.5,21.8-0.6c3.6-0.1,7.3,0,11,0.1l5.5,0.1
		c1.8,0.1,3.6,0.2,5.5,0.3l10.9,0.5l10.9,0.7c7.2,0.5,14.5,1.1,21.7,1.7s14.5,1.2,21.7,1.9l21.7,2l21.6,2L603,120l43.3,4.1
		c14.4,1.4,28.9,2.8,43.3,4.3l21.6,2.3l5.3,0.4c1.8,0.1,3.5,0.3,5.3,0.4l10.8,0.4l10.8,0.1c3.6,0.1,7.2,0,10.8,0
		c7.2,0,14.4-0.2,21.7-0.2c28.9-0.6,57.8-1.7,86.8-2.7c14.5-0.5,29-1,43.5-1.4c7.3-0.2,14.5-0.4,21.8-0.5c3.6-0.1,7.3-0.1,10.9-0.1
		h2.7h1.4l1.4,0.1l2.8,0.1l1.4,0.1l1.4,0.1c14.9,1.3,29,5.4,42.9,9.5c7,2.1,13.9,4.2,20.8,6.1c6.9,1.9,13.9,3.7,21,4.9
		c7.1,1.1,14.3,1.8,21.5,2.3s14.4,0.7,21.6,0.6c14.4-0.1,28.8-1.9,43.1-3.9c7.1-1.1,14.3-2.2,21.4-3.6l21.3-4
		c14.2-2.6,28.5-5.1,42.8-7.4l21.6-3.3c7.3-1,14.7-1.6,22-1.9c3.7-0.1,7.4-0.2,11.1-0.1c1.8,0,3.7,0.2,5.6,0.3l5.4,0.3l21.7,1.2
		c14.5,0.9,29,1.7,43.5,3.4c3.6,0.4,7.3,1,10.9,1.7c1.8,0.4,3.6,0.8,5.6,1.6c0.4,0.2,1.1,0.6,1.5,0.9c0.4,0.3,0.8,0.7,1.2,1.2
		c0.4,0.5,0.7,1.1,0.9,1.7c0.2,0.7,0.2,1.4,0.1,2c-0.2,1.3-0.9,2.2-1.4,3c-0.6,0.8-1.2,1.5-1.5,2c-0.1,0.1-0.1,0.2-0.1,0.1
		c0-0.1-0.1-0.2-0.1-0.2s0.3,0.2,0.7,0.3c0.7,0.2,1.7,0.3,2.5,0.4c3.5,0.5,7.2,0.8,10.7,0.9v0.9c-3.7,0.3-7.3,0.3-11,0.1
		c-0.9-0.1-1.8-0.1-2.8-0.3c-0.5-0.1-1.1-0.2-1.8-0.7c-0.4-0.3-0.7-0.9-0.7-1.4s0.1-0.9,0.2-1.2c0.5-1.1,1.1-1.8,1.5-2.5
		s0.7-1.4,0.8-1.9c0-0.5-0.1-0.9-0.5-1.3c-0.2-0.2-0.5-0.4-0.8-0.6c-0.1-0.1-0.3-0.1-0.4-0.2c-0.1-0.1-0.3-0.1-0.5-0.2
		c-1.4-0.5-3.2-0.8-4.9-1c-3.5-0.5-7.1-0.7-10.7-0.9c-7.2-0.5-14.4-0.6-21.6-0.8s-14.5-0.3-21.7-0.4c-7.2-0.1-14.5-0.3-21.8-0.5
		l-5.4-0.2c-1.8-0.1-3.5-0.1-5.3-0.1c-3.5,0-7.1,0.1-10.6,0.2c-7.1,0.4-14.2,1.1-21.2,2.1c-1.8,0.3-3.5,0.6-5.3,0.9l-5.4,0.8
		l-10.8,1.6c-14.4,2.1-28.7,4-43.1,5.7l-21.6,2.6c-7.2,0.8-14.4,1.6-21.7,2.3c-7.2,0.7-14.5,1.3-21.7,1.8s-14.5,1.1-21.8,1.3
		s-14.6,0.2-21.8-0.1c-7.3-0.3-14.5-0.8-21.8-1.8s-14.4-2.7-21.5-4.4c-7.1-1.8-14.1-3.7-21-5.6c-14-3.7-28-7.2-42.1-8
		c-3.5-0.2-6.9-0.2-10.6,0c-3.6,0.1-7.2,0.2-10.8,0.4l-21.7,1l-43.4,2.1c-29,1.2-58,2.3-87,2.4c-7.3,0-14.5,0-21.8-0.1
		c-3.6-0.1-7.3-0.1-10.9-0.3l-10.9-0.5l-10.9-0.7c-1.8-0.1-3.7-0.4-5.5-0.5l-5.5-0.6L689,134c-14.4-1.9-28.7-3.7-43.1-5.5l-21.6-2.6
		l-21.6-2.5c-28.8-3.2-57.6-6-86.5-8.5c-28.9-2.4-57.8-4.4-86.7-5.5l-10.8-0.4l-10.8-0.2c-1.8,0-3.6-0.1-5.4-0.1l-5.4,0.1
		c-3.6,0.1-7.2,0-10.8,0.2c-14.4,0.6-28.8,1.7-43.3,2.8c-28.8,2.2-57.7,4.7-86.5,7.4c-14.4,1.3-28.8,2.7-43.2,4.3
		c-14.4,1.5-28.8,3-43.1,4.8c-7.2,0.9-14.3,1.9-21.4,3c-3.5,0.5-7.1,1.2-10.5,1.9l-2.5,0.6c-0.8,0.2-1.6,0.4-2.4,0.7
		c-1.7,0.5-3.6,1.1-5.4,1.6c-14.5,3.6-29.1,4.5-43.6,5.4s-29,1.1-43.4,1.9c-7.2,0.4-14.5,0.8-21.8,0.7c-3.6,0-7.3-0.2-10.9-0.4
		c-3.6-0.3-7.2-0.6-10.9-1.2L-2.7,141.3z"/>
</g>
<path class="st0" d="M1081.8,152.6"/>
<g>
	<g>
		<polygon class="st18" points="1076.5,150.5 1060.5,150.5 1060.5,29.5 1076.5,27.4 		"/>
		<path class="st18" d="M1090.7,150.5h-14.3V27.4l0,0l14.2,1.5v121.6H1090.7z"/>
		<path class="st19" d="M1076.5,27.4l-12.6,1.4l0,0l-2,0.2l-1.8,0.2h-0.2l0,0h-0.4c0,0,0.2-0.4,0.7-1c0.1-0.1,0.1-0.3,0.2-0.4
			c0.4-0.8,1-1.6,1.6-2.6c0.2-0.3,0.4-0.7,0.7-1c0.4-0.5,0.9-1.2,1.3-1.6l0.1-0.1c0,0,0,0,0.1-0.1c2.2-2.5,11.3-20.9,11.3-20.9
			C1075.2,3,1076.5,27.4,1076.5,27.4z"/>
		<path class="st19" d="M1075.5,1.6c0,0,9.9,20.1,11.5,21.4s3.7,6,3.7,6l-14.3-1.5C1076.5,27.4,1074.6,3.3,1075.5,1.6z"/>
		<rect x="1054" y="116.3" class="st18" width="7.6" height="34.7"/>
		<path class="st20" d="M1052.8,116.3c0,0,3.7-9.3,4.8-9.7c1.1-0.3,4.7,7.7,4.7,8.9S1055.3,117.1,1052.8,116.3z"/>
		<rect x="1089.8" y="115.6" class="st18" width="7.7" height="35.6"/>
		<path class="st20" d="M1088.6,115.6c0,0,3.8-9.6,4.9-9.9s4.8,7.9,4.8,9.1C1098.3,116,1091.1,116.3,1088.6,115.6z"/>
		<rect x="1073.5" y="117.4" class="st18" width="7.6" height="34.7"/>
		<path class="st20" d="M1072.3,117.4c0,0,3.7-9.3,4.8-9.7c1.1-0.3,4.7,7.7,4.7,8.9C1081.7,117.7,1074.8,118.2,1072.3,117.4z"/>
		<path class="st20" d="M1077.1,107.7c1.1-0.3,4.7,7.7,4.7,8.9c0,0.7-2.2,1-4.5,1.1C1075.4,117.8,1076,108.1,1077.1,107.7z"/>
		<polygon class="st18" points="1076.8,54.7 1059.8,55.6 1059.8,29 1076.8,27.4 		"/>
		<polygon class="st18" points="1091,56 1076.3,54.7 1076.8,27.4 1091,29 		"/>
		<ellipse class="st21" cx="1067.9" cy="64.2" rx="2.6" ry="3.5"/>
		<ellipse class="st21" cx="1083.9" cy="64" rx="2.4" ry="3.6"/>
		<path class="st19" d="M1082.4,35.2v18.9h-3.3V35.2c0-0.8,0.5-1.3,1.3-1.4h0.1h0.4C1081.8,33.8,1082.4,34.5,1082.4,35.2z"/>
		<path class="st22" d="M1082.4,35.2v18.7c0,0.1-0.1,0.1-0.2,0.1l-1.7-2.2l-0.1-0.1V33.9l0,0h0.5
			C1081.8,33.9,1082.4,34.5,1082.4,35.2z"/>
		<path class="st23" d="M1082.4,54L1082.4,54h-3.1v-2.3h1.3L1082.4,54z"/>
		<path class="st24" d="M1082,54L1082,54L1082,54L1082,54z"/>
		<path class="st19" d="M1085.9,35.7v18.8h-2.6V35.7c0-0.8,0.4-1.3,1.1-1.4c0,0,0,0,0.1,0h0.4C1085.5,34.3,1085.9,34.9,1085.9,35.7z
			"/>
		<path class="st22" d="M1085.9,35.7v18.7c0,0.1-0.1,0.1-0.1,0.1l-1.4-2.2v-0.1V34.4l0,0h0.4C1085.5,34.4,1085.9,34.9,1085.9,35.7z"
			/>
		<path class="st23" d="M1085.9,54.4L1085.9,54.4h-2.6v-2.3h1.1L1085.9,54.4z"/>
		<path class="st19" d="M1089.2,36.3v18.9h-2.2V36.3c0-0.8,0.3-1.3,0.9-1.4c0,0,0,0,0.1,0h0.3C1088.7,35,1089.2,35.7,1089.2,36.3z"
			/>
		<path class="st22" d="M1089.2,36.4v18.7c0,0.1-0.1,0.1-0.1,0.1L1088,53v-0.1V35l0,0h0.4C1088.7,35,1089.2,35.7,1089.2,36.4z"/>
		<path class="st23" d="M1089.2,55.1C1089.2,55.1,1089.2,55.2,1089.2,55.1h-2.1v-2.3h0.9L1089.2,55.1z"/>
		<path class="st19" d="M1065.9,35.7v18.8h2.4V35.7c0-0.8-0.1-1.3-0.8-1.4c0,0,0,0-0.1,0h-0.4C1066.5,34.3,1065.9,34.9,1065.9,35.7z
			"/>
		<path class="st22" d="M1065.9,35.7v18.7c0,0.1,0.1,0.1,0.1,0.1l1.1-1.4l0.1-0.1V34.4l0,0h-0.1
			C1066.5,34.4,1065.9,34.9,1065.9,35.7z"/>
		<path class="st22" d="M1066,54.4L1066,54.4h2.4V53h-1.2L1066,54.4z"/>
		<path class="st19" d="M1069.9,35.2v18.9h3.1V35.2c0-0.8-0.2-1.3-1-1.4h-0.1h-0.5C1070.6,33.8,1069.9,34.5,1069.9,35.2z"/>
		<path class="st22" d="M1069.9,35.2v18.7c0,0.1,0.1,0.1,0.2,0.1l1.4-1.4l0.1-0.1V33.9l0,0h-0.1
			C1070.6,33.9,1069.9,34.5,1069.9,35.2z"/>
		<path class="st23" d="M1070.1,54L1070.1,54h3v-1.4h-1.5L1070.1,54z"/>
		<path class="st19" d="M1062.5,36v18.9h2.2V36c0-0.8-0.1-1.3-0.7-1.4c0,0,0,0-0.1,0h-0.3C1062.9,34.6,1062.5,35.2,1062.5,36z"/>
		<path class="st22" d="M1062.5,36v18.7c0,0.1,0.1,0.1,0.1,0.1l1-1.4v-0.1V34.6l0,0h-0.1C1062.9,34.6,1062.5,35.2,1062.5,36z"/>
		<path class="st22" d="M1062.5,54.8L1062.5,54.8h2.1v-1.4h-1.1L1062.5,54.8z"/>
		<polygon class="st25" points="1075.9,2.2 1074.9,2.2 1075.4,-2 1075.4,-2 		"/>
		<rect x="1076.2" y="19.7" class="st26" width="1.8" height="7.3"/>
		<path class="st27" d="M1078.3,19.7h-2.1v-9.4c0.1,0.7,0.7,4.7,0.9,5.5C1077.3,17.3,1078.3,19.7,1078.3,19.7z"/>
		<path class="st28" d="M1063.3,135.2c0,0,1.3-3.1,3.1-4.7c2-1.5,4.5,4.7,4.5,4.7v14.9l-7.7,0.1L1063.3,135.2z"/>
		<path class="st29" d="M1064.1,139c0,0,1-2.3,2.3-3.3c1.4-1.1,3.1,3.3,3.1,3.3v10.6l-5.5,0.1L1064.1,139z"/>
		<path class="st28" d="M1089.2,135.2c0,0-1.3-3.1-3.1-4.7c-2-1.5-4.5,4.7-4.5,4.7v14.9l7.7,0.1L1089.2,135.2z"/>
		<path class="st29" d="M1088.4,139c0,0-1-2.3-2.3-3.3c-1.4-1.1-3.1,3.3-3.1,3.3v10.6l5.5,0.1L1088.4,139z"/>
		<path class="st27" d="M1076.2,10.3v9.4h-2.1c0,0,0.9-2.6,1.2-3.9C1075.5,14.7,1076.2,10.2,1076.2,10.3
			C1076.2,10.2,1076.2,10.2,1076.2,10.3z"/>
		<rect x="1074.3" y="19.7" class="st26" width="1.8" height="7.3"/>
		<polygon class="st26" points="1063.9,22.1 1063.9,28.2 1062,28.4 1062,22.1 		"/>
		<path class="st30" d="M1064.1,22.1h-2.1v-0.2l2-0.2l0,0C1064,21.9,1064.1,22.1,1064.1,22.1z"/>
		<path class="st27" d="M1063.9,21.6L1063.9,21.6l-2,0.2v-9.2c0.1,0.4,0.4,3,0.7,4.6c0.1,0.4,0.1,0.9,0.2,1.1
			C1063.1,19.2,1063.6,20.8,1063.9,21.6z"/>
		<polygon class="st30" points="1062,21.8 1062,22.1 1060,22.1 1060.1,22 		"/>
		<path class="st27" d="M1062,12.5v9.2l-1.8,0.2h-0.2l0,0c0,0,0.2-0.7,0.4-1.4c0.2-0.9,0.5-1.8,0.7-2.5
			C1061.3,17,1062,12.4,1062,12.5C1062,12.4,1062,12.5,1062,12.5z"/>
		<polygon class="st26" points="1062,22.1 1062,28.4 1060.1,28.6 1060.1,22.1 		"/>
	</g>
	<polygon class="st26" points="1086.6,22.1 1086.6,28.2 1088.4,28.4 1088.4,22.1 	"/>
	<path class="st27" d="M1086.3,22.1h2.1v-0.2l-2-0.2l0,0C1086.4,21.9,1086.3,22.1,1086.3,22.1z"/>
	<path class="st27" d="M1086.4,21.6L1086.4,21.6l2,0.2v-9.2c-0.1,0.4-0.4,3-0.7,4.6c-0.1,0.4-0.1,0.9-0.2,1.1
		C1087.3,19.2,1086.8,20.8,1086.4,21.6z"/>
	<polygon class="st27" points="1088.4,21.8 1088.4,22.1 1090.5,22.1 1090.2,22 	"/>
	<path class="st27" d="M1088.4,12.5v9.2l1.8,0.2h0.2l0,0c0,0-0.2-0.7-0.4-1.4c-0.2-0.9-0.5-1.8-0.7-2.5
		C1089.2,17,1088.4,12.4,1088.4,12.5C1088.4,12.4,1088.4,12.5,1088.4,12.5z"/>
	<polygon class="st26" points="1088.4,22.1 1088.4,28.4 1090.2,28.6 1090.2,22.1 	"/>
</g>
<path class="st31" d="M13.5,70.4c-1-0.9-1.5-2.1-1.7-3.3c-0.5-4.6,3-9.1,7.6-9.7c1.9-0.2,3.7,0.4,5.5,1.2c2,0.9,3.6,2.2,4.9,3.9
	c0.2,0.2,0.3,0.4,0.5,0.1c1.5-1.3,3.2-1.4,5-1.1c4.4,0.8,7.9,3.1,10.9,6.4c2.6,2.8,4.2,6.1,4.8,9.9c0.3,2.2,0.1,4.3-1.2,6.2
	c-1.7,2.4-5,3.3-7.9,2.2c-0.4-0.2-0.9-0.5-1.3-0.4c-0.4,0.1-0.4,0.8-0.6,1.2c-1,2.1-3,3-5.2,2.3c-0.2-0.1-0.4-0.1-0.5-0.1
	c-0.3-0.4-0.7-0.6-1.1-0.8c-0.4-0.7-1.1-1.4-1.1-2.3c0-0.5-0.3-0.6-0.7-0.3c-0.5,0.2-1.1,0-1.5,0.3c0-0.1,0-0.3-0.2-0.3
	s-0.2,0.1-0.2,0.2c0,0.4,0.1,1.3,0,1.4c0,0.1,0,0.2,0,0.3c-0.2,0.8-0.5,1.6-1.1,2.2c-0.3,0.3-0.7,0.4-0.8,0.8
	c-0.5,0.1-0.9,0.3-1.2,0.7c-0.2-0.1-0.4,0-0.6,0c-3.8,1.2-7.7,1.2-11.5,0c-2.6-0.8-4.8-2.2-6.3-4.5C6.7,85,6.2,83,6.8,80.7
	c0.4-1.1,1-2,2-2.8c0.2-0.1,0.3-0.3,0.5-0.4c-0.5-0.2-0.9-0.5-1.3-1c-0.8-1-0.6-2.3,0.6-2.9c1.1-0.6,2.2-0.7,3.4-0.5
	c0.5,0.1,0.7,0.2,0.7-0.5c0-0.6,0.2-1.1,0.6-1.6C13.5,70.9,13.5,70.6,13.5,70.4c0.6,0.8,1.4,1.5,1.1,2.7c0,0.1,0.1,0.2,0.1,0.3
	c0.1,0.5,0,0.7-0.6,0.5c-0.7-0.2-1.4,0-2,0.3c-0.7,0.3-1.5,1-1.4,2.1c0.1,0.6,0.4,0.9,0.8,1.3c0.2,0.2,0.4,0.3,0,0.5
	c-0.7,0.3-1.4,0.9-1.9,1.5c-1.5,1.9-1.6,3.9-1,6.1c0.8,2.7,3,3.9,5.5,4.7c1.5,0.5,3.1,0.6,4.6,0.8c1,0.1,2.1,0.1,3-0.1
	c1-0.1,2-0.5,3-0.8c2.6-1,3.9-2.7,3.9-5.5c0-0.3,0.2-0.4,0.4-0.4c0.7,0.1,1.3-0.2,2-0.4c0.4-0.2,0.7,0,0.8,0.4
	c0.3,0.8,0.7,1.5,1.3,2.2c1.7,1.6,4.4,1.7,5.7-0.4c0.6-0.9,1-1.9,1.3-2.9c0.1-0.4,0.2-0.6,0.6-0.3c2.3,1.3,4.6,1.5,6.9,0.2
	c1.2-0.7,2-1.8,2-3.2c0.1-1.4-0.2-2.7-0.7-4c-0.9-2.6-2.3-5-4.2-7c-1-1.1-2.3-2-3.6-2.8c-1.8-1.2-3.7-2.2-5.9-2.7
	c-1.7-0.4-3.4-0.3-5,0.5c-0.4,0.2-0.5-0.1-0.6-0.3c-0.5-0.9-1.2-1.6-1.9-2.3c-1.7-1.6-3.6-2.6-5.9-2.7c-2.8-0.2-5.3,0.6-7.3,2.8
	c-1.7,1.9-2.2,4.1-1.9,6.5C13,68.8,13.4,69.6,13.5,70.4z"/>
<path class="st32" d="M934.8,86.7c-0.9-0.1-1.7,0.2-2.5,0.2c-4.9,0.3-9.5-0.6-13.5-3.7c-2.7-2.1-3.9-4.9-3.4-8.3
	c0.1-0.9,0.1-1.2-0.9-1.4c-2.5-0.6-4.7-3.4-3.7-6.9c0.8-2.8,2.9-4.5,5.3-5.8c0.8-0.4,1.1-0.6,0.3-1.5c-1.5-1.7-1-3.9,1-5
	c0.3-0.1,0.6-0.3,1-0.4c-0.8-0.6-1.6-1.2-2.3-1.8c-3.6-3.2-4.2-7.7-1.6-11.6c1.1-1.6,2.6-2.9,4.3-3.9c4.6-2.7,9.7-3.7,14.8-4.4
	c3.4-0.5,6.9-0.3,10.1,1.1c3.7,1.6,6.5,4.2,7.4,8.4c0.2,0.8,0.2,1.6,0.1,2.3c-0.1,0.8,0.2,0.8,0.8,0.6s1.3-0.4,2-0.5
	c3.2-0.6,5.6,1.7,5,4.9c-0.2,1.1-0.1,1.6,1,2.2c2,1.1,2.7,3.4,1.7,5.5c-0.6,1.2-0.4,1.7,0.4,2.8c5.3,6.5,6.4,11.3,2.8,18.7
	c-2.2,4.5-5.3,8.1-10.1,9.9c-2.5,0.9-5.1,1.1-7.7,0.6c-0.4-0.1-0.8-0.3-1.3-0.1c-1.3-0.7-2.7-1.3-4-2c-0.3-0.7-1-0.9-1.5-1.4
	c-1.2-1.2-1.2-1.2-2.4,0c0,0-0.1,0.1-0.1,0.2C936.9,85.8,935.8,86.3,934.8,86.7z M957.6,85.4c0.3,0,0.4-0.1,0.4-0.4
	c2.3-1.9,4.2-4.1,5.5-6.8c1.7-3.4,2.2-6.8,0.6-10.3c-1.1-2.4-2.6-4.5-5-5.8c-0.5-0.2-0.5-0.5-0.3-0.9c0.4-0.8,0.9-1.6,1.2-2.5
	c0.5-2,0.9-4.2-0.6-5.8c-1.3-1.4-2.5-2.7-3.5-4.3c-1.5-2.3-4.2-2.8-7-1.8c-1.2,0.4-1.3,0.3-1.4-0.9c0-0.9,0-1.8-0.2-2.8
	c-1.1-5.5-4.8-8.4-9.8-8.9c-4.6-0.5-9.2,0-13.6,1.9c-2.9,1.3-5.4,2.9-7.2,5.7c-2.4,3.8-1.5,8.7,2.2,11.3c0.4,0.3,1.3,0.2,1.2,0.8
	c-0.1,0.5-0.7,0.8-1.1,1.3c-1.5,1.7-2.3,3.6-1.5,5.8c0.2,0.6-0.2,0.7-0.5,0.8c-0.9,0.3-1.7,0.9-2.4,1.5c-1.5,1.1-2.6,2.5-2.4,4.5
	c0.2,2,1.5,3.2,3.3,3.7c1.2,0.3,1.2,0.9,0.9,1.9c-0.9,3.3,0,6.4,2.4,8.6c4,3.7,9,4.9,14.4,3.8c2.2-0.4,4-1.6,5.7-2.9
	c0.6-0.4,0.9-0.3,1.3,0.2c0.5,0.7,1.1,1.4,1.8,1.9c1.9,1.5,4.2,2.3,6.5,2.8C952,88.4,955.1,87.8,957.6,85.4z"/>
<path class="st33" d="M691.7,95.4c0.3,1,0.8,1.8,1.4,2.6c0.3,0.3,0.2,0.5-0.1,0.7c-1.1,0.7-2.3,0.9-3.5,1.1
	c-2.1,0.3-4.3,0.3-6.3-0.5c-0.1,0-0.3-0.1-0.4-0.2c-1-0.5-1-0.5-0.2-1.3c0.7-0.7,1.1-1.6,1.3-2.5c0.7-1.6,0.9-3.4,1.1-5.1
	c0.5-4.1,0.1-8.2-0.2-12.3c0.9-0.2,1.6-0.6,2.4-0.9c0,0.4,0.1,0.9,0.1,1.3c0,0.5,0.3,0.5,0.6,0.2c0.5-0.4,0.7-0.9,1-1.4
	c0.7,0.2,1.5,0,2.2,0.3c-2.7,6-2.3,12,0.5,17.8C691.6,95.2,691.6,95.3,691.7,95.4L691.7,95.4z"/>
<path class="st33" d="M35.4,104.4c0.3,1,0.7,1.9,1.3,2.7c0.2,0.3,0.3,0.6-0.1,0.7c-2.7,1.2-5.5,2.1-8.5,0.9
	c-0.5-0.2-0.9-0.5-1.4-0.8c-0.4-0.2-0.4-0.5-0.1-0.8c0.7-0.9,1.3-1.8,1.8-2.9c0.9-2,1.3-4.1,1.6-6.2c0.1-1,0.2-1.9,0.3-2.9
	c0-0.3-0.1-0.5-0.4-0.7c-0.6-0.3-1.2-0.7-1.8-1c-0.8-0.5-1.4-1.2-1.6-2.1c0.3-0.5,0.7-0.6,1.2-0.7c0.8,0.7,1.7,1.1,2.7,1.4
	c0.1-1.9-0.3-3.6-0.4-5.4c0.1-0.3,0-0.6-0.1-0.8c0.5-0.3,1,0,1.5-0.3c0.5,1.7,0.5,3.5,0.8,5.3c0.4-0.9,0.6-1.8,1-2.7
	c0.4,0.2,0.8,0.5,1.1,0.8c-1.6,5.2-1,10.3,1,15.2C35.3,104.3,35.4,104.3,35.4,104.4L35.4,104.4z"/>
<path class="st34" d="M687.2,77c-0.8,0.3-1.6,0.8-2.4,0.9c-2.1,0.5-4.2,0.8-6.3,0.6c-1.7-0.2-3.3-0.6-4.4-2.1
	c-0.3-0.4-0.6-0.9-0.6-1.5c0-0.5-0.2-0.5-0.6-0.5c-1,0-2-0.3-2.9-0.9c-2.2-1.5-2.7-4-1.4-6.2c0.8-1.3,1.9-2.2,3.2-3
	c0.2-0.1,0.3-0.2,0.6-0.3c-0.9-1.2-1.5-2.6-1.8-4.1c-0.5-3.1,0.7-5.6,3-7.5c2.3-2,5.1-3.1,8.2-3.3c3-0.2,5.7,0.7,7.8,3.1
	c0.6,0.7,1.1,1.6,1.4,2.5c0.2,0.5,0.3,0.5,0.8,0.3c4.6-2.3,10.9-1,14.3,2.8c2.8,3,3.8,9.5-0.5,13c-1.7,1.4-3.4,3-5.7,3.3
	c-1.4,0.2-2.6,0.8-3.7,1.7c-1.2,1-2.7,1.4-4.2,1.6c-0.3,0-0.6,0-0.9,0.2c-0.7-0.3-1.5-0.1-2.2-0.3C688.3,76.7,687.8,76.5,687.2,77z
	 M707.6,63.7c0-0.7-0.1-1.4-0.2-2c-0.4-1.6-1.3-2.9-2.3-4.1c-0.7-0.8-1.5-1.4-2.5-1.9c-1.1-0.6-2.3-0.9-3.5-1.2
	c-1.5-0.3-2.9-0.5-4.4-0.1c-1.2,0.3-2.4,0.6-3.4,1.2c-0.3,0.2-0.5,0.2-0.7-0.2c-0.5-1-1-1.9-1.8-2.8c-1.6-1.9-3.8-2.4-6.1-2.4
	c-1.4,0-2.9,0.4-4.3,1c-2,0.9-3.8,2-5.1,3.9c-1.6,2.5-2.3,5.2-0.4,8c0.4,0.6,0.3,0.9-0.3,1.2c-1.2,0.6-2.1,1.5-2.9,2.5
	c-1.7,2-0.7,5.9,2,6.7c0.9,0.2,1.8,0.2,2.6,0.2c0.7,0,0.8,0.2,0.8,0.8c0,1.4,0.8,2.4,2,3s2.5,0.6,3.8,0.4c2-0.3,3.8-1,5.4-2.2
	c0.6-0.4,0.9-0.8,1.7-0.2c1.7,1.1,3.5,0.8,5.3,0.2c1.5-0.5,2.7-1.4,3.7-2.6c0.3-0.3,0.6-0.4,1-0.3c1,0.2,2,0.3,3-0.1
	c1.6-0.6,2.9-1.6,4-2.8C706.7,68.3,707.5,66.2,707.6,63.7z"/>
<path class="st33" d="M941.9,86.7c1.3,0.7,2.7,1.3,4,2c-0.4,2.5-0.1,4.9,0.6,7.2c0.3,1.9,1,3.7,1.8,5.5c0.1,0.3,0.3,0.5,0.1,0.8
	s-0.5,0.1-0.8,0c-1.9-0.6-3.7-0.6-5.4,0.6c-1.1,0.8-2.3,0.5-3.3-0.4c-1.6-1.5-3.3-1.9-5.2-0.8c-0.3,0.2-0.8,0.4-1.1,0
	c-0.2-0.3,0.2-0.6,0.4-0.9c1.1-1.5,2-3.1,2.4-4.9c1.1-2.9,0.6-5.7-0.5-8.4c-0.1-0.2-0.1-0.3-0.1-0.5c1.1-0.4,2.1-0.9,3.2-1.3
	c1.1,2,1.5,4.2,2.4,6.2c0.1,0.2,0,0.6,0.4,0.6c0.5,0,0.3-0.4,0.4-0.6C941.4,90,941.6,88.3,941.9,86.7z"/>
<path class="st35" d="M691.6,95.3L691.6,95.3C691.6,95.2,691.6,95.3,691.6,95.3z"/>
<path class="st35" d="M35.4,104.4c0-0.1-0.1-0.1-0.1-0.2C35.3,104.3,35.4,104.3,35.4,104.4z"/>
<path class="st0" d="M13.5,70.4c-0.1-0.8-0.5-1.5-0.6-2.3c-0.3-2.5,0.2-4.6,1.9-6.5c2-2.2,4.5-3,7.3-2.8c2.3,0.2,4.2,1.1,5.9,2.7
	c0.7,0.7,1.4,1.4,1.9,2.3c0.1,0.3,0.3,0.5,0.6,0.3c1.6-0.8,3.2-0.9,5-0.5c2.2,0.4,4.1,1.5,5.9,2.7c1.3,0.8,2.5,1.7,3.6,2.8
	c1.9,2,3.3,4.3,4.2,7c0.4,1.3,0.7,2.6,0.7,4c-0.1,1.5-0.8,2.6-2,3.2c-2.3,1.2-4.7,1.1-6.9-0.2c-0.4-0.2-0.5-0.1-0.6,0.3
	c-0.2,1-0.7,2-1.3,2.9c-1.3,2.1-4,2-5.7,0.4c-0.6-0.6-1.1-1.3-1.3-2.2c-0.1-0.4-0.4-0.6-0.8-0.4c-0.6,0.3-1.3,0.5-2,0.4
	c-0.3,0-0.4,0-0.4,0.4c0,2.8-1.3,4.5-3.9,5.5c-1,0.4-2,0.7-3,0.8c-0.9,0.1-2,0.2-3,0.1c-1.5-0.2-3.1-0.3-4.6-0.8
	c-2.5-0.8-4.6-2.1-5.5-4.7c-0.7-2.1-0.5-4.2,1-6.1c0.5-0.7,1.1-1.2,1.9-1.5c0.5-0.2,0.2-0.3,0-0.5C11.4,77.3,11,77,11,76.4
	c-0.1-1,0.6-1.7,1.4-2.1c0.6-0.3,1.3-0.4,2-0.3c0.5,0.1,0.6-0.1,0.6-0.5c0-0.1-0.1-0.2-0.1-0.3C14.9,71.8,14.1,71.1,13.5,70.4
	C13.5,70.3,13.5,70.4,13.5,70.4z M42,71c-0.3,0-0.4-0.3-0.5-0.5c-1.5-2.1-3.8-3.1-6.2-4c-1.8-0.7-3.8-0.7-5.7-0.6
	c-0.6,0-1.1-0.2-1.5-0.6c-2.1-2-4.4-2.2-6.9-1.1c-0.6,0.3-1,0.8-1.3,1.3c-0.2,0.3,0,0.8,0.1,1.1c0.3,0.8,0,1.1-0.6,1.5
	c-1.7,1.3-2,3.7-0.1,5.1c1.5,1,3.2,1.4,5,1.1c0.6-0.1,1,0.1,1.2,0.7c0.3,1,0.6,2.1,0.9,3.1c0.2,0.6,0.3,1.2,0.7,1.7
	c1.2,1.7,2.9,2.7,5.1,2.4c1.3-0.2,2.3-0.8,2.9-2c0.2-0.3,0.2-0.8,0.6-0.9c0.4-0.1,0.9-0.1,1.3-0.2c1.6-0.1,2.9-0.8,4-1.8
	c1.5-1.4,2.1-3.2,1.2-5.3C42.1,71.8,42,71.4,42,71c0.1,0,0.2,0,0.2-0.2l0,0C42,70.8,42,70.9,42,71z M26,83.2c0-0.3,0.1-0.5,0-0.8
	c-0.4-1.2-0.5-2.5-0.9-3.7c-0.7-1.9-2.3-2.7-4.3-2.7c-1.1,0-2.1,0.2-3.1,0.6c-1.7,0.6-3.2,1.6-4.1,3.2c-1.1,2-1,4.1,0.2,6
	c0.2,0.3,0.3,0.7,0.6,0.9c1.2,0.9,2.3,1.6,3.9,1.8c1.8,0.2,3.5-0.1,5-1C24.9,86.5,26,85.2,26,83.2z M48.4,78.9
	c0.3-1.9-1.4-2.7-2.9-2.8C44,76,42,77.7,42.1,79.5s1.1,2.8,3,2.9S48.6,80.9,48.4,78.9z"/>
<g>
	<path class="st36" d="M813.4,107.8c-0.2-0.6-0.7-0.6-1.1-0.7c-1.3-0.4-2.5-1-3.3-2.2c0.4,0.1,0.8,0.2,1.2,0.2l0.1,0.1l-0.1-0.1
		c-0.8-1.2-1.4-2.4-1.5-3.9c-0.1-2.2,0.8-4.1,2.1-5.7c0.6-0.8,0.3-1.1-0.3-1.5c-2.9-2-4.3-5.8-3.5-9.2c1.1-5,3.9-8.9,8-11.8
		c4.2-3,9-4.1,14-4.4c3.2-0.2,6.2,0.7,9,2.1c3.2,1.6,5.8,3.8,7.3,7.2c0.4,0.9,0.9,1,1.5,0.3c0.2-0.2,0.5-0.5,0.7-0.7
		c1.3-1.3,2.7-1.5,4.3-0.7c1.4,0.6,2.3,1.7,2.8,3.1c0.4,1.1,0.9,2,2,2.6s1.7,1.6,2.2,2.8c0.6,1.4,0.5,2.8,0.5,4.2
		c0,0.7,0,1.1,0.8,1.6c0.9,0.5,1.5,1.4,1.8,2.4c0.9,2.9,0.2,5.5-1.5,7.9c-0.4,0.6-0.7,1.3-0.5,2c0.5,2.8-0.5,5.2-2.3,7.3
		c-2.1,2.3-5.2,2.8-8,3.7c-1,0.3-2,0.5-2.9,0.5c-1.6-0.1-3.3-0.1-4.9-0.2c-2.3-0.1-4.5-0.7-6.4-2.1c-0.7-0.5-1.3-0.6-2.1-0.2
		c-2.8,1.3-5.6,2.7-8.6,3.3c-2.3,0.5-4.6,0.4-6.5-1.2c-1.8-1.5-2.3-3.4-2.1-5.6c0-0.4,0.1-1.1-0.5-1.1
		C814.8,107.7,814,106.8,813.4,107.8z M843.3,110c2.1,0.2,4.3-0.6,6.4-1.5c1.4-0.7,2.7-1.7,3.7-3c2.5-3.6,2.8-7.3,1.1-11.3
		c-0.6-1.4-1.5-2.7-2.8-3.5c-3.2-1.9-6.6-2.7-10.1-0.6c-0.4,0.2-0.9,0.5-1.2,0.1c-1-1-2.2-0.8-3.4-0.6c-2.7,0.4-4.7,1.9-5.8,4.4
		c-0.4,0.9-0.9,1-1.7,0.9c-2.4-0.5-4.4,0-6.2,1.7c-1.6,1.5-2.3,3.4-1.7,5.4c0.5,1.9,1.8,3.3,3.9,3.9c2.2,0.6,4.1,0,5.9-1.1
		c0.6-0.4,0.9-0.3,1.3,0.3C835.4,108.4,838.7,110.1,843.3,110z M823.4,91.1c3,0.2,5.9-0.8,8.7-2.3c3.1-1.7,5.6-4,6.6-7.5
		c0.5-1.7,0.4-3.5-0.7-5.1c-1.9-2.7-4.8-3.6-7.9-3.8c-3.3-0.2-6.4,0.5-9.5,1.6c-3.5,1.3-6.2,3.4-8.1,6.6c-1.3,2.1-1.3,5.7,0.7,7.3
		c1,0.8,2.1,1.1,3.3,1.7C818.5,90.7,820.8,91.2,823.4,91.1z"/>
	<path class="st34" d="M813.4,107.8c0.6-1,1.4-0.1,2.1-0.1c0.6,0,0.5,0.7,0.5,1.1c-0.2,2.2,0.3,4.1,2.1,5.6c1.9,1.6,4.2,1.7,6.5,1.2
		c3-0.7,5.8-2.1,8.6-3.3c0.8-0.4,1.4-0.3,2.1,0.2c1.9,1.4,4.1,2,6.4,2.1c1.6,0.1,3.3,0.2,4.9,0.2c0.9,0,2-0.2,2.9-0.5
		c2.8-0.9,5.9-1.4,8-3.7c1.9-2,2.8-4.5,2.3-7.3c-0.1-0.8,0.1-1.4,0.5-2c1.7-2.4,2.4-5,1.5-7.9c-0.3-1-0.9-1.9-1.8-2.4
		c-0.7-0.4-0.8-0.9-0.8-1.6c0-1.4,0.1-2.8-0.5-4.2c-0.5-1.2-1.1-2.2-2.2-2.8c-1.1-0.6-1.6-1.5-2-2.6c-0.5-1.4-1.4-2.5-2.8-3.1
		c-1.6-0.8-3-0.5-4.3,0.7c-0.2,0.2-0.5,0.5-0.7,0.7c-0.7,0.6-1.1,0.6-1.5-0.3c-1.5-3.4-4.1-5.6-7.3-7.2c-2.8-1.4-5.8-2.3-9-2.1
		c-5,0.3-9.8,1.4-14,4.4c-4.2,2.9-6.9,6.8-8,11.8c-0.8,3.4,0.6,7.2,3.5,9.2c0.6,0.4,1,0.7,0.3,1.5c-1.3,1.7-2.2,3.5-2.1,5.7
		c0,1.5,0.7,2.7,1.5,3.9l0,0c-0.4-0.1-0.8-0.2-1.2-0.2c-0.1,0-0.1-0.1-0.1-0.1c0.1-0.3-0.1-0.5-0.2-0.8c-1-1.4-1.6-2.9-0.8-4.7
		c0.1-0.2,0.3-0.9-0.3-1.2c0.1-0.2,0.1-0.4,0.2-0.6v-0.1c0.1-0.3,0.2-0.6,0.5-0.9c0.1-0.1,0.1-0.2,0.2-0.3c0-0.1,0.1-0.3,0.1-0.4
		c0.2,0,0.4-0.1,0.3-0.2c-0.2-0.4-0.6-0.5-1.1-0.4c-0.1-0.1-0.1-0.1-0.2-0.2c0-0.2-0.1-0.2-0.3-0.2l0,0c0-0.2-0.1-0.2-0.3-0.2l0,0
		c0.2-0.4,0-0.6-0.3-0.8c-0.9-0.6-1.2-1.6-1.8-2.5c-0.1-0.2-0.2-0.4-0.5-0.4l0,0c0.1-1.1-0.3-2.1-0.7-3.1c0-0.2,0-0.3,0-0.5
		c0.5-1.1,0.3-2.2,0.1-3.4c0-0.2,0.1-0.4,0.1-0.5c0.1-0.1,0.1-0.1,0.1-0.2l0,0c1.1-2,1.6-4.3,3-6.2c0.1-0.1,0-0.3,0-0.5l0,0
		c0.8,0,0.9-0.5,0.8-1.1l0,0c0.3,0,0.5-0.2,0.5-0.5l0,0c0.3,0,0.5-0.2,0.5-0.5l0,0c0.3,0,0.5-0.1,0.5-0.5l0,0
		c0.1-0.1,0.2-0.2,0.2-0.2l0,0c0.5,0,0.7-0.2,0.7-0.7l0,0c0.2,0,0.4-0.1,0.4-0.3v0.1v-0.1c0.2,0,0.2-0.1,0.3-0.2h0.1h-0.1
		c0.5,0.1,0.7-0.1,0.8-0.6c0.1-0.1,0.2-0.2,0.3-0.3c0.7,0,1.2-0.2,1.4-0.9h0.1c0.4-0.1,0.9-0.1,1.1-0.6l0,0c0.2,0,0.4,0,0.4-0.3l0,0
		c0.1,0,0.2-0.1,0.3-0.1c2.6-1.5,5.5-2.2,8.5-2.5c4.5-0.5,9.1-0.7,13.6,0.5c3.3,0.9,5.8,2.7,7.3,5.8c0.4,0.8,0.7,0.9,1.4,0.4
		c2-1.4,4.2-1.7,6.6-1c2.3,0.7,3.3,2.1,3.3,4.6c0,0.8,0.2,1.1,1,1.1c2.1,0.1,3.8,1.9,4,4.3c0,0.3,0.1,0.6,0,0.8
		c-0.2,1.4,0.1,2.5,1.1,3.6c1.2,1.3,1.4,3.1,1.4,4.8c0.1,3-0.4,6-1.6,8.9c-0.3,0.7-0.2,1.2,0.3,1.7c1.2,1.4,2.2,3,2.4,4.8
		c0.4,3.4-1.6,5.5-4.2,7c-3.1,1.9-6.7,2.3-10.2,2.7c-1.3,0.2-2.6,0.2-4,0.3c-0.9,0-1.8,0-2.7,0c-0.1,0-0.2-0.1-0.3-0.1
		s-0.2,0-0.3-0.1c-1.4,0.1-2.8-0.3-4.2-0.5c-2.1-0.1-3.9-1.1-5.7-2.1c-0.9-0.5-1.4-0.2-1.9,0.4c-0.9,0-1.7,0.5-2.3,1.1
		c-1,0-1.7,0.7-2.6,1c-3.1,0.7-6,0.7-8.8-0.9c-0.6-0.8-1.3-1.6-2.3-2l-0.1-0.1c-0.1-0.6-0.1-1.3-0.8-1.5l0,0c0-0.8,0-1.6-0.7-2.2
		C813.2,109.4,813.3,108.6,813.4,107.8z"/>
	<path class="st33" d="M843.5,117.3c0.9,0,1.8,0,2.7,0c-1.4,3.1-2.4,6.3-4,9.3c-1,1.9-2.2,3.7-4.7,3.8c-0.7,0-0.5,0.7-0.5,1
		c0,2.8,0.3,5.6,1,8.4c0.7,2.8,1.4,5.6,2.6,8.3c0.6,2.1,1.6,4.1,2.6,6.1c0.5,0.9,0.2,1.1-0.6,1.4c-3.6,1.3-7.3,1.4-11,0.8
		c-2-0.3-4-0.7-5.9-1.3c-1.5-0.5-1.5-0.6-0.7-1.9c1-1.6,1.9-3.3,2.4-5.1c1.4-2.6,2.2-5.4,2.8-8.2c0.7-3.1,1.2-6.3,1.4-9.5
		c0.1-2.2-1-4-1.8-5.9c-1-2.6-2.2-5.1-3.6-7.5c0.9-0.3,1.6-0.9,2.6-1c1,1,1.4,2.4,2.3,3.6c0-1.6,0-3.2,0-4.7c0.5-0.6,1-0.9,1.9-0.4
		c1.8,1,3.6,2,5.7,2.1c-0.7,3.3-1.1,6.6-1.4,10c0,0.3-0.2,0.8,0.2,1c0.3,0.1,0.7-0.1,1-0.3c0.8-0.5,1.3-1.3,1.7-2.1
		C841.5,122.6,842.5,119.9,843.5,117.3z"/>
	<path class="st36" d="M807.5,98.1c0.6,0.3,0.4,0.9,0.3,1.2c-0.8,1.8-0.2,3.3,0.8,4.7c0.2,0.2,0.3,0.5,0.2,0.8
		C807,102.9,806.6,100.6,807.5,98.1z"/>
	<path class="st36" d="M806.9,76.5c0,0.2,0.1,0.4,0,0.5c-1.4,1.9-1.9,4.2-3,6.2C804.2,80.6,805.2,78.4,806.9,76.5z"/>
	<path class="st36" d="M804.3,90.9c0.3,0,0.4,0.2,0.5,0.4c0.5,0.9,0.9,1.9,1.8,2.5c0.3,0.2,0.4,0.5,0.3,0.8
		C805.6,93.7,804.7,92.4,804.3,90.9z"/>
	<path class="st36" d="M803.6,83.9c0.2,1.1,0.4,2.3-0.1,3.4C803.2,86.1,803.4,85,803.6,83.9z"/>
	<path class="st36" d="M815.1,114.1c1,0.3,1.7,1.1,2.3,2C816.4,115.6,815.7,114.9,815.1,114.1z"/>
	<path class="st36" d="M803.6,87.7c0.4,1,0.8,2,0.7,3.1C803.8,89.9,803.5,88.9,803.6,87.7z"/>
	<path class="st36" d="M813.5,110.2c0.7,0.6,0.7,1.4,0.7,2.2C813.7,111.8,813.4,111,813.5,110.2z"/>
	<path class="st36" d="M813.3,70.6c-0.2,0.7-0.7,0.9-1.4,0.9C812.3,71.1,812.7,70.8,813.3,70.6z"/>
	<path class="st36" d="M814.2,112.5c0.8,0.2,0.8,0.9,0.8,1.5C814.5,113.6,814.3,113.1,814.2,112.5z"/>
	<path class="st36" d="M807.7,75.4c0,0.6-0.1,1.1-0.8,1.1C807,76,807.3,75.6,807.7,75.4z"/>
	<path class="st36" d="M807.6,95.3c0.5-0.1,0.9,0,1.1,0.4c0.1,0.2-0.1,0.2-0.3,0.2C808.2,95.7,807.9,95.5,807.6,95.3z"/>
	<path class="st36" d="M810.1,73c0,0.5-0.3,0.7-0.7,0.7C809.5,73.3,809.8,73.1,810.1,73z"/>
	<path class="st36" d="M814.4,70c-0.2,0.5-0.6,0.5-1.1,0.6C813.6,70.3,814,70.1,814.4,70z"/>
	<path class="st36" d="M811.6,71.8c-0.1,0.5-0.3,0.7-0.8,0.6C811,72.1,811.2,71.9,811.6,71.8z"/>
	<path class="st36" d="M809.1,73.9c0,0.3-0.1,0.5-0.5,0.5C808.7,74.1,808.9,74,809.1,73.9z"/>
	<path class="st36" d="M808.6,74.4c0,0.3-0.1,0.5-0.5,0.5C808.2,74.6,808.4,74.5,808.6,74.4z"/>
	<path class="st36" d="M808.2,74.9c0,0.3-0.1,0.5-0.5,0.5C807.8,75.1,807.9,75,808.2,74.9z"/>
	<path class="st36" d="M810.5,72.6c0,0.3-0.2,0.3-0.4,0.3C810.2,72.8,810.3,72.7,810.5,72.6z"/>
	<path class="st36" d="M814.9,69.7c0,0.3-0.2,0.3-0.4,0.3C814.6,69.9,814.7,69.8,814.9,69.7z"/>
	<path class="st36" d="M815.2,69.6c-0.1,0-0.2,0.1-0.3,0.1C815,69.7,815.1,69.6,815.2,69.6z"/>
	<path class="st36" d="M807.2,94.8c0.2,0,0.2,0.1,0.3,0.2C807.3,95,807.2,94.9,807.2,94.8z"/>
	<path class="st36" d="M806.9,94.6c0.2,0,0.2,0,0.3,0.2C807.1,94.7,807,94.7,806.9,94.6z"/>
	<path class="st36" d="M803.8,83.1c0,0.1,0,0.1-0.1,0.2C803.8,83.3,803.8,83.2,803.8,83.1C803.8,83.2,803.8,83.1,803.8,83.1z"/>
	<path class="st36" d="M809.4,73.7c-0.1,0.1-0.2,0.2-0.2,0.2C809.2,73.8,809.3,73.7,809.4,73.7z"/>
	<path class="st36" d="M810.8,72.4c0,0.2-0.1,0.2-0.3,0.2C810.6,72.5,810.7,72.5,810.8,72.4z"/>
	<path class="st36" d="M808.4,96.3c-0.1,0.1-0.1,0.2-0.2,0.3C808.2,96.5,808.3,96.4,808.4,96.3z"/>
	<path class="st36" d="M807.7,97.5L807.7,97.5L807.7,97.5z"/>
	<path class="st37" d="M843.3,110c-4.6,0.1-8-1.7-10.6-5c-0.4-0.6-0.7-0.7-1.3-0.3c-1.8,1.2-3.7,1.8-5.9,1.1c-2.1-0.6-3.4-2-3.9-3.9
		c-0.5-2,0.2-3.9,1.7-5.4c1.8-1.7,3.8-2.2,6.2-1.7c0.8,0.2,1.3,0,1.7-0.9c1.1-2.5,3.1-4,5.8-4.4c1.2-0.2,2.4-0.4,3.4,0.6
		c0.4,0.4,0.9,0.1,1.2-0.1c3.5-2.2,6.8-1.4,10.1,0.6c1.3,0.8,2.2,2.1,2.8,3.5c1.7,3.9,1.4,7.7-1.1,11.3c-1,1.4-2.3,2.4-3.7,3
		C847.6,109.4,845.4,110.2,843.3,110z"/>
	<path class="st37" d="M823.4,91.1c-2.6,0.1-4.8-0.4-7-1.4c-1.1-0.5-2.2-0.8-3.3-1.7c-2-1.6-2-5.2-0.7-7.3c1.9-3.1,4.7-5.2,8.1-6.6
		c3.1-1.2,6.2-1.8,9.5-1.6c3.1,0.2,5.9,1.1,7.9,3.8c1.1,1.5,1.2,3.3,0.7,5.1c-1,3.5-3.5,5.8-6.6,7.5
		C829.3,90.3,826.4,91.3,823.4,91.1z"/>
	<path class="st34" d="M810.1,105.1L810.1,105.1C810.2,105.2,810.2,105.2,810.1,105.1C810.1,105.2,810.1,105.1,810.1,105.1z"/>
	<path class="st33" d="M843.2,117.1c-0.1,0-0.2,0-0.3-0.1C843.1,117.1,843.1,117.1,843.2,117.1z"/>
</g>
<path class="st0" d="M957.6,85.4c-2.6,2.3-5.6,3-9,2.3c-2.3-0.5-4.6-1.2-6.5-2.8c-0.7-0.6-1.3-1.2-1.8-1.9c-0.4-0.6-0.7-0.7-1.3-0.2
	c-1.7,1.3-3.6,2.5-5.7,2.9c-5.4,1.1-10.4-0.1-14.4-3.8c-2.4-2.2-3.3-5.2-2.4-8.6c0.3-1,0.3-1.5-0.9-1.9c-1.8-0.5-3.1-1.7-3.3-3.7
	s0.9-3.4,2.4-4.5c0.8-0.6,1.5-1.1,2.4-1.5c0.4-0.1,0.7-0.3,0.5-0.8c-0.8-2.3,0-4.2,1.5-5.8c0.4-0.4,1-0.8,1.1-1.3
	c0.1-0.6-0.8-0.5-1.2-0.8c-3.7-2.5-4.6-7.5-2.2-11.3c1.8-2.8,4.3-4.4,7.2-5.7c4.3-1.9,9-2.3,13.6-1.9c5,0.5,8.7,3.4,9.8,8.9
	c0.2,0.9,0.2,1.8,0.2,2.8c0.1,1.3,0.2,1.3,1.4,0.9c2.9-1,5.5-0.5,7,1.8c1.1,1.6,2.2,2.9,3.5,4.3c1.5,1.6,1.1,3.8,0.6,5.8
	c-0.2,0.9-0.7,1.7-1.2,2.5c-0.2,0.4-0.2,0.7,0.3,0.9c2.4,1.3,3.9,3.3,5,5.8c1.6,3.6,1.1,7-0.6,10.3c-1.3,2.7-3.2,4.9-5.5,6.8
	c-0.2-0.1-0.4-0.1-0.6-0.2c-0.2-0.8-1-1.2-1.5-1.8c-0.4-0.4-0.5-0.7,0-1.1c0.8-0.8,1.7-1.5,2.4-2.4c2.2-2.5,3.4-5.5,2.9-8.9
	c-0.5-3.6-3.4-6.5-7-6.7c-1.3-0.1-2.7-0.3-3.9,0.5c-2.2,1.4-4.5,2.8-6,5.1c-0.3,0.5-0.7,0.9-1.4,0.8c0-0.3-0.1-0.5-0.4-0.5
	c-0.1,0-0.2,0.1-0.2,0.2c0.1,0.3,0.3,0.4,0.5,0.4c0,0.4,0.4,0.8-0.1,1.3c-1.4,1.4-2.5,3-2.5,5.2c0,2.9,2,5.7,4.6,6.8
	c3.1,1.3,6,1.2,8.9-0.5c0.7-0.4,1.3-0.4,1.9,0.3c0.5,0.5,0.9,1.2,1.7,1.4C957.4,85,957.4,85.3,957.6,85.4z M926.7,54.5
	c-0.7,0.8-1.9,0.9-2.7,1.6c-1.8,1.8-3.2,3.7-3.7,6.3c-0.5,2.7-0.5,5.2,1.4,7.3c0.4,0.5,0.6,0.9,0.3,1.4c-0.8,1.4-0.7,2.9-0.5,4.4
	c0.3,2.4,2,4.9,4.8,5.4c1.7,0.3,3.3,0.2,5-0.4c2.3-0.8,4.2-2.2,5.9-3.8c2.2-2.1,3.3-5.1,4.9-7.7c0.3-0.6,0.6-1,1.1-1.4
	c1.8-1.4,3.7-2.7,5.2-4.3c1.9-2,2.3-4.4,1.6-6.9c-0.6-2.4-3.5-4.2-6-4.3c-2.8-0.1-5.2,0.9-7.3,2.9c-0.6,0.5-1,0.6-1.8,0.3
	c-2-0.9-4-1.6-6.3-1.2c-1.5,0.2-2.7-0.4-3.3-1.9c1.7-0.1,3.4,0.2,5.1-0.2c3.3-0.7,6.4-1.9,9.3-3.7c2.8-1.8,3.9-5.5,1.4-8.1
	c-2.2-2.3-5.1-2.7-8-3.1c-2.7-0.3-5.2,0.6-7.5,1.8c-1.4,0.7-2.7,1.5-4,2.6c-1.1,0.9-1.6,2-2.3,3.1c-1.2,1.8-1.1,3.7,0.2,5.5
	c0.7,0.9,1.6,1.3,2.6,1.5C924.1,51.9,925.5,52.9,926.7,54.5z"/>
<path class="st37" d="M957.4,84.8c0.2,0.1,0.4,0.1,0.6,0.2c0,0.3-0.1,0.4-0.4,0.4C957.4,85.3,957.4,85,957.4,84.8L957.4,84.8z"/>
<g>
	<path class="st38" d="M1135,80.6c0-0.2,0.1-0.4,0.1-0.5c0.1-0.2,0.1-0.4-0.1-0.5l0,0c0-2.1,0-4.2,0.9-6.2c1.4-3.1,3.6-4.4,6.8-3.2
		c1.6,0.6,2.6,2,3.9,3.1c0.3,0.3,0.7,0.6,0.9,0.1c0.5-1.1,1.5-1.6,2.3-2.2c0.6-0.5,0.6-0.9,0.2-1.5c-1.4-1.8-2.2-4-2.9-6.3
		c-0.5-1.6-0.8-3.4-0.8-4.9c-0.1-3.4,0.6-6.7,2.3-9.6c2.2-3.6,5.1-5.9,8.6-7c2.4-0.8,4.9-1,7.4-0.5c4.6,0.9,8.6,3,11.6,7.6
		c2.1,3.2,2.3,6.7,1.6,10.4c-0.4,2.2-1.1,4.4-2.2,6.3c-0.1,0.2-0.3,0.4-0.2,0.7c0.2,0.3,0.4,0,0.6,0c0.4-0.1,0.9-0.3,1.3-0.2
		c3.8,0.4,4.6,4.7,3.5,7.7c-0.6,1.7-0.6,1.7,0.9,1.7c2.1,0.1,4.1,0.5,5.8,2c-0.5,0.7-1.1-0.1-1.7,0.1c-2.2,0.6-3.5,2.3-4.2,4.8
		c-0.7,2.4-1.7,3.4-3.6,3.3c-0.6,0-1.2-0.2-1.9-0.3c-1.8-0.4-3.5,0.7-4,2.7c-0.2,0.6-0.3,1-0.9,0.9c-0.1-0.1-0.1-0.2-0.2-0.2
		c0-0.5-0.6-0.8-0.4-1.3c0.8-1.9,1.2-4,2.1-5.8c1-1.9,1.8-3.9,2.4-6c0.4-1.4,0-2.7-0.8-3.8c-0.6-0.8-0.9-1.5-0.4-2.4l0.1-0.1
		l-0.1,0.1c-0.6,0-0.8,0.9-1.4,0.8c-1.9-0.5-3.6,0.1-5.3,1.1c-1.3,0.8-2.8,1.1-4.2,0.2c-0.8-0.5-1.6-1.1-2.5-1.5
		c-1.2-0.5-2.3-0.8-3.5-0.3c-0.6,0.3-1.1,0.5-1.7,0l-0.1-0.1l0.1,0.1c0.2,0.5,0.3,1.2-0.1,1.6c-1.4,1.8-1.9,4-2.1,6.4
		c0,0.3-0.2,0.8-0.6,0.6c-1.5-0.7-3.1-0.4-4.7-0.3c-3.5,0.1-6.3,1.9-8,5.8c-0.9,2.1-0.3,5.8,1.1,6.9c1.3,1.1,2.8,1.7,4.4,1.6
		c1.1-0.1,1.8,0.4,2.3,1.5c0.3,0.7,0.7,1.2,1.3,1.7c1.4,1.1,2.9,1.7,4.5,2c1.8,0.3,3.6,0.3,5.3,0c2.1-0.4,4-1.3,5.9-2.5
		c2-1.3,3.6-3,4.7-5.4c0.4-0.8,0.7-1.3,1.5-0.9c0.1,0.1,0.1,0.2,0.2,0.3c0.7,0.7,0.2,1.8,0.5,2.6c0.9,2.8,2.4,4.9,4.9,5.8
		c1,0.4,2.1,0.5,2.7,1.8c-1.3,0.7-2.7,0.4-4.1,0.5c-1-0.2-2.1-0.4-3.1-0.6c-0.1-0.1-0.1-0.2-0.2-0.2c-1.9-1-3.8-1.9-5.4-3.6
		c-0.2-0.3-0.4-0.1-0.6,0.1c-2.9,2.5-6,4.4-9.6,4.9c-4.2,0.6-7.9-0.8-10.7-4.7c-0.7-0.9-1.2-1-2-0.7c-2.8,0.8-5.6,0.5-8.2-0.8
		c-2.3-1.2-3.6-5.1-2.4-7.8c0.6-1.3,1.2-2.6,2.1-3.7C1135.7,82,1135.6,81.3,1135,80.6z M1162.5,43.8c-2.1-0.1-4,0.7-5.9,1.7
		c-2.7,1.5-4.9,3.5-5.9,7c-0.6,2.1-0.8,4.4,0.1,6.5c0.6,1.4,1.5,2.5,2.7,3.4c1.5,1.1,2.9,1.1,4.4,0.8c2.8-0.5,5-2.7,7.7-3.7
		c0.9-0.3,1.7-0.2,2.5,0.2c1.2,0.6,1.1,2.1,1.6,3.1c0.3,0.6,0.6,1.2,1.3,1.3c0.8,0.1,1.5-0.1,1.9-0.9c1-1.9,1.6-4.1,1.8-6.3
		c0.2-2.6-0.6-4.9-2-6.8C1169.8,46.4,1166.5,44.4,1162.5,43.8z"/>
	<path class="st39" d="M1187.7,77.5c-1.7-1.5-3.8-2-5.8-2c-1.6-0.1-1.6,0-0.9-1.7c1.1-3,0.4-7.3-3.5-7.7c-0.4,0-0.9,0.1-1.3,0.2
		c-0.2,0-0.4,0.3-0.6,0c-0.1-0.3,0-0.5,0.2-0.7c1.1-1.9,1.8-4.1,2.2-6.3c0.7-3.7,0.5-7.2-1.6-10.4c-3-4.6-7-6.7-11.6-7.6
		c-2.5-0.5-5-0.2-7.4,0.5c-3.5,1.1-6.4,3.4-8.6,7c-1.7,2.9-2.4,6.2-2.3,9.6c0,1.5,0.3,3.3,0.8,4.9c0.8,2.2,1.6,4.5,2.9,6.3
		c0.5,0.6,0.4,1-0.2,1.5c-0.8,0.6-1.8,1-2.3,2.2c-0.2,0.5-0.6,0.2-0.9-0.1c-1.3-1.1-2.3-2.5-3.9-3.1c-3.2-1.2-5.4,0.1-6.8,3.2
		c-0.9,2-0.9,4.1-0.9,6.2c-1.3-2.7-1.2-5.5-0.1-8.2c0.9-2.2,2.4-3.4,4.4-3.5c1.9-0.1,3.6,0.7,5.2,1.8c0.5,0.3,0.8,0.9,1.4,0.9
		c0,0.1,0.1,0.1,0.1,0.2l0.1-0.1c0-0.1-0.1-0.1-0.1-0.2c0.2-1.3,0.1-2.9,1.6-3.4c0.5-0.2,0-0.7-0.2-1c-1-1.5-1.9-3-2.6-4.6
		c-3.3-7.2-0.8-14.1,3.2-18c3.2-3.1,7-4.8,11-5.4c4.6-0.7,9.1-0.6,13.4,1.9c2.6,1.5,5.1,3.3,6.8,6.3c2.8,5.1,2.1,10.1-1,15.5
		c-0.1,0.1-0.2,0.3-0.3,0.4c-0.2,0.3-0.5,0.6-0.4,1c0.1,0.3,0.5,0.2,0.8,0.2c0.9,0.1,1.7,0.3,2.6,0.6c2.7,1.1,3.9,4.2,2.6,7.4
		c-0.3,0.7-0.6,1.4-0.9,2.1c1-0.1,1.9-0.2,2.7-0.2c5.2-0.1,8.2,3.5,9,9.9c1,8.6-3.9,15.9-11.2,17.5c-2.7,0.6-5.3,0.6-7.8-1
		c1.4-0.1,2.8,0.2,4.1-0.5c0.1,0,0.3,0,0.4,0c1.7-0.2,3.3-0.6,4.9-1.6c0.2-0.1,0.4-0.2,0.6-0.3c1.4-0.2,2.4-1.3,3.4-2.3
		c3.4-3.2,5.1-8.9,2.6-13.9c-0.3-0.5-0.3-1.1-0.9-1.2C1189.7,78.9,1188.8,78,1187.7,77.5z"/>
	<path class="st39" d="M1135,80.6c0.6,0.7,0.6,1.4,0,2.2c-0.9,1.1-1.5,2.3-2.1,3.7c-1.1,2.6,0.1,6.6,2.4,7.8
		c2.7,1.4,5.4,1.7,8.2,0.8c0.8-0.2,1.3-0.2,2,0.7c2.8,3.9,6.5,5.3,10.7,4.7c3.6-0.5,6.7-2.4,9.6-4.9c0.2-0.2,0.4-0.4,0.6-0.1
		c1.6,1.7,3.5,2.6,5.4,3.6c0.1,0.1,0.2,0.2,0.2,0.2c-1.2,0.7-2.4,1.4-3.6,2.1c-0.9,0.3-1.8,0.7-2.7,1c-2.1,0.9-4.2,0.9-6.3,1.5
		c-3.5,0.2-7,0-10.4-1.5c-2.6-1.1-5.1-2.6-6.4-5.9c-0.2-0.6-0.5-0.5-0.9-0.3c-2.7,0.8-5.3,1.1-8,0c-1.1-0.4-1.9-1.2-2.5-2.4
		C1129.2,89.8,1130.5,82.3,1135,80.6z"/>
	<path class="st33" d="M1159.6,103.9c2.1-0.5,4.3-0.6,6.3-1.5c0.9-0.4,1.8-0.7,2.7-1c-1.1,3.4-1.3,6.9-1,10.5v0.1
		c0,0.1,0,0.1,0.1,0.2s0.1,0.3,0.2,0.4c0.2,2.9,1.2,5.3,3,7.4c-1.7-0.7-2.9,0.3-4.1,1.4c-0.7,0.6-1.5,0.7-2.3,0.1
		c-2.2-1.8-4.6-2.1-7.2-1.2c-0.2,0.1-0.4,0.1-0.6,0.1c-0.4,0.1-1,0.3-1.1-0.2c-0.2-0.5,0.5-0.5,0.7-0.8c1.6-2,2.9-4.2,3.4-7.1
		C1159.9,109.5,1160.3,106.7,1159.6,103.9z"/>
	<path class="st34" d="M1135,79.6c0.2,0.1,0.3,0.2,0.1,0.5C1135.1,79.9,1135,79.7,1135,79.6z"/>
	<path class="st35" d="M1167.6,112.2c0-0.1,0-0.1-0.1-0.2v-0.1C1167.5,112,1167.6,112,1167.6,112.2
		C1167.7,112.1,1167.7,112.2,1167.6,112.2z"/>
	<path class="st40" d="M1174.1,69.5c-0.5,0.9-0.3,1.6,0.4,2.4c0.8,1,1.1,2.3,0.8,3.8c-0.5,2.2-1.4,4.1-2.4,6
		c-0.9,1.8-1.3,3.9-2.1,5.8c-0.2,0.5,0.4,0.8,0.4,1.3l0,0c-0.8-0.4-1.2,0.1-1.5,0.9c-1.1,2.4-2.7,4.1-4.7,5.4
		c-1.9,1.2-3.8,2.1-5.9,2.5c-1.8,0.4-3.6,0.3-5.3,0c-1.6-0.3-3.1-0.8-4.5-2c-0.5-0.4-1-1-1.3-1.7c-0.5-1.1-1.3-1.6-2.3-1.5
		c-1.6,0.1-3.1-0.5-4.4-1.6c-1.4-1.1-2-4.8-1.1-6.9c1.7-3.9,4.4-5.7,8-5.8c1.6,0,3.2-0.4,4.7,0.3c0.5,0.2,0.6-0.3,0.6-0.6
		c0.2-2.4,0.7-4.6,2.1-6.4c0.3-0.4,0.2-1,0.1-1.6l0,0c0.6,0.4,1.1,0.2,1.7,0c1.1-0.5,2.3-0.2,3.5,0.3c0.9,0.4,1.7,1,2.5,1.5
		c1.5,1,2.9,0.6,4.2-0.2c1.7-1,3.4-1.6,5.3-1.1C1173.4,70.4,1173.6,69.5,1174.1,69.5L1174.1,69.5z"/>
	<path class="st40" d="M1162.5,43.8c4,0.6,7.3,2.7,10,6.3c1.5,2,2.2,4.2,2,6.8c-0.2,2.2-0.8,4.4-1.8,6.3c-0.4,0.8-1.1,1-1.9,0.9
		c-0.7-0.1-0.9-0.7-1.3-1.3c-0.5-1-0.4-2.6-1.6-3.1c-0.8-0.4-1.6-0.5-2.5-0.2c-2.7,0.9-4.9,3.2-7.7,3.7c-1.5,0.3-3,0.2-4.4-0.8
		c-1.2-0.9-2.1-1.9-2.7-3.4c-0.9-2.1-0.7-4.4-0.1-6.5c1-3.4,3.2-5.5,5.9-7C1158.5,44.5,1160.4,43.7,1162.5,43.8z"/>
	<path class="st40" d="M1185.3,97.5c-0.2,0.1-0.4,0.2-0.6,0.3c-0.1-0.5-0.3-0.5-0.6-0.2c-0.4,0.4-0.9,0.5-1.5,0.5
		c-0.9-0.1-1.6,0.6-2.5,0.6c-0.4,0-0.3,0.5-0.3,0.8c-0.1,0-0.3,0-0.4,0c-0.6-1.3-1.7-1.4-2.7-1.8c-2.5-0.9-4-3-4.9-5.8
		c-0.3-0.8,0.2-1.9-0.5-2.6l0,0c0.6,0.1,0.8-0.4,0.9-0.9c0.6-2.1,2.2-3.2,4-2.7c0.6,0.1,1.2,0.3,1.9,0.3c1.8,0.1,2.9-0.9,3.6-3.3
		c0.7-2.5,2-4.2,4.2-4.8c0.6-0.2,1.2,0.6,1.7-0.1c1.1,0.5,2,1.4,2.8,2.6c-0.2,1.1,0.5,1.9,0.7,2.9c0.3,2.1-0.3,3.9-0.6,5.9
		c-0.3,2.5-1.3,4.5-2.8,6.2C1186.9,95.9,1186,96.5,1185.3,97.5z"/>
	<path class="st37" d="M1174.1,69.5L1174.1,69.5C1174.2,69.5,1174.2,69.5,1174.1,69.5L1174.1,69.5z"/>
	<path class="st37" d="M1171.4,89.1c-0.1-0.1-0.1-0.2-0.2-0.3l0,0C1171.3,88.9,1171.3,88.9,1171.4,89.1
		C1171.4,89,1171.4,89.1,1171.4,89.1z"/>
	<path class="st37" d="M1155.5,69.8L1155.5,69.8C1155.5,69.7,1155.5,69.7,1155.5,69.8L1155.5,69.8z"/>
	<path class="st40" d="M1185.3,97.5c0.7-1,1.6-1.6,2.3-2.4c1.5-1.7,2.5-3.7,2.8-6.2c0.3-1.9,0.8-3.8,0.6-5.9c-0.1-1-0.8-1.8-0.7-2.9
		c0.6,0.1,0.7,0.7,0.9,1.2c2.5,5,0.8,10.7-2.6,13.9C1187.7,96.2,1186.7,97.3,1185.3,97.5z"/>
	<path class="st36" d="M1179.8,99.4c0-0.3-0.1-0.8,0.3-0.8c0.9,0,1.6-0.7,2.5-0.6c0.5,0.1,1.1,0,1.5-0.5c0.3-0.3,0.5-0.3,0.6,0.2
		C1183.2,98.8,1181.5,99.2,1179.8,99.4z"/>
	<path class="st41" d="M1146,70.5c0,0.1,0.1,0.1,0.1,0.2c0,0,0,0.1-0.1,0.1C1146.1,70.7,1146,70.7,1146,70.5
		C1146,70.6,1146,70.5,1146,70.5z"/>
</g>
<path class="st36" d="M707.6,63.7c-0.1,2.4-0.9,4.6-2.7,6.4c-1.2,1.2-2.5,2.2-4,2.8c-1,0.4-2,0.3-3,0.1c-0.4-0.1-0.7-0.1-1,0.3
	c-1,1.2-2.2,2.1-3.7,2.6c-1.8,0.6-3.6,0.9-5.3-0.2c-0.8-0.5-1.2-0.2-1.7,0.2c-1.6,1.2-3.4,1.9-5.4,2.2c-1.3,0.2-2.6,0.2-3.8-0.4
	s-2-1.6-2-3c0-0.7-0.2-0.9-0.8-0.8c-0.9,0-1.7,0-2.6-0.2c-2.7-0.7-3.7-4.7-2-6.7c0.9-1,1.7-1.9,2.9-2.5c0.7-0.3,0.8-0.6,0.3-1.2
	c-1.9-2.8-1.2-5.5,0.4-8c1.2-1.9,3.1-2.9,5.1-3.9c1.4-0.7,2.8-1,4.3-1c2.3-0.1,4.4,0.5,6.1,2.4c0.7,0.8,1.3,1.8,1.8,2.8
	c0.2,0.4,0.4,0.4,0.7,0.2c1.1-0.6,2.3-0.9,3.4-1.2c1.5-0.4,3-0.2,4.4,0.1c1.2,0.2,2.4,0.6,3.5,1.2c0.9,0.5,1.8,1.1,2.5,1.9
	c1,1.2,1.9,2.5,2.3,4.1C707.5,62.4,707.6,63,707.6,63.7z M686.4,73.4c0.5-0.1,0.9,0,1.4-0.1c1.3-0.3,2.4-0.9,3.5-1.6
	c1.4-0.9,2.8-1.9,3.9-3.2c0.7-0.8,1.1-1.8,1.6-2.7c0.2-0.4,0.4-0.7,0.9-0.7s0.9-0.1,1.3-0.4c1.7-1.1,2.4-2.6,2.4-4.5
	c-0.1-2.4-2.2-3.8-4.6-3.4c-1.1,0.2-2,0.9-2.5,2c-0.1,0.3-0.3,0.7-0.7,0.7c-1,0-1.8,0.4-2.6,0.9c-0.3,0.2-0.5,0.2-0.8,0.1
	c-0.2-0.1-0.4-0.3-0.6-0.3c-0.7,0-0.9-0.5-1-1.1c-0.4-2.3-1.6-4.1-3.9-5c-1.8-0.7-3.5-0.2-5.2,0.3c-1,0.3-1.8,1.1-2.6,1.8
	s-1.3,1.7-1.7,2.7c-0.5,1.4-0.1,2.8,0.5,4.1c0.2,0.5,0.1,0.7-0.2,1c-0.6,0.4-0.9,1-1.2,1.6c-0.6,1.2-0.2,3.3,0.7,4
	c1.5,1.1,3.2,1.5,5.1,1c0.9-0.2,1.2-0.1,1.7,0.6c0.1,0.1,0.2,0.2,0.3,0.4C683.2,73.1,684.8,73.4,686.4,73.4z M705,67
	c0-1-0.5-1.7-1.1-1.8c-1.4-0.2-2.6,0.3-3.4,1.5c-0.5,0.7-1.2,1.1-2,1.3c-0.8,0.2-1.3,0.4-1.6,1.2c-0.3,0.7-0.3,1.2,0.4,1.6
	c0.8,0.5,1.7,0.8,2.7,0.7c0.2,0,0.7-0.4,0.6,0.3c0,0.1,0.2,0.1,0.2,0c0.8-0.8,1.8-1.2,2.7-1.8c0.6-0.4,0.7-1.1,1-1.6
	C704.8,67.9,704.9,67.4,705,67z"/>
<g>
	<path class="st38" d="M301.4,112.3c-2,5.1-7.4,7.9-12,6.2c-1-0.4-2-0.8-2.6-1.7c0-1.3-1.1-2.2-2.3-1.9c-1.4,0.4-2.7,0.1-3.1-1
		c-0.4-1.3-0.9-1.1-1.7-0.5c-0.3,0.2-0.6,0.4-1,0.5c-1.8,0.7-3.7,0.9-5.5,0.3c-2-0.7-3.5-2.2-4.6-4c-0.1-0.2-0.1-0.5-0.4-0.4
		c-0.2,0-0.3,0.2-0.4,0.5c-0.7,1.7-1.5,3.3-3.2,4.4c-2.3,1.4-4.3,3.1-6.9,3.9c-1.4,0.5-3,0.8-4.4,1.4c-1.9,0.8-3.8,1-5.7,0.9
		c-2.8-0.1-5.6-0.6-8.4-1.2c-3.5-0.7-6.4-2.1-9-4.7c-3.7-3.8-2.6-10.9,0.3-13.8c1.8-1.8,3.9-2.8,6.4-3.4c0.4-0.1,1,0.2,1.2-0.4
		c0.1-0.6-0.4-0.8-0.8-1.2c-1.5-1.6-3-3.2-4.1-5.2c-1.8-3.2,0.7-8.1,5.2-7.8c2.2,0.1,4.1,0.7,6.2-0.6c0.8-0.5,1.7-0.8,2.3-1.7
		c1.3-1.8,2.6-3.6,4.6-4.8c0.6-0.3,0.7-0.8,0.9-1.4c0.8-2,1.9-3.9,3.4-5.5c2.5-2.6,5.3-4.7,8.6-6.1c4.7-2.1,9.4-3.7,14.7-2.9
		c4.8,0.8,8.9,2.6,11.8,6.7c2.5,3.6,4,7.5,4.1,11.8c0,1.2,0.3,1.6,1.6,1.6c3.7-0.3,6.4,1.3,8.5,4.2c1,1.5,0.9,4.9-0.3,6.1
		c-0.9,1-1.8,2.1-3,2.8c-0.2,0.1-0.4,0.2-0.3,0.6c0.5,2.4,0.6,4.9,0.8,7.4c0.3,3.5-0.5,6.8-1.1,10.1
		C301,111.9,300.8,112.3,301.4,112.3z M292,81.1c-0.4,0.2-0.7,0.6-1.2-0.1c-0.9-1.2-1.6-2.5-1.5-4.1c0.1-1.5-0.1-2.9-0.3-4.4
		c-0.1-1-0.6-1.8-1.7-1.9s-1.4,0.7-1.7,1.5c-0.3,1.2-0.8,2.3-1,3.6c-0.4,2.7-0.7,5.5,0.5,8.2c0.4,1,1.4,2.1,0.5,3.5
		c0.8-0.5,1.1-0.1,1.5,0.3c1.6,2.2,3.6,3.9,6.2,4.8c2,0.7,4.2,1.1,6-0.1c2.5-1.7,3.7-4,1.4-6.8c-0.7-0.9-1.7-1.3-2.7-1.6
		c-1.5-0.5-3.1-0.9-4.7-1.2C292.3,82.5,291.9,82,292,81.1l0.1-0.1C292.1,81,292.1,81,292,81.1z M240,104.4c0,0.8-0.1,1.5,0,2.3
		c0.1,0.5,0.3,1,0.5,1.5c2,5.5,6.3,7.8,11.8,8.8c1,0.2,2.1-0.2,3,0.1c0.8,0.2,1.1,0.2,1.6-0.4c0.2-0.2,0.6-0.4,0.9-0.5
		c4-1,5.6-4.2,7.1-7.6c0.1-0.3,0-0.4-0.2-0.5c-0.5-0.3-0.4-0.7-0.4-1.2c0-0.7-0.2-1.4-0.4-2.1c-1.5-3.8-1.2-7.5,0.5-11.2
		c0.7-1.5,2-2.5,2.8-4c1.3-2.4,1.3-4-0.5-5.8c-1.3-1.3-2.7-2-4.6-1.4c-1.1,0.3-1.9,1-2.8,1.5c-0.4,0.3-0.7,0.4-1.2,0
		c-0.4-0.4-1-0.6-1.4-1c-1.5-1.2-4.9-1.1-6.7,0c-2.7,1.7-4.1,4.3-4.6,7.4c-0.2,1-0.3,2-0.2,2.9c0.1,0.7,0.1,1.2-0.5,1.7
		C241.7,97.4,239.8,100.4,240,104.4z M271,66.6c-2.5-0.2-4.9,0.7-6.9,2.9c-2.7,2.9-2.2,6.5,1.4,8.1c2.2,0.9,3.8,2.3,4.8,4.4
		c0.4,0.9,1.1,1.4,2.2,1.7c2.8,0.7,4.9-0.6,7-2.1c3.1-2.4,3.9-6.7,1.9-9.8C279,68.4,275.7,66.6,271,66.6z M279.4,111.5
		c1.3,0,2.4-0.4,3.2-1.4c1-1.3,1.8-1.8,3.4-2.3c1.7-0.5,2.6-1.9,3.3-3.4c1.1-2.2,0.1-5.1-2.2-5.6c-1-0.2-1.3-0.7-1.5-1.5
		c-0.4-1.6-1.6-2.6-2.9-3.5c-0.8-0.6-2-0.9-2.8-0.5c-1.5,0.6-3,1.5-3.6,3.2c-0.3,0.9-1.1,1.5-2.1,1.6c-1.4,0.2-2.1,1.1-2.6,2.1
		c-0.4,0.9-1.2,1.8,0,3c0.7,0.7,1,1.8,2.1,2.2c0.9,0.3,1.2,1.1,1.4,1.9c0.4,1.6,1.4,2.7,2.6,3.7
		C278.2,111.4,278.8,111.6,279.4,111.5z M236.7,104.5c0-0.4,0.1-0.7,0-0.8c-0.4-0.7-0.4-1.8-1.5-2c-0.7-0.1-1.3,0-1.8,0.6
		c-2.3,2.8-3,6-1.7,9.3c1.2,2.9,3.4,5,6.5,6c1.1,0.4,2.3-0.6,2.4-1.8c0.1-1.2-0.7-2-1.3-3c-1-1.6-2.8-2.6-3-4.7
		C236.4,106.8,236.4,105.5,236.7,104.5z"/>
	<path class="st33" d="M274.7,141.7c0.5,1.5,1.2,2.9,2.2,4.1c0.7,0.9,0.4,1.2-0.4,1.7c-1.7,1-3.6,1.3-5.5,1.6
		c-3.1,0.5-6.1,0.4-9.1-0.2c-1.1-0.2-2.2-0.8-3.2-1.3c-0.7-0.4-0.8-0.8-0.2-1.3c1.5-1.2,2.1-2.9,2.7-4.6c1.5-4.3,2-8.8,2.2-13.3
		c0-0.6-0.2-1-0.6-1.4c-2-2.4-4.5-4.2-6.9-6.2c1-0.7,2.2-0.7,3.3-1c1.5,0.9,2.7,2.2,4.1,3.4c0.2-1.9-0.1-3.6-0.2-5.2
		c1.7-1.3,3.8-2,5-4c0.2-0.3,0.5-0.3,0.8,0c0.8,0.8,1.7,1.3,2.6,2c-0.3,1.3-0.5,2.6-0.8,3.9c-0.1,0.3-0.2,0.7,0.2,1
		c1,1,3,1.2,4.2,0.5c2.1-1.3,3.5-3.3,4.9-5.2l0,0l0.1-0.1h0.1c1,0.1,1.7,1,2.7,1.1c0,0.1,0,0.1,0,0.2c-1.1,1.3-2.2,2.7-3.4,3.9
		c-1.8,1.9-3.6,3.6-6.5,3.3c-0.3,0-0.6-0.1-0.9-0.1c-1.7-0.4-1.8-0.4-1.7,1.3C270.6,131.5,272.1,136.7,274.7,141.7z"/>
	<path class="st42" d="M282.9,117.1c-1-0.1-1.7-1-2.7-1.1c-0.1-0.2-0.1,0-0.2,0.1l0,0c-2.9,0.9-5.7,0.9-8.5-0.2
		c-0.9-0.7-1.8-1.2-2.6-2c-0.3-0.3-0.6-0.3-0.8,0c-1.2,2-3.3,2.7-5,4c-1.3,0.5-2.8,0.9-3.9,1.8c-1.1,0.3-2.3,0.3-3.3,1
		c-2.1,0.3-4.1,0.7-6.2,1c-5,0.5-9.9,0.2-14.4-2.2c-4.1-2.1-7.5-5-8.6-9.8c-1.2-5.4,1.5-10.1,7.1-12.2c1.9-0.7,1.9-0.7,0.6-2.2
		c-2.1-2.5-3.6-5.3-3.1-8.8c0.4-3.2,3.2-5.5,6.3-4.8c1.9,0.4,3.7,0.2,5.6,0c0.5-0.1,0.8-0.3,1-0.7c1.1-2.2,2.6-3.9,4.8-5
		c0.4-0.2,0.5-0.5,0.6-0.8c1-5,4.3-8.4,8.1-11.4c6-4.7,12.7-6.9,20.3-6c4.9,0.6,8.8,3.3,12.2,6.6c3.7,3.6,5.9,7.8,5.9,13.1
		c0,0.7,0,1.3,1.1,1.1c3.7-0.7,6.9,0.7,8.6,3.4c1.7,2.8,1.2,7-1,9.8c-0.3,0.3-0.5,0.8-0.9,1c-1.6,0.8-1.5,2.1-1.3,3.7
		c0.6,4.2,0.9,8.4,0.1,12.6c-0.2,1.2-0.5,2.4-1.3,3.3c-0.6-0.1-0.4-0.4-0.3-0.8c0.6-3.4,1.4-6.7,1.1-10.1c-0.2-2.5-0.3-4.9-0.8-7.4
		c-0.1-0.4,0.1-0.5,0.3-0.6c1.2-0.7,2.1-1.8,3-2.8c1.2-1.3,1.3-4.7,0.3-6.1c-2.1-2.9-4.8-4.5-8.5-4.2c-1.2,0.1-1.5-0.3-1.6-1.6
		c-0.1-4.4-1.6-8.3-4.1-11.8c-2.9-4.1-7-5.9-11.8-6.7c-5.3-0.8-10,0.7-14.7,2.9c-3.3,1.5-6.1,3.6-8.6,6.1c-1.5,1.6-2.6,3.5-3.4,5.5
		c-0.2,0.5-0.4,1.1-0.9,1.4c-2,1.2-3.2,3-4.6,4.8c-0.6,0.8-1.5,1.2-2.3,1.7c-2.1,1.3-4,0.7-6.2,0.6c-4.4-0.2-7,4.6-5.2,7.8
		c1.1,2,2.6,3.6,4.1,5.2c0.3,0.3,0.9,0.6,0.8,1.2c-0.1,0.6-0.8,0.3-1.2,0.4c-2.4,0.6-4.6,1.5-6.4,3.4c-2.9,2.9-4,10.1-0.3,13.8
		c2.6,2.7,5.5,4,9,4.7c2.8,0.6,5.5,1.2,8.4,1.2c1.9,0,3.8-0.1,5.7-0.9c1.3-0.6,2.9-0.9,4.4-1.4c2.6-0.8,4.6-2.6,6.9-3.9
		c1.7-1.1,2.5-2.7,3.2-4.4c0.1-0.2,0.2-0.4,0.4-0.5c0.3,0,0.3,0.3,0.4,0.4c1.1,1.8,2.6,3.4,4.6,4c1.7,0.6,3.7,0.4,5.5-0.3
		c0.3-0.1,0.7-0.3,1-0.5c0.8-0.6,1.3-0.8,1.7,0.5c0.4,1.1,1.6,1.4,3.1,1c1.2-0.4,2.4,0.6,2.3,1.9c-0.2,0-0.4,0-0.6,0
		c-0.7-0.4-1.2,0-1.6,0.5c-0.5,0.1-0.9,0.1-1.4-0.1C283.1,117.1,283,117.1,282.9,117.1z"/>
	<path class="st36" d="M284.5,117.3c0.4-0.5,0.9-0.9,1.6-0.5C285.7,117.2,285.1,117.4,284.5,117.3z"/>
	<path class="st36" d="M282.9,117.1c0.1,0,0.2,0,0.2,0c-0.1,0.1-0.2,0.1-0.2,0.2C282.9,117.3,282.9,117.2,282.9,117.1z"/>
	<path class="st40" d="M240,104.4c-0.2-4,1.7-6.9,4.7-9.4c0.6-0.5,0.6-1,0.5-1.7c-0.1-0.9,0-2,0.2-2.9c0.6-3.1,1.9-5.7,4.6-7.4
		c1.8-1.1,5.2-1.2,6.7,0c0.5,0.4,1,0.6,1.4,1s0.7,0.3,1.2,0c0.9-0.5,1.7-1.2,2.8-1.5c1.9-0.6,3.4,0.1,4.6,1.4
		c1.7,1.8,1.7,3.3,0.5,5.8c-0.8,1.5-2.1,2.5-2.8,4c-1.7,3.7-1.9,7.4-0.5,11.2c0.3,0.7,0.5,1.3,0.4,2.1c0,0.4,0,0.9,0.4,1.2
		c0.2,0.1,0.3,0.3,0.2,0.5c-1.5,3.3-3.1,6.6-7.1,7.6c-0.3,0.1-0.7,0.3-0.9,0.5c-0.5,0.5-0.9,0.6-1.6,0.4c-0.9-0.3-1.9,0.1-3-0.1
		c-5.4-0.9-9.8-3.3-11.8-8.8c-0.2-0.5-0.5-1-0.5-1.5C239.9,105.9,240,105.1,240,104.4z"/>
	<path class="st40" d="M271,66.6c4.7,0,8,1.8,10.4,5.3c2.1,3.1,1.3,7.4-1.9,9.8c-2,1.5-4.2,2.8-7,2.1c-1-0.3-1.7-0.8-2.2-1.7
		c-1-2.1-2.6-3.5-4.8-4.4c-3.7-1.6-4.1-5.2-1.4-8.1C266.1,67.3,268.5,66.5,271,66.6z"/>
	<path class="st40" d="M279.4,111.5c-0.6,0.1-1.2-0.1-1.7-0.5c-1.2-1-2.2-2.1-2.6-3.7c-0.2-0.9-0.5-1.6-1.4-1.9
		c-1.1-0.4-1.4-1.6-2.1-2.2c-1.2-1.2-0.4-2.1,0-3c0.4-1,1.2-1.9,2.6-2.1c0.9-0.1,1.7-0.7,2.1-1.6c0.6-1.7,2.1-2.6,3.6-3.2
		c0.8-0.3,2.1,0,2.8,0.5c1.2,0.9,2.5,1.9,2.9,3.5c0.2,0.8,0.6,1.3,1.5,1.5c2.4,0.6,3.3,3.4,2.2,5.6c-0.8,1.6-1.6,2.9-3.3,3.4
		c-1.6,0.5-2.4,1-3.4,2.3C281.8,111.2,280.7,111.5,279.4,111.5z"/>
	<path class="st40" d="M292,81.1c-0.1,1,0.3,1.5,1.3,1.7c1.6,0.3,3.2,0.7,4.7,1.2c1,0.3,2,0.8,2.7,1.6c2.3,2.9,1,5.1-1.4,6.8
		c-1.8,1.3-4,0.8-6,0.1c-2.6-0.9-4.6-2.6-6.2-4.8c-0.3-0.5-0.7-0.9-1.5-0.3c1-1.4,0-2.5-0.5-3.5c-1.2-2.7-0.9-5.4-0.5-8.2
		c0.2-1.2,0.6-2.4,1-3.6c0.2-0.8,0.5-1.7,1.7-1.5c1.1,0.1,1.6,0.9,1.7,1.9c0.2,1.4,0.4,2.9,0.3,4.4c-0.1,1.6,0.6,2.8,1.5,4.1
		C291.4,81.7,291.6,81.3,292,81.1L292,81.1z"/>
	<path class="st40" d="M236.7,104.5c-0.3,1-0.3,2.3-0.2,3.6c0.2,2.1,2,3.1,3,4.7c0.6,0.9,1.4,1.7,1.3,3c-0.1,1.3-1.3,2.2-2.4,1.8
		c-3.1-1-5.4-3.1-6.5-6c-1.3-3.3-0.6-6.5,1.7-9.3c0.5-0.6,1.1-0.8,1.8-0.6c1.1,0.2,1,1.3,1.5,2C236.8,103.8,236.7,104.1,236.7,104.5
		z"/>
	<path class="st37" d="M292,81.1l0.1-0.1C292.1,81,292.1,81,292,81.1L292,81.1z"/>
	<path class="st41" d="M280,116.1c0-0.1,0.1-0.2,0.2-0.1C280.2,116,280.1,116,280,116.1L280,116.1z"/>
</g>
<path class="st43" d="M42,71c0,0.4,0.1,0.8,0.2,1.1c0.9,2.1,0.3,3.9-1.2,5.3c-1.1,1-2.4,1.7-4,1.8c-0.4,0-0.9,0.1-1.3,0.2
	c-0.4,0.1-0.5,0.6-0.6,0.9c-0.6,1.2-1.6,1.8-2.9,2c-2.2,0.3-3.8-0.6-5.1-2.4c-0.4-0.5-0.5-1.1-0.7-1.7c-0.3-1-0.6-2.1-0.9-3.1
	c-0.2-0.5-0.5-0.8-1.2-0.7c-1.8,0.4-3.5-0.1-5-1.1c-2-1.3-1.7-3.8,0.1-5.1c0.6-0.4,0.9-0.8,0.6-1.5c-0.1-0.3-0.4-0.8-0.1-1.1
	c0.4-0.5,0.7-1.1,1.3-1.3c2.5-1.1,4.9-0.9,6.9,1.1c0.4,0.4,0.9,0.6,1.5,0.6c1.9-0.1,3.8-0.1,5.7,0.6c2.4,0.9,4.6,1.8,6.2,4
	C41.6,70.7,41.7,71,42,71L42,71z"/>
<path class="st43" d="M26,83.2c0,2-1.1,3.3-2.7,4.2c-1.5,0.9-3.2,1.1-5,1c-1.6-0.1-2.8-0.9-3.9-1.8c-0.3-0.2-0.4-0.6-0.6-0.9
	c-1.2-2-1.3-4-0.2-6c0.9-1.6,2.4-2.5,4.1-3.2c1-0.4,2.1-0.6,3.1-0.6c2,0.1,3.6,0.8,4.3,2.7c0.4,1.2,0.5,2.5,0.9,3.7
	C26.1,82.6,26,82.9,26,83.2z"/>
<path class="st43" d="M48.4,78.9c0.2,2-1.4,3.6-3.2,3.5c-1.9-0.1-2.9-1.1-3-2.9C42,77.7,44,76,45.5,76.1
	C46.9,76.2,48.6,77,48.4,78.9z"/>
<path class="st37" d="M42,71c0-0.1,0-0.2,0.2-0.2l0,0C42.3,71,42.1,71,42,71L42,71z"/>
<path class="st43" d="M926.7,54.5c-1.2-1.6-2.6-2.6-4.5-3c-1-0.2-2-0.6-2.6-1.5c-1.3-1.8-1.4-3.7-0.2-5.5c0.7-1.1,1.2-2.2,2.3-3.1
	c1.2-1,2.5-1.9,4-2.6c2.4-1.1,4.9-2.1,7.5-1.8c2.9,0.4,5.8,0.8,8,3.1c2.5,2.6,1.4,6.3-1.4,8.1c-2.9,1.9-6,3-9.3,3.7
	c-1.7,0.4-3.4,0-5.1,0.2c0.6,1.5,1.8,2.1,3.3,1.9c2.2-0.3,4.3,0.4,6.3,1.2c0.8,0.3,1.2,0.2,1.8-0.3c2-1.9,4.4-2.9,7.3-2.9
	c2.5,0.1,5.3,1.9,6,4.3c0.7,2.5,0.2,4.9-1.6,6.9c-1.6,1.7-3.4,3-5.2,4.3c-0.5,0.4-0.8,0.9-1.1,1.4c-1.5,2.6-2.6,5.6-4.9,7.7
	c-1.7,1.6-3.6,3-5.9,3.8c-1.7,0.6-3.3,0.7-5,0.4c-2.7-0.5-4.5-3-4.8-5.4c-0.2-1.5-0.3-3,0.5-4.4c0.3-0.6,0.1-1-0.3-1.4
	c-1.9-2.1-1.9-4.6-1.4-7.3c0.5-2.6,1.9-4.5,3.7-6.3C924.8,55.3,926,55.3,926.7,54.5z"/>
<path class="st43" d="M942.9,70.2c0.7,0.1,1.1-0.3,1.4-0.8c1.5-2.3,3.8-3.7,6-5.1c1.2-0.7,2.6-0.6,3.9-0.5c3.6,0.3,6.6,3.1,7,6.7
	c0.4,3.4-0.7,6.3-2.9,8.9c-0.7,0.8-1.6,1.6-2.4,2.4c-0.5,0.4-0.4,0.7,0,1.1c0.5,0.6,1.3,0.9,1.5,1.8l0,0c-0.8-0.2-1.2-0.9-1.7-1.4
	c-0.6-0.7-1.2-0.7-1.9-0.3c-2.9,1.7-5.9,1.8-8.9,0.5c-2.6-1.1-4.6-3.9-4.6-6.8c0-2.2,1.1-3.8,2.5-5.2
	C943.3,71,942.9,70.7,942.9,70.2L942.9,70.2z"/>
<path class="st37" d="M942.9,70.2c-0.3,0-0.5-0.1-0.5-0.4c0-0.1,0.1-0.2,0.2-0.2C942.8,69.7,942.9,70,942.9,70.2L942.9,70.2z"/>
<g>
	<path class="st32" d="M1253.6,127c-1.8,0.8-3.7,1.7-5.7,2c-2.9,0.6-5.7,0.4-8-1.8c-0.7-0.6-1.2-1.4-1.4-2.3c-0.2-0.7-0.5-0.7-1-0.5
		c-1.4,0.5-2.9,0.8-4.4,0.5c-2.8-0.6-4.7-2.2-5.5-5s0-5.2,2.1-7.2c0.4-0.4,0.7-0.6,0.3-1.2c-2.6-4.4-2.5-9-0.3-13.5
		c2-4.1,5.1-7,9.7-8.1c0.6-0.2,0.8-0.4,0.6-1c-0.2-0.7-0.2-1.5,0-2.3c0.7-2.8,3.4-3.8,5.6-1.9c0.7,0.6,0.9,0.6,1.5-0.1
		c5.2-6.1,14.2-7.1,20.8-3.7c1.6,0.8,3,2,4.2,3.4c0.6,0.7,1.1,1.1,2.2,0.9c5.7-1,10.9,1.2,13.1,7.1c0.5,1.5,0.7,3.1,0.6,4.6
		c-0.1,1,0.1,1.7,1,2.3c5.9,4.5,8.8,15.1,5.9,22.3c-2.4,5.9-6.6,10-13.1,11.2c-4.6,0.8-8.9,0-12.5-3.3c-0.2-0.2-0.4-0.4-0.7-0.3
		c0-0.7-0.6-0.9-1-1.3c-0.5-0.8-0.7-1.8-1.5-2.5c0.1-1.7-1.6-1.9-2.5-2.7c-0.1-0.5-0.7-0.8-0.9-1.2c-0.3-0.6-0.7-0.6-1.1-0.1
		c-0.4,0.1-0.8,0.2-1.2,0.2c-1.3,0.1-2.1,0.8-2.4,2c-0.7,0-0.9,0.7-1.4,1.1C1255.5,125.5,1254.5,126.2,1253.6,127z M1251.3,126.1
		L1251.3,126.1c0.2-0.1,0.4-0.1,0.6-0.2s0.4-0.1,0.6-0.2c2-1.4,3.9-2.9,5.5-4.8c0.2-0.3,0.5-0.8,0.8-0.8c1.3,0,2.6,0.2,3.9,0
		c0.1,0,0.3,0.2,0.5,0.4c0.7,0.8,1.7,1.4,2.6,1.8c0.5,0.2,0.8,0.5,1,1c0.4,1.8,1.2,3.3,2.3,4.7c1.9,2.3,4.2,3.8,7.3,3.9
		c2.7,0,5.4-0.4,7.9-1.4c1.4-0.5,2.9-1.1,4-2.1c4-3.6,6.5-8,5.9-13.6c-0.3-3-1.5-5.7-3.1-8.3c-1.4-2.2-3.3-3.9-5.1-5.7
		c-0.4-0.4-0.5-0.7-0.3-1.3c1-4.1,0.3-7.8-2.9-10.7c-2-1.9-6.4-2.8-8.7-0.7c-0.7,0.6-1.1,0.2-1.4-0.3c-0.7-1-1.5-1.9-2.2-2.9
		c-2.9-3.6-6.5-5.1-11.1-4.7c-4.6,0.5-8.4,2.5-11.5,5.8c-0.3,0.3-0.6,0.7-1.1,0.4c-1.1-0.7-2.2-0.7-3.3-0.3c-0.6,0.2-1.5,0.4-1.7,1
		c-0.3,0.9-0.6,1.9-0.4,2.9c0.2,0.8-0.2,1.1-1,1.2c-0.9,0.2-1.8,0.5-2.7,0.9c-3.3,1.5-5.3,4.2-6.8,7.3c-1.9,3.8-2,7.5,0.2,11.3
		c0.3,0.5,0.3,1-0.2,1.5c-0.9,0.8-1.4,1.9-1.7,3c-0.6,2.2-0.9,4.3,0.9,6.2c1.7,1.9,3.9,2.1,6.2,1.8c1-0.2,2.1-0.3,2.8-1.2
		c0.2,0,0.4,0,0.6,0c0.2,1.1,0.6,2.1,1.2,3c2.1,3.3,7,3.9,10.3,1.3C1251.2,126.2,1251.2,126.2,1251.3,126.1z"/>
	<path class="st33" d="M1263.5,122.7c0.9,0.8,2.5,1,2.5,2.7c-0.3,1.3-0.6,2.6-1,3.9c-0.1,0.2-0.1,0.5,0.1,0.6s0.4-0.1,0.5-0.2
		c0.7-0.5,1.2-1.2,1.8-1.8c0.4,0.4,1,0.7,1,1.3c-0.8,0.9-1.5,1.9-2.7,2.3c-0.8,0.3-1,0.8-1,1.6c-0.4,5.4,0.9,10.4,3.1,15.3
		c0.2,0.5,0.5,1.1,0.8,1.6c0.4,1.2,1,2.4,1.9,3.3c0.5,0.5,0.4,0.8-0.2,1.2c-1.7,1.1-3.5,1.4-5.4,1.6c-3.3,0.4-6.5,0.4-9.7-0.8
		c-0.1,0-0.1,0-0.2-0.1c-1.7-0.7-1.7-0.9-0.5-2.2c0.8-0.9,1.4-1.9,1.6-3.1c1-1.8,1.2-3.8,1.6-5.8c0.8-4.2,0.7-8.4,0.7-12.6
		c0-1-0.4-1.6-1.3-1.9c-1.4-0.5-2.7-1.3-3.5-2.7c0.9-0.8,1.9-1.6,2.9-2.2c0.2,0.5,0.5,0.8,0.9,1.1c0.4,0.3,0.6,0.2,0.6-0.3
		c0-0.6-0.1-1.2-0.1-1.8c0.3-1.3,1.1-1.9,2.4-2c0.4,0,0.8-0.1,1.2-0.2c0,0.2,0,0.5,0,0.7c0.1,0.6-0.2,1.5,0.5,1.7
		C1262.8,124.1,1263.1,123.2,1263.5,122.7z"/>
	<path class="st0" d="M1251.1,126.3c-3.3,2.6-8.3,2-10.3-1.3c-0.6-0.9-1-1.9-1.2-3c0.9-1.1,1.4-1.1,2.1,0.1c0.3,0.5,0.5,1.2,1,1.5
		c3,2.2,6.6,2.3,9.7,0.3c0.2-0.1,0.4-0.3,0.6-0.1c0.1,0.1,0,0.3-0.1,0.5c-0.1,0.1-0.1,0.1-0.2,0.2c-0.3,0-0.7,0-0.6,0.5
		c0.3,0,0.4-0.2,0.6-0.5c0.1-0.1,0.1-0.1,0.2-0.2c0.7-0.6,1.5-1.3,2.2-1.9c0.2-0.2,0.5-0.5-0.1-0.6l0,0c0.1-0.3,0.2-0.6,0.4-1
		c0.8-1.8,0.9-3.7-0.1-5.5c-0.8-1.4-2-2.4-3.5-3c-0.7-0.3-1.3-0.6-1-1.6c0.2-0.7-0.1-1.3-0.6-1.8c-0.9-0.9-2.1-1.7-3.4-1.9
		c-0.8-0.2-1.3-0.4-1.7-1.1c-0.6-1.2-1.1-2.4-1.7-3.6c-0.8-1.9-2.4-3.2-4.2-3.8c-2.6-0.8-4,0-5.5,2.4c-1.4,2.2-0.9,5.9,1.1,7.8
		c0.4,0.4,0.5,0.7,0,1c-0.8,0.5-1.4,1.2-2.1,1.9c-1.9,2-2.4,4.3-1.5,6.9c0.5,1.6,3.2,3.5,5,3.6c0.9,0,1.8,0,2.7,0
		c-0.7,0.9-1.8,1-2.8,1.2c-2.3,0.3-4.5,0.1-6.2-1.8s-1.5-4-0.9-6.2c0.3-1.1,0.9-2.2,1.7-3c0.5-0.5,0.5-1,0.2-1.5
		c-2.2-3.7-2.1-7.5-0.2-11.3c1.5-3.2,3.5-5.9,6.8-7.3c0.9-0.4,1.7-0.7,2.7-0.9c0.7-0.1,1.1-0.4,1-1.2c-0.2-1,0.1-2,0.4-2.9
		c0.2-0.6,1.1-0.8,1.7-1c1.1-0.4,2.2-0.4,3.3,0.3c0.5,0.3,0.8-0.1,1.1-0.4c3.1-3.3,6.9-5.3,11.5-5.8s8.2,1.1,11.1,4.7
		c0.8,0.9,1.6,1.9,2.2,2.9c0.4,0.5,0.8,0.9,1.4,0.3c2.4-2.1,6.7-1.2,8.7,0.7c3.2,3,3.9,6.6,2.9,10.7c-0.1,0.5-0.1,0.9,0.3,1.3
		c1.8,1.8,3.8,3.5,5.1,5.7c1.6,2.6,2.8,5.3,3.1,8.3c0.6,5.6-1.8,10-5.9,13.6c-1.1,1-2.6,1.6-4,2.1c-2.5,1-5.2,1.4-7.9,1.4
		c-3.1,0-5.4-1.5-7.3-3.9c-1.1-1.4-1.9-3-2.3-4.7c-0.1-0.5-0.5-0.8-1-1c-1-0.5-1.9-1-2.6-1.8c-0.1-0.2-0.3-0.4-0.5-0.4
		c-1.3,0.2-2.6,0-3.9,0c-0.3,0-0.6,0.5-0.8,0.8c-1.6,1.9-3.5,3.4-5.5,4.8c-0.2,0.1-0.4,0.1-0.6,0.2c0-0.2,0-0.4-0.3-0.3
		s-0.4,0.3-0.4,0.5l0,0C1251.2,126.2,1251.2,126.2,1251.1,126.3z M1260.6,86.5c-1.2,0-2.1,0.1-3.1,0.4c-1.4,0.3-2.6,0.8-3.8,1.6
		c-2.4,1.5-3.3,4-3.8,6.6c-0.2,1.2-0.7,1.8-1.9,2c-0.2,0-0.5,0-0.3,0.3c0.2,0.5-0.1,0.9-0.2,1.3c-0.6,1.7-0.3,3.5,0.7,4.8
		c1,1.4,2.3,2.8,4,3.4c0.6,0.2,0.7,0.5,0.7,1c0,1.1-0.1,2,0.6,3.1c1.3,2.3,4.5,3.8,7.2,3.3c0.7-0.1,1.7-0.9,2-0.6
		c0.7,0.9,1.1-0.2,1.6,0c0.4,0.1,0.3-0.1,0.4-0.4c0-0.4,0.4-0.7,0.7-0.4c0.7,0.5,1.5,0.6,2.2,1c2.7,1.3,5.5,1.7,8.3,0.5
		c3.4-1.4,3.9-5.2,1.8-7.9c-0.6-0.7-0.8-1.3-0.3-2c0.9-1.4,0-2.9,0.4-4.4c0-0.1-0.1-0.2-0.2-0.3c-0.5-0.7-0.9-1.4-1.5-2
		c-1.3-1.4-2.7-2.7-4.9-2.6c-0.7,0-1-0.2-1.1-1C1268.9,90,1265.5,86.2,1260.6,86.5z M1290.2,116.3c-0.2-3.3-0.5-6.6-3.5-8.8
		c-1.6-1.2-3.6-0.7-4.2,1.2c-0.4,1.5-0.7,3-1.2,4.4c-0.6,1.8-1.4,3.6-3.2,4.5c-1,0.4-2,0.8-2.9,1.3c-0.6,0.3-1,0.7-1.2,1.5
		c-0.1,0.7-0.4,1.8-0.7,1.8c-1.2,0.3-0.2,0.6-0.1,0.9s0.4,0.5,0.4,0.8c0.5,3,3.4,3.2,5.3,4.6c0,0,0.1,0,0.2,0
		c1.6-0.5,3.2-0.4,4.8-1.2c2-1.1,3.6-2.5,4.8-4.4C1290,120.8,1290.3,118.6,1290.2,116.3z"/>
	<path class="st43" d="M1253,124.4c0-0.2,0.1-0.4,0.1-0.5c-0.2-0.2-0.4,0-0.6,0.1c-3.1,2-6.7,1.9-9.7-0.3c-0.5-0.4-0.7-1-1-1.5
		c-0.7-1.2-1.1-1.2-2.1-0.1c-0.2,0-0.4,0-0.6,0c-0.9,0-1.8,0-2.7,0c-1.8,0-4.5-1.9-5-3.6c-0.8-2.6-0.4-4.9,1.5-6.9
		c0.7-0.7,1.3-1.4,2.1-1.9c0.5-0.3,0.5-0.6,0-1c-1.9-1.9-2.5-5.6-1.1-7.8c1.5-2.4,2.9-3.2,5.5-2.4c1.8,0.6,3.4,1.9,4.2,3.8
		c0.6,1.2,1.1,2.4,1.7,3.6c0.3,0.7,0.9,1,1.7,1.1c1.3,0.3,2.4,1,3.4,1.9c0.5,0.5,0.8,1.1,0.6,1.8c-0.3,1,0.3,1.3,1,1.6
		c1.5,0.7,2.7,1.6,3.5,3c1,1.8,0.9,3.6,0.1,5.5c-0.1,0.3-0.3,0.6-0.4,1v0.1v-0.1c0.6,0.1,0.4,0.4,0.1,0.6
		C1254.5,123.1,1253.7,123.8,1253,124.4L1253,124.4z"/>
	<path class="st37" d="M1251.3,126.1c0-0.3,0.1-0.5,0.4-0.5c0.2,0,0.2,0.2,0.3,0.3C1251.7,125.9,1251.5,126,1251.3,126.1z"/>
	<path class="st37" d="M1251.1,126.3c0.1-0.1,0.1-0.2,0.2-0.3C1251.2,126.2,1251.2,126.2,1251.1,126.3z"/>
	<path class="st43" d="M1260.6,86.5c5-0.3,8.4,3.5,9.3,7.8c0.2,0.8,0.4,1,1.1,1c2.1-0.1,3.6,1.1,4.9,2.6c0.6,0.6,1,1.3,1.5,2
		c0.1,0.1,0.2,0.3,0.2,0.3c-0.4,1.4,0.6,3-0.4,4.4c-0.5,0.7-0.3,1.3,0.3,2c2,2.6,1.6,6.5-1.8,7.9c-2.9,1.2-5.6,0.8-8.3-0.5
		c-0.7-0.3-1.5-0.5-2.2-1c-0.4-0.3-0.7,0-0.7,0.4c0,0.3,0,0.5-0.4,0.4c-0.5-0.1-0.9,1-1.6,0c-0.2-0.3-1.3,0.4-2,0.6
		c-2.7,0.5-5.8-1.1-7.2-3.3c-0.6-1-0.5-2-0.6-3.1c0-0.5-0.1-0.8-0.7-1c-1.7-0.7-2.9-2.1-4-3.4c-1-1.3-1.3-3.1-0.7-4.8
		c0.1-0.4,0.4-0.8,0.2-1.3c-0.1-0.3,0.1-0.3,0.3-0.3c1.2-0.2,1.7-0.8,1.9-2c0.5-2.7,1.4-5.1,3.8-6.6c1.2-0.7,2.4-1.3,3.8-1.6
		C1258.4,86.7,1259.4,86.6,1260.6,86.5z"/>
	<path class="st43" d="M1290.2,116.3c0.1,2.3-0.3,4.5-1.5,6.5c-1.2,1.9-2.8,3.3-4.8,4.4c-1.5,0.8-3.2,0.7-4.8,1.2
		c-0.1,0-0.2,0-0.2,0c-1.9-1.4-4.8-1.6-5.3-4.6c0-0.3-0.3-0.5-0.4-0.8s-1.1-0.6,0.1-0.9c0.4-0.1,0.6-1.2,0.7-1.8
		c0.1-0.8,0.6-1.2,1.2-1.5c1-0.5,2-0.9,2.9-1.3c1.9-0.8,2.7-2.6,3.2-4.5c0.5-1.4,0.8-2.9,1.2-4.4c0.6-1.9,2.6-2.4,4.2-1.2
		C1289.7,109.7,1290,113,1290.2,116.3z"/>
	<path class="st37" d="M1252.8,124.6c-0.1,0.2-0.2,0.5-0.6,0.5C1252.1,124.5,1252.5,124.6,1252.8,124.6L1252.8,124.6z"/>
	<path class="st37" d="M1253,124.4c-0.1,0.1-0.1,0.1-0.2,0.2l0,0C1252.8,124.5,1252.9,124.4,1253,124.4L1253,124.4z"/>
	<path class="st36" d="M1255.1,121.9C1255.1,121.9,1255,121.9,1255.1,121.9C1255,121.9,1255.1,121.9,1255.1,121.9L1255.1,121.9z"/>
</g>
<path class="st14" d="M975.8,150.9c0,0-16.1-7.6-57.4-7.8c-33.9-0.1-57.4,7.8-57.4,7.8v-23.3c0,0,12.4-7.8,57.4-7.8
	c51.9,0,57.4,7.8,57.4,7.8V150.9z"/>
<path class="st37" d="M686.4,73.4c-1.6,0-3.2-0.3-4.4-1.7c-0.1-0.1-0.2-0.2-0.3-0.4c-0.5-0.7-0.8-0.9-1.7-0.6
	c-1.9,0.5-3.5,0.1-5.1-1c-0.9-0.7-1.3-2.8-0.7-4c0.3-0.6,0.7-1.2,1.2-1.6c0.3-0.3,0.4-0.5,0.2-1c-0.7-1.3-1-2.7-0.5-4.1
	c0.4-1,0.9-2,1.7-2.7s1.5-1.4,2.6-1.8c1.7-0.6,3.4-1.1,5.2-0.3c2.3,0.9,3.5,2.7,3.9,5c0.1,0.6,0.3,1.1,1,1.1c0.2,0,0.4,0.2,0.6,0.3
	c0.3,0.1,0.5,0.1,0.8-0.1c0.8-0.5,1.6-0.9,2.6-0.9c0.5,0,0.6-0.4,0.7-0.7c0.5-1.1,1.4-1.8,2.5-2c2.4-0.5,4.5,1,4.6,3.4
	c0.1,1.9-0.7,3.5-2.4,4.5c-0.4,0.3-0.8,0.5-1.3,0.4c-0.5,0-0.7,0.3-0.9,0.7c-0.5,0.9-0.9,1.9-1.6,2.7c-1.1,1.3-2.4,2.3-3.9,3.2
	c-1.1,0.7-2.2,1.3-3.5,1.6C687.3,73.4,686.9,73.4,686.4,73.4z"/>
<path class="st37" d="M705,67c-0.1,0.4-0.1,0.9-0.5,1.4s-0.5,1.2-1,1.6c-0.9,0.6-2,1-2.7,1.8c-0.1,0.1-0.2,0.1-0.2,0
	c0.1-0.7-0.3-0.3-0.6-0.3c-1,0.1-1.9-0.2-2.7-0.7c-0.7-0.4-0.7-0.9-0.4-1.6c0.3-0.8,0.9-1,1.6-1.2c0.8-0.2,1.5-0.6,2-1.3
	c0.8-1.2,2-1.7,3.4-1.5C704.5,65.3,705,65.9,705,67z"/>
<g>
	<path class="st44" d="M384.5,18.5h-7.2v20.6h-5.7V18.5h-7.2v-4.6h20v4.6H384.5z"/>
	<path class="st44" d="M403.5,31.6h-11.7c0.2,2.6,1.8,3.9,4.9,3.9c2,0,3.7-0.5,5.2-1.4v4c-1.7,0.9-3.8,1.3-6.5,1.3
		c-2.9,0-5.2-0.8-6.8-2.4s-2.4-3.9-2.4-6.7c0-3,0.9-5.4,2.6-7.1s3.9-2.6,6.4-2.6c2.6,0,4.7,0.8,6.1,2.3s2.2,3.7,2.2,6.3L403.5,31.6
		L403.5,31.6z M398.4,28.2c0-2.6-1-3.9-3.1-3.9c-0.9,0-1.7,0.4-2.3,1.1s-1,1.7-1.2,2.8H398.4z"/>
	<path class="st44" d="M420.4,38.4c-1.3,0.7-3.1,1.1-5.4,1.1c-2.8,0-5-0.8-6.7-2.5s-2.6-3.8-2.6-6.5c0-3.1,0.9-5.5,2.8-7.2
		s4.3-2.6,7.4-2.6c2.1,0,3.7,0.3,4.6,0.8v4.7c-1.2-0.9-2.5-1.3-3.9-1.3c-1.6,0-2.9,0.5-3.8,1.4s-1.4,2.2-1.4,3.9
		c0,1.6,0.4,2.8,1.3,3.8s2.1,1.4,3.7,1.4c1.4,0,2.7-0.4,4.1-1.3v4.3H420.4z"/>
	<path class="st44" d="M441.4,39.1h-5.5V28.8c0-2.6-1-4-2.9-4c-1,0-1.8,0.4-2.4,1.1s-0.9,1.7-0.9,2.8V39h-5.6V12.4h5.6v11.3h0.1
		c1.4-2.1,3.2-3.1,5.5-3.1c4.1,0,6.1,2.5,6.1,7.4L441.4,39.1L441.4,39.1z"/>
	<path class="st44" d="M463.1,39.1h-5.5v-10c0-2.8-1-4.2-3-4.2c-1,0-1.8,0.4-2.4,1.1s-0.9,1.7-0.9,2.8v10.3h-5.6v-18h5.6v2.8h0.1
		c1.3-2.2,3.3-3.3,5.8-3.3c4,0,6,2.5,6,7.4v11.1H463.1z"/>
	<path class="st44" d="M470.4,18.2c-0.9,0-1.7-0.3-2.3-0.8s-0.9-1.2-0.9-2c0-0.8,0.3-1.5,0.9-2s1.4-0.8,2.3-0.8s1.7,0.3,2.3,0.8
		s0.9,1.2,0.9,2c0,0.8-0.3,1.5-0.9,2.1S471.3,18.2,470.4,18.2z M473.1,39.1h-5.6v-18h5.6V39.1z"/>
	<path class="st44" d="M491.4,38.4c-1.3,0.7-3.1,1.1-5.4,1.1c-2.8,0-5-0.8-6.7-2.5s-2.6-3.8-2.6-6.5c0-3.1,0.9-5.5,2.8-7.2
		s4.3-2.6,7.4-2.6c2.1,0,3.7,0.3,4.6,0.8v4.7c-1.2-0.9-2.5-1.3-3.9-1.3c-1.6,0-2.9,0.5-3.8,1.4s-1.4,2.2-1.4,3.9
		c0,1.6,0.4,2.8,1.3,3.8s2.1,1.4,3.7,1.4c1.4,0,2.7-0.4,4.1-1.3v4.3H491.4z"/>
	<path class="st44" d="M510,39.1h-5.3v-2.6h-0.1c-1.2,2-3,3-5.4,3c-1.7,0-3.1-0.5-4.1-1.5s-1.5-2.3-1.5-4c0-3.5,2.1-5.5,6.2-6
		l4.9-0.7c0-2-1.1-3-3.2-3s-4.2,0.6-6.1,1.9V22c0.8-0.4,1.8-0.8,3.2-1.1s2.6-0.5,3.7-0.5c5.1,0,7.7,2.6,7.7,7.7L510,39.1L510,39.1z
		 M504.8,31.7v-1.2l-3.3,0.4c-1.8,0.2-2.7,1-2.7,2.4c0,0.6,0.2,1.2,0.7,1.6s1,0.6,1.8,0.6c1,0,1.9-0.4,2.5-1.1
		S504.8,32.8,504.8,31.7z"/>
	<path class="st44" d="M520,39.1h-5.6V12.4h5.6V39.1z"/>
	<path class="st44" d="M553.2,38.2c-1.8,0.9-4.2,1.3-7.2,1.3c-3.9,0-6.9-1.1-9.1-3.4s-3.3-5.3-3.3-9.1c0-4,1.2-7.3,3.7-9.8
		s5.7-3.8,9.7-3.8c2.5,0,4.5,0.3,6.2,0.9v5.5c-1.7-1-3.6-1.5-5.8-1.5c-2.4,0-4.3,0.7-5.7,2.2s-2.2,3.5-2.2,6c0,2.4,0.7,4.4,2.1,5.8
		c1.4,1.4,3.2,2.2,5.5,2.2c2.2,0,4.2-0.5,6.1-1.6V38.2z"/>
	<path class="st44" d="M565.6,39.5c-3,0-5.4-0.8-7.1-2.5s-2.6-4-2.6-6.8c0-3,0.9-5.3,2.7-7s4.2-2.5,7.2-2.5s5.3,0.8,7,2.5
		s2.5,3.9,2.5,6.7c0,3-0.9,5.3-2.6,7.1S568.7,39.5,565.6,39.5z M565.8,24.9c-1.3,0-2.3,0.5-3.1,1.4s-1.1,2.2-1.1,3.8
		c0,3.5,1.4,5.2,4.2,5.2c2.7,0,4-1.8,4-5.3C569.8,26.6,568.5,24.9,565.8,24.9z"/>
	<path class="st44" d="M607.6,39.1h-5.5V28.8c0-2.6-1-3.9-2.9-3.9c-0.9,0-1.7,0.4-2.2,1.2s-0.9,1.8-0.9,2.9v10.1h-5.6V28.7
		c0-2.5-0.9-3.8-2.8-3.8c-0.9,0-1.7,0.4-2.3,1.1s-0.9,1.8-0.9,3.1v10h-5.6v-18h5.6v2.8h0.1c0.6-1,1.4-1.7,2.4-2.3s2.2-0.9,3.4-0.9
		c2.5,0,4.3,1.1,5.2,3.4c1.4-2.2,3.4-3.4,6-3.4c3.9,0,5.9,2.4,5.9,7.2L607.6,39.1L607.6,39.1z"/>
	<path class="st44" d="M640.6,39.1h-5.5V28.8c0-2.6-1-3.9-2.9-3.9c-0.9,0-1.7,0.4-2.2,1.2s-0.9,1.8-0.9,2.9v10.1h-5.6V28.7
		c0-2.5-0.9-3.8-2.8-3.8c-0.9,0-1.7,0.4-2.3,1.1s-0.9,1.8-0.9,3.1v10H612v-18h5.6v2.8h0.1c0.6-1,1.4-1.7,2.4-2.3s2.2-0.9,3.4-0.9
		c2.5,0,4.3,1.1,5.2,3.4c1.4-2.2,3.4-3.4,6-3.4c3.9,0,5.9,2.4,5.9,7.2L640.6,39.1L640.6,39.1z"/>
	<path class="st44" d="M662.1,39.1h-5.5v-2.7h-0.1c-1.4,2.1-3.2,3.2-5.5,3.2c-4.2,0-6.3-2.5-6.3-7.6V21.1h5.5v10.4
		c0,2.5,1,3.8,3,3.8c1,0,1.8-0.3,2.4-1s0.9-1.6,0.9-2.8V21.1h5.5L662.1,39.1L662.1,39.1z"/>
	<path class="st44" d="M684.2,39.1h-5.5v-10c0-2.8-1-4.2-3-4.2c-1,0-1.8,0.4-2.4,1.1s-0.9,1.7-0.9,2.8v10.3h-5.6v-18h5.6v2.8h0.1
		c1.3-2.2,3.3-3.3,5.8-3.3c4,0,6,2.5,6,7.4L684.2,39.1L684.2,39.1z"/>
	<path class="st44" d="M691.4,18.2c-0.9,0-1.7-0.3-2.3-0.8s-0.9-1.2-0.9-2c0-0.8,0.3-1.5,0.9-2s1.4-0.8,2.3-0.8
		c0.9,0,1.7,0.3,2.3,0.8s0.9,1.2,0.9,2c0,0.8-0.3,1.5-0.9,2.1S692.3,18.2,691.4,18.2z M694.1,39.1h-5.6v-18h5.6V39.1z"/>
	<path class="st44" d="M712.4,38.4c-1.3,0.7-3.1,1.1-5.4,1.1c-2.8,0-5-0.8-6.7-2.5s-2.6-3.8-2.6-6.5c0-3.1,0.9-5.5,2.8-7.2
		s4.3-2.6,7.4-2.6c2.1,0,3.7,0.3,4.6,0.8v4.7c-1.2-0.9-2.5-1.3-3.9-1.3c-1.6,0-2.9,0.5-3.8,1.4s-1.4,2.2-1.4,3.9
		c0,1.6,0.4,2.8,1.3,3.8s2.1,1.4,3.7,1.4c1.4,0,2.7-0.4,4.1-1.3L712.4,38.4L712.4,38.4z"/>
	<path class="st44" d="M731.1,39.1h-5.3v-2.6h-0.1c-1.2,2-3,3-5.4,3c-1.7,0-3.1-0.5-4.1-1.5s-1.5-2.3-1.5-4c0-3.5,2.1-5.5,6.2-6
		l4.9-0.7c0-2-1.1-3-3.2-3c-2.1,0-4.2,0.6-6.1,1.9V22c0.8-0.4,1.8-0.8,3.2-1.1s2.6-0.5,3.7-0.5c5.1,0,7.7,2.6,7.7,7.7L731.1,39.1
		L731.1,39.1z M725.8,31.7v-1.2l-3.3,0.4c-1.8,0.2-2.7,1-2.7,2.4c0,0.6,0.2,1.2,0.7,1.6s1,0.6,1.8,0.6c1,0,1.9-0.4,2.5-1.1
		S725.8,32.8,725.8,31.7z"/>
	<path class="st44" d="M746.3,38.8c-0.8,0.4-2.1,0.7-3.7,0.7c-3.9,0-5.9-2-5.9-6.1v-8.2h-2.9v-4.1h2.9v-3.9l5.5-1.6v5.5h4v4.1h-4
		v7.3c0,1.9,0.7,2.8,2.2,2.8c0.6,0,1.2-0.2,1.8-0.5v4H746.3z"/>
	<path class="st44" d="M752.3,18.2c-0.9,0-1.7-0.3-2.3-0.8s-0.9-1.2-0.9-2c0-0.8,0.3-1.5,0.9-2s1.4-0.8,2.3-0.8
		c0.9,0,1.7,0.3,2.3,0.8s0.9,1.2,0.9,2c0,0.8-0.3,1.5-0.9,2.1S753.2,18.2,752.3,18.2z M755,39.1h-5.6v-18h5.6V39.1z"/>
	<path class="st44" d="M768.3,39.5c-3,0-5.4-0.8-7.1-2.5s-2.6-4-2.6-6.8c0-3,0.9-5.3,2.7-7s4.2-2.5,7.2-2.5s5.3,0.8,7,2.5
		s2.5,3.9,2.5,6.7c0,3-0.9,5.3-2.6,7.1S771.3,39.5,768.3,39.5z M768.4,24.9c-1.3,0-2.3,0.5-3.1,1.4s-1.1,2.2-1.1,3.8
		c0,3.5,1.4,5.2,4.2,5.2c2.7,0,4-1.8,4-5.3C772.4,26.6,771.1,24.9,768.4,24.9z"/>
	<path class="st44" d="M799.1,39.1h-5.5v-10c0-2.8-1-4.2-3-4.2c-1,0-1.8,0.4-2.4,1.1s-0.9,1.7-0.9,2.8v10.3h-5.6v-18h5.6v2.8h0.1
		c1.3-2.2,3.3-3.3,5.8-3.3c4,0,6,2.5,6,7.4L799.1,39.1L799.1,39.1z"/>
	<path class="st44" d="M381.2,82.3H376v-2.6h-0.1c-1.2,2-3,3-5.4,3c-1.7,0-3.1-0.5-4.1-1.5s-1.5-2.3-1.5-4c0-3.5,2.1-5.5,6.2-6
		l4.9-0.7c0-2-1.1-3-3.2-3s-4.2,0.6-6.1,1.9v-4.2c0.8-0.4,1.8-0.8,3.2-1.1c1.3-0.3,2.6-0.5,3.7-0.5c5.1,0,7.7,2.6,7.7,7.7v11H381.2z
		 M376,74.9v-1.2l-3.3,0.4c-1.8,0.2-2.7,1-2.7,2.4c0,0.6,0.2,1.2,0.7,1.6s1,0.6,1.8,0.6c1,0,1.9-0.4,2.5-1.1S376,76,376,74.9z"/>
	<path class="st44" d="M396.5,82c-0.8,0.4-2.1,0.7-3.7,0.7c-3.9,0-5.9-2-5.9-6.1v-8.2H384v-4.1h2.9v-3.9l5.5-1.6v5.5h4v4.1h-4v7.3
		c0,1.9,0.7,2.8,2.2,2.8c0.6,0,1.2-0.2,1.8-0.5v4H396.5z"/>
	<path class="st44" d="M417.9,57v4.4h-2.1v16.4h2.1v4.4H408v-4.4h2.1V61.4H408V57H417.9z"/>
	<path class="st44" d="M429.5,82.7c-3,0-5.4-0.8-7.1-2.5s-2.6-4-2.6-6.8c0-3,0.9-5.3,2.7-7s4.2-2.5,7.2-2.5s5.3,0.8,7,2.5
		s2.5,3.9,2.5,6.7c0,3-0.9,5.3-2.6,7.1C435,81.8,432.6,82.7,429.5,82.7z M429.7,68.1c-1.3,0-2.3,0.5-3.1,1.4s-1.1,2.2-1.1,3.8
		c0,3.5,1.4,5.2,4.2,5.2c2.7,0,4-1.8,4-5.3C433.7,69.8,432.4,68.1,429.7,68.1z"/>
	<path class="st44" d="M469,64.3l-5.2,18H458l-2.7-10.5c-0.2-0.7-0.3-1.5-0.3-2.3l0,0c-0.1,0.9-0.2,1.7-0.4,2.2l-2.8,10.6H446
		l-5.1-18h5.7L449,76c0.1,0.6,0.2,1.2,0.3,2h0.1c0.1-0.8,0.2-1.5,0.3-2.1l3.1-11.7h5.3l2.8,11.7c0.1,0.3,0.2,1,0.2,2h0.1
		c0.1-0.7,0.2-1.4,0.3-2l2.3-11.7L469,64.3L469,64.3z"/>
	<path class="st44" d="M486.6,82.3h-5.3v-2.6h-0.1c-1.2,2-3,3-5.4,3c-1.7,0-3.1-0.5-4.1-1.5s-1.5-2.3-1.5-4c0-3.5,2.1-5.5,6.2-6
		l4.9-0.7c0-2-1.1-3-3.2-3s-4.2,0.6-6.1,1.9v-4.2c0.8-0.4,1.8-0.8,3.2-1.1c1.3-0.3,2.6-0.5,3.7-0.5c5.1,0,7.7,2.6,7.7,7.7
		L486.6,82.3L486.6,82.3z M481.4,74.9v-1.2l-3.3,0.4c-1.8,0.2-2.7,1-2.7,2.4c0,0.6,0.2,1.2,0.7,1.6s1,0.6,1.8,0.6
		c1,0,1.9-0.4,2.5-1.1S481.4,76,481.4,74.9z"/>
	<path class="st44" d="M500.4,81.3v-5.6c1,0.9,2.1,1.5,3.3,1.9s2.4,0.6,3.6,0.6c0.7,0,1.3-0.1,1.9-0.2s1-0.3,1.3-0.5
		s0.6-0.5,0.8-0.8s0.3-0.6,0.3-1c0-0.5-0.1-0.9-0.4-1.3s-0.7-0.7-1.2-1.1s-1.1-0.6-1.7-0.9s-1.4-0.6-2.2-0.9c-2-0.8-3.4-1.8-4.4-3
		s-1.5-2.6-1.5-4.3c0-1.3,0.3-2.4,0.8-3.4s1.2-1.7,2.2-2.3s2-1.1,3.2-1.3s2.5-0.4,3.8-0.4s2.5,0.1,3.5,0.2s1.9,0.4,2.8,0.7V63
		c-0.4-0.3-0.9-0.6-1.4-0.8s-1-0.4-1.5-0.6s-1.1-0.3-1.6-0.3s-1-0.1-1.5-0.1c-0.6,0-1.2,0.1-1.8,0.2s-1,0.3-1.3,0.5
		s-0.6,0.5-0.8,0.8s-0.3,0.7-0.3,1c0,0.4,0.1,0.8,0.3,1.1s0.5,0.7,0.9,0.9s0.9,0.6,1.5,0.9s1.2,0.6,2,0.9c1,0.4,1.9,0.9,2.7,1.3
		s1.5,1,2.1,1.6s1,1.3,1.3,2s0.5,1.7,0.5,2.7c0,1.4-0.3,2.6-0.8,3.5s-1.3,1.7-2.2,2.3c-0.9,0.6-2,1-3.2,1.3s-2.5,0.4-3.8,0.4
		c-1.4,0-2.7-0.1-3.9-0.4S501.3,81.8,500.4,81.3z"/>
	<path class="st44" d="M532,82c-0.8,0.4-2.1,0.7-3.7,0.7c-3.9,0-5.9-2-5.9-6.1v-8.2h-2.9v-4.1h2.9v-3.9l5.5-1.6v5.5h4v4.1h-4v7.3
		c0,1.9,0.7,2.8,2.2,2.8c0.6,0,1.2-0.2,1.8-0.5v4H532z"/>
	<path class="st44" d="M550.1,82.3h-5.3v-2.6h-0.1c-1.2,2-3,3-5.4,3c-1.7,0-3.1-0.5-4.1-1.5s-1.5-2.3-1.5-4c0-3.5,2.1-5.5,6.2-6
		l4.9-0.7c0-2-1.1-3-3.2-3c-2.1,0-4.2,0.6-6.1,1.9v-4.2c0.8-0.4,1.8-0.8,3.2-1.1c1.3-0.3,2.6-0.5,3.7-0.5c5.1,0,7.7,2.6,7.7,7.7
		L550.1,82.3L550.1,82.3z M544.9,74.9v-1.2l-3.3,0.4c-1.8,0.2-2.7,1-2.7,2.4c0,0.6,0.2,1.2,0.7,1.6s1,0.6,1.8,0.6
		c1,0,1.9-0.4,2.5-1.1S544.9,76,544.9,74.9z"/>
	<path class="st44" d="M565.4,82c-0.8,0.4-2.1,0.7-3.7,0.7c-3.9,0-5.9-2-5.9-6.1v-8.2h-2.9v-4.1h2.9v-3.9l5.5-1.6v5.5h4v4.1h-4v7.3
		c0,1.9,0.7,2.8,2.2,2.8c0.6,0,1.2-0.2,1.8-0.5v4H565.4z"/>
	<path class="st44" d="M584.7,74.8H573c0.2,2.6,1.8,3.9,4.9,3.9c2,0,3.7-0.5,5.2-1.4v4c-1.7,0.9-3.8,1.3-6.5,1.3
		c-2.9,0-5.2-0.8-6.8-2.4s-2.4-3.9-2.4-6.7c0-3,0.9-5.4,2.6-7.1s3.9-2.6,6.4-2.6c2.6,0,4.7,0.8,6.1,2.3c1.4,1.6,2.2,3.7,2.2,6.3
		V74.8z M579.6,71.4c0-2.6-1-3.9-3.1-3.9c-0.9,0-1.7,0.4-2.3,1.1s-1,1.7-1.2,2.8H579.6z"/>
</g>
<polygon class="st14" points="859.3,131.2 860.9,127.6 865,130.4 "/>
<path class="st15" d="M974.2,154.5c0,0-16.1-7.6-57.4-7.8c-33.9-0.1-57.4,7.8-57.4,7.8v-23.3c0,0,12.4-7.8,57.4-7.8
	c51.9,0,57.4,7.8,57.4,7.8V154.5z"/>
<polygon class="st7" points="974.2,131.2 975.8,127.6 975.8,150.9 974.2,154.5 "/>
<g>
	<g class="st45">
		<path class="st46" d="M869.5,136.4l2.8-0.6v0.2l-0.6,0.1l1.7,8.2l0.6-0.1v0.2l-2.8,0.6v-0.2l0.6-0.1l-1.7-8.2l-0.6,0.1V136.4z"/>
		<path class="st46" d="M874.2,141.4c-0.2-0.8-0.1-1.6,0.3-2.3c0.4-0.7,0.9-1.1,1.6-1.2c0.7-0.1,1.3,0,1.9,0.5
			c0.6,0.5,1,1.1,1.1,1.9c0.2,0.9,0.1,1.7-0.2,2.4s-0.9,1.1-1.6,1.2c-0.7,0.1-1.3,0-1.9-0.5C874.8,143,874.4,142.3,874.2,141.4z
			 M875.6,139.3l0.7,3.6c0.1,0.6,0.4,0.9,0.8,0.8c0.4-0.1,0.6-0.4,0.5-1.1l-0.7-3.6c-0.1-0.4-0.2-0.7-0.3-0.8s-0.3-0.2-0.6-0.1
			c-0.2,0-0.4,0.2-0.4,0.3C875.5,138.6,875.6,138.9,875.6,139.3z"/>
		<path class="st46" d="M879.1,137.4l2.7-0.5v0.2l-0.5,0.1l1.5,3.1l0,0l0.5-3.7h0.3l1.9,3.3l0,0l0.2-2.8V137l0,0
			c0-0.1-0.1-0.2-0.2-0.3c-0.1-0.1-0.2-0.1-0.4-0.1h-0.2v-0.2l1.7-0.3v0.2c-0.4,0.1-0.6,0.4-0.7,0.9l-0.5,5.3l-0.3,0.1l-1.9-3.4l0,0
			l-0.6,3.9l-0.3,0.1l-2.7-5.4l-0.6,0.1L879.1,137.4z"/>
		<path class="st46" d="M890.3,137.7l-0.3-1.5c0-0.2-0.1-0.3-0.3-0.4c-0.1-0.1-0.3-0.1-0.5-0.1s-0.3,0.1-0.5,0.2
			c-0.1,0.1-0.2,0.2-0.2,0.3s0.1,0.1,0.2,0.2c0.3,0.1,0.5,0.3,0.6,0.6c0,0.2,0,0.4-0.1,0.6c-0.1,0.2-0.3,0.3-0.6,0.3s-0.5,0-0.7-0.1
			s-0.3-0.3-0.4-0.6c-0.1-0.4,0.1-0.8,0.4-1.2c0.3-0.3,0.8-0.6,1.4-0.7c0.6-0.1,1.1,0,1.5,0.2c0.4,0.3,0.7,0.7,0.8,1.2l0.6,3.6
			c0,0.2,0.1,0.2,0.2,0.2c0.1,0,0.2-0.2,0.1-0.6h0.2v0.2c0,0.3,0,0.5-0.1,0.7s-0.3,0.3-0.6,0.3c-0.5,0.1-0.9-0.1-1.2-0.5
			c-0.1,0.3-0.2,0.5-0.4,0.6s-0.4,0.2-0.8,0.3c-0.5,0.1-0.9,0-1.2-0.2s-0.5-0.5-0.6-0.9c-0.1-0.6,0.2-1.2,1-1.7
			c0.4-0.2,0.6-0.4,0.7-0.5C889.9,138.2,890.1,138,890.3,137.7z M890.7,140l-0.3-2l-0.2,0.3c-0.2,0.2-0.4,0.5-0.5,0.6
			c-0.1,0.2-0.1,0.4,0,0.7l0.1,0.8c0.1,0.4,0.2,0.6,0.5,0.6c0.2,0,0.3-0.1,0.3-0.3S890.7,140.3,890.7,140z"/>
		<path class="st46" d="M895.8,137.7h0.2c0.3,0.8,0.6,1.4,1,1.8c0.4,0.4,0.9,0.6,1.4,0.5c0.3,0,0.6-0.2,0.8-0.5s0.2-0.7,0.2-1.1
			c-0.1-0.7-0.5-1.2-1.3-1.6c-0.2-0.1-0.6-0.2-1-0.4s-0.7-0.4-0.9-0.6c-0.2-0.2-0.4-0.4-0.6-0.8c-0.2-0.3-0.3-0.6-0.3-1
			c-0.1-0.7,0-1.3,0.3-1.9c0.3-0.5,0.8-0.8,1.3-0.9c0.3,0,0.7,0,1,0.1s0.5,0.2,0.6,0.2s0.1-0.1,0.2-0.1c0.1-0.1,0.1-0.1,0.1-0.2l0,0
			h0.2l0.3,2.4h-0.2c-0.2-0.6-0.5-1.2-0.8-1.5c-0.4-0.4-0.7-0.5-1.1-0.5c-0.3,0-0.6,0.2-0.7,0.4c-0.2,0.2-0.2,0.5-0.2,0.8
			c0.1,0.4,0.2,0.8,0.6,1s0.9,0.6,1.6,0.9c1.2,0.5,1.9,1.3,2,2.5c0.1,0.8,0,1.5-0.4,2.1s-0.9,0.9-1.5,1c-0.4,0.1-0.7,0-1.1-0.2
			c-0.3-0.2-0.5-0.2-0.6-0.2c-0.2,0-0.3,0.2-0.3,0.5h-0.3L895.8,137.7z"/>
		<path class="st46" d="M901.3,132.1l1.6-0.1l0.1,1.7l0.7-0.1v0.2l-0.7,0.1l0.4,5.2c0,0.2,0.1,0.2,0.2,0.2c0.2,0,0.4-0.3,0.5-1h0.2
			c0,0.9-0.5,1.4-1.2,1.4c-0.4,0-0.7,0-0.9-0.2s-0.3-0.4-0.4-0.7l-0.4-4.9l-0.7,0.1v-0.2l0.7-0.1L901.3,132.1z"/>
		<path class="st46" d="M907.3,135.7l-0.1-1.5c0-0.2-0.1-0.3-0.2-0.4c-0.1-0.1-0.3-0.2-0.5-0.2s-0.3,0.1-0.5,0.1
			c-0.1,0.1-0.2,0.2-0.2,0.2c0,0.1,0.1,0.1,0.2,0.2c0.3,0.2,0.5,0.4,0.5,0.7c0,0.2-0.1,0.4-0.2,0.6c-0.2,0.2-0.4,0.2-0.6,0.3
			c-0.3,0-0.5-0.1-0.7-0.2c-0.2-0.2-0.3-0.4-0.3-0.6c0-0.4,0.2-0.8,0.6-1.1s0.9-0.5,1.5-0.5s1.1,0.1,1.5,0.4
			c0.4,0.3,0.6,0.7,0.6,1.3l0.1,3.7c0,0.2,0.1,0.2,0.1,0.2c0.1,0,0.2-0.2,0.2-0.6h0.2v0.2c0,0.3-0.1,0.5-0.2,0.6
			c-0.2,0.2-0.4,0.2-0.7,0.3c-0.5,0-0.9-0.2-1.1-0.7c-0.1,0.3-0.3,0.4-0.5,0.6c-0.2,0.1-0.4,0.2-0.8,0.2c-0.5,0-0.9-0.1-1.1-0.3
			c-0.3-0.2-0.4-0.6-0.4-1c0-0.6,0.4-1.1,1.2-1.5c0.4-0.2,0.7-0.3,0.8-0.4C906.9,136.2,907.1,136,907.3,135.7z M907.4,138.1l-0.1-2
			l-0.3,0.2c-0.3,0.2-0.5,0.4-0.5,0.5c-0.1,0.2-0.1,0.4-0.1,0.7v0.9c0,0.4,0.2,0.6,0.4,0.6s0.3-0.1,0.4-0.3
			C907.4,138.6,907.4,138.4,907.4,138.1z"/>
		<path class="st46" d="M910.6,131.7h1.6v1.7h0.7v0.2h-0.7v5.2c0,0.2,0.1,0.3,0.2,0.3c0.2,0,0.4-0.3,0.5-0.9h0.2
			c-0.1,0.9-0.6,1.3-1.3,1.3c-0.4,0-0.7-0.1-0.9-0.2c-0.2-0.2-0.3-0.4-0.3-0.7v-4.9h-0.7v-0.2h0.7V131.7z"/>
		<path class="st46" d="M918.1,137.4h0.2c-0.2,1.4-0.8,2.1-2.1,2.1c-0.8,0-1.4-0.3-1.8-0.9c-0.4-0.6-0.7-1.3-0.6-2.3
			c0-0.9,0.3-1.6,0.7-2.2c0.5-0.6,1.1-0.8,1.7-0.8c1.5,0,2.3,1.1,2.2,3.3l-2.9-0.1v1.4c0,0.9,0.3,1.3,0.9,1.3
			C917.3,139.3,917.9,138.7,918.1,137.4z M916.7,136.3v-2.2c0-0.1,0-0.3-0.2-0.4c-0.1-0.1-0.2-0.2-0.3-0.2c-0.2,0-0.3,0.1-0.4,0.2
			c-0.1,0.1-0.2,0.3-0.2,0.5v2.1L916.7,136.3z"/>
		<path class="st46" d="M921.9,130.7l3,0.2v0.2h-0.6l-0.4,7.5c0,0.3,0,0.5,0.2,0.7c0.1,0.2,0.3,0.3,0.5,0.3c0.4,0,0.7-0.1,0.9-0.3
			s0.4-0.6,0.4-1.1l0.4-6.5c0-0.1,0-0.2-0.1-0.3s-0.2-0.2-0.3-0.2h-0.3V131l1.5,0.1v0.2h-0.2c-0.1,0-0.2,0-0.3,0.1s-0.2,0.2-0.2,0.3
			l-0.4,6.5c0,0.6-0.2,1-0.5,1.3s-0.8,0.4-1.5,0.3c-1.3-0.1-2-0.8-1.9-2.2l0.4-6.6h-0.6L921.9,130.7z"/>
		<path class="st46" d="M929.7,134.1l-0.1,0.7l0.1-0.1c0.2-0.3,0.4-0.4,0.6-0.5c0.2-0.1,0.4-0.1,0.7-0.1c0.4,0,0.7,0.2,0.9,0.5
			s0.3,0.6,0.3,1l-0.4,4.4l0.6,0.1v0.2l-2.6-0.2v-0.2h0.4l0.4-4.8c0-0.4-0.1-0.5-0.3-0.6c-0.2,0-0.4,0.1-0.6,0.5
			c-0.2,0.3-0.3,0.5-0.3,0.6l-0.4,4.1h0.4v0.2l-2.6-0.2v-0.2l0.6,0.1l0.5-5.5l-0.6-0.1v-0.2L929.7,134.1z"/>
		<path class="st46" d="M933.4,134.5l2.2,0.2l-0.6,5.7l0.5,0.1v0.2l-2.7-0.3v-0.2l0.6,0.1l0.5-5.5l-0.6-0.1L933.4,134.5z M934,132.6
			c0-0.2,0.1-0.5,0.3-0.6c0.2-0.2,0.4-0.2,0.7-0.2c0.2,0,0.5,0.1,0.6,0.3c0.2,0.2,0.2,0.4,0.2,0.7c0,0.2-0.1,0.5-0.3,0.6
			c-0.2,0.2-0.4,0.2-0.7,0.2c-0.2,0-0.5-0.1-0.6-0.3S934,132.9,934,132.6z"/>
		<path class="st46" d="M936.6,134.8l2.7,0.3v0.2l-0.6-0.1l0.7,3.6l0,0l1.1-2.5c0.1-0.1,0.1-0.3,0.1-0.4c0-0.1,0-0.2-0.1-0.3
			s-0.2-0.2-0.3-0.2h-0.3v-0.2l1.7,0.2v0.2c-0.2,0-0.4,0-0.5,0.1s-0.3,0.3-0.4,0.7l-2.1,4.8h-0.3l-1.3-6l-0.5-0.1L936.6,134.8z"/>
		<path class="st46" d="M946.1,139.9h0.2c-0.3,1.4-1.1,2-2.3,1.8c-0.8-0.1-1.3-0.5-1.7-1.1s-0.5-1.4-0.4-2.3c0.1-0.9,0.4-1.6,1-2.1
			c0.5-0.5,1.1-0.7,1.8-0.6c1.5,0.2,2.1,1.4,1.8,3.5l-2.8-0.4l-0.2,1.4c-0.1,0.9,0.1,1.3,0.7,1.4
			C945.2,141.7,945.8,141.1,946.1,139.9z M944.8,138.7l0.3-2.2c0-0.1,0-0.3-0.1-0.4c-0.1-0.1-0.2-0.2-0.3-0.2c-0.2,0-0.3,0-0.4,0.1
			c-0.1,0.1-0.2,0.3-0.2,0.5l-0.3,2.1L944.8,138.7z"/>
		<path class="st46" d="M949.8,136.4l-0.1,0.6l0,0c0.3-0.4,0.6-0.6,1.1-0.5c0.3,0,0.5,0.2,0.7,0.4s0.2,0.5,0.2,0.8
			c0,0.2-0.1,0.4-0.3,0.6c-0.2,0.1-0.4,0.2-0.6,0.2c-0.2,0-0.4-0.1-0.5-0.3s-0.2-0.3-0.1-0.6c0-0.2,0.1-0.4,0.3-0.5s0.2-0.2,0.2-0.3
			s0-0.1-0.1-0.1c-0.2,0-0.4,0.1-0.6,0.4c-0.2,0.3-0.3,0.6-0.4,1l-0.6,4l0.7,0.1v0.2l-2.8-0.4v-0.2l0.6,0.1l0.8-5.5l-0.6-0.1v-0.2
			L949.8,136.4z"/>
		<path class="st46" d="M952,140.7h0.2c0.2,1.3,0.5,2,1.1,2.1c0.2,0,0.4,0,0.6-0.2c0.2-0.1,0.3-0.3,0.3-0.5c0-0.3,0-0.6-0.2-0.8
			s-0.4-0.5-0.8-0.7c-0.3-0.2-0.6-0.4-0.8-0.6c-0.2-0.2-0.3-0.4-0.4-0.7c-0.1-0.3-0.1-0.5,0-0.8c0.1-0.5,0.3-0.9,0.6-1.2
			s0.7-0.4,1.2-0.3c0.3,0,0.6,0.1,0.8,0.3c0.2,0.1,0.3,0.2,0.4,0.2c0.1,0,0.2,0,0.2-0.2h0.2l-0.3,1.7h-0.2c-0.1-1.1-0.4-1.7-1.1-1.8
			c-0.2,0-0.5,0-0.6,0.1c-0.2,0.1-0.3,0.3-0.3,0.5s0,0.4,0.2,0.6c0.1,0.2,0.5,0.5,1,0.8s0.8,0.7,1,1s0.2,0.7,0.1,1.2
			c-0.1,0.6-0.3,1-0.7,1.3s-0.8,0.4-1.3,0.4c-0.3,0-0.6-0.1-0.8-0.3c-0.2-0.1-0.3-0.2-0.4-0.2c-0.1,0-0.1,0.1-0.2,0.2h-0.2
			L952,140.7z"/>
		<path class="st46" d="M956.5,137.4l2.2,0.3l-0.9,5.7l0.5,0.1v0.2l-2.7-0.4v-0.2l0.6,0.1l0.8-5.5l-0.6-0.1L956.5,137.4z
			 M957.2,135.6c0-0.2,0.2-0.4,0.4-0.6c0.2-0.1,0.4-0.2,0.7-0.2c0.2,0,0.4,0.2,0.6,0.4c0.1,0.2,0.2,0.4,0.2,0.7
			c0,0.2-0.2,0.4-0.4,0.6c-0.2,0.1-0.4,0.2-0.7,0.2c-0.2,0-0.4-0.2-0.6-0.4C957.2,136,957.1,135.8,957.2,135.6z"/>
		<path class="st46" d="M960.6,136.3l1.6,0.3l-0.3,1.6l0.7,0.1v0.2l-0.7-0.1l-0.8,5.1c0,0.2,0,0.3,0.1,0.3c0.2,0,0.4-0.2,0.7-0.8
			h0.2c-0.3,0.9-0.8,1.2-1.5,1.1c-0.4-0.1-0.7-0.2-0.8-0.4c-0.2-0.2-0.2-0.5-0.2-0.8l0.8-4.8l-0.7-0.1v-0.2l0.7,0.1L960.6,136.3z"/>
		<path class="st46" d="M963.3,138.4l2.7,0.5l-0.1,0.2l-0.6-0.1l0.6,3.8l0,0l1.2-2.6c0.1-0.1,0.1-0.2,0.1-0.4c0.1-0.3,0-0.5-0.3-0.5
			l-0.3-0.1V139l1.7,0.3l-0.1,0.2c-0.2,0-0.4,0-0.6,0.1c-0.2,0.1-0.3,0.4-0.5,0.7l-2.6,5.9c-0.1,0.3-0.3,0.6-0.5,0.8
			c-0.3,0.3-0.6,0.4-1.1,0.3c-0.3-0.1-0.6-0.2-0.7-0.4s-0.2-0.5-0.2-0.7c0-0.3,0.2-0.5,0.3-0.6c0.2-0.1,0.4-0.2,0.7-0.1
			c0.2,0,0.4,0.1,0.5,0.3s0.2,0.4,0.1,0.6c0,0.1-0.1,0.2-0.1,0.3l-0.2,0.2l0,0c0,0.1,0,0.2,0.2,0.2c0.1,0,0.2-0.1,0.4-0.2
			c0.1-0.1,0.3-0.3,0.3-0.5l0.7-1.5h-0.3l-1-6.1l-0.5-0.1L963.3,138.4z"/>
	</g>
	<g>
		<g>
			<path class="st47" d="M868.9,135.8l2.8-0.6v0.2l-0.6,0.1l1.7,8.2l0.6-0.1v0.2l-2.8,0.6v-0.2l0.6-0.1l-1.7-8.2l-0.6,0.1V135.8z"/>
			<path class="st47" d="M873.6,140.7c-0.2-0.8-0.1-1.6,0.3-2.3c0.4-0.7,0.9-1.1,1.6-1.2c0.7-0.1,1.3,0,1.9,0.5s1,1.1,1.1,1.9
				c0.2,0.9,0.1,1.7-0.2,2.4s-0.9,1.1-1.6,1.2s-1.3,0-1.9-0.5C874.1,142.3,873.8,141.6,873.6,140.7z M875,138.6l0.7,3.6
				c0.1,0.6,0.4,0.9,0.8,0.8c0.4-0.1,0.6-0.4,0.5-1.1l-0.7-3.6c-0.1-0.4-0.2-0.7-0.3-0.8s-0.3-0.2-0.6-0.1c-0.2,0-0.4,0.2-0.4,0.3
				C874.9,138,874.9,138.3,875,138.6z"/>
			<path class="st47" d="M878.5,136.7l2.7-0.5v0.2l-0.5,0.1l1.5,3.1l0,0l0.5-3.7h0.3l1.9,3.3l0,0l0.2-2.8v-0.1l0,0
				c0-0.1-0.1-0.2-0.2-0.3c-0.1-0.1-0.2-0.1-0.4-0.1h-0.2v-0.2l1.7-0.3v0.2c-0.4,0.1-0.6,0.4-0.7,0.9l-0.5,5.3l-0.3,0.1l-1.9-3.4
				l0,0l-0.6,3.9l-0.3,0.1l-2.7-5.4l-0.6,0.1L878.5,136.7z"/>
			<path class="st47" d="M889.7,137l-0.3-1.5c0-0.2-0.1-0.3-0.3-0.4c-0.1-0.1-0.3-0.1-0.5-0.1s-0.3,0.1-0.5,0.2
				c-0.1,0.1-0.2,0.2-0.2,0.3s0.1,0.1,0.2,0.2c0.3,0.1,0.5,0.3,0.6,0.6c0,0.2,0,0.4-0.1,0.6c-0.1,0.2-0.3,0.3-0.6,0.3
				s-0.5,0-0.7-0.1s-0.3-0.3-0.4-0.6c-0.1-0.4,0.1-0.8,0.4-1.2c0.3-0.3,0.8-0.6,1.4-0.7c0.6-0.1,1.1,0,1.5,0.2
				c0.4,0.3,0.7,0.7,0.8,1.2l0.6,3.6c0,0.2,0.1,0.2,0.2,0.2c0.1,0,0.2-0.2,0.1-0.6h0.2v0.2c0,0.3,0,0.5-0.1,0.7s-0.3,0.3-0.6,0.3
				c-0.5,0.1-0.9-0.1-1.2-0.5c-0.1,0.3-0.2,0.5-0.4,0.6s-0.4,0.2-0.8,0.3c-0.5,0.1-0.9,0-1.2-0.2s-0.5-0.5-0.6-0.9
				c-0.1-0.6,0.2-1.2,1-1.7c0.4-0.2,0.6-0.4,0.7-0.5C889.3,137.5,889.4,137.3,889.7,137z M890.1,139.4l-0.3-2l-0.2,0.3
				c-0.2,0.2-0.4,0.5-0.5,0.6c-0.1,0.2-0.1,0.4,0,0.7l0.1,0.8c0.1,0.4,0.2,0.6,0.5,0.6c0.2,0,0.3-0.1,0.3-0.3
				S890.1,139.7,890.1,139.4z"/>
			<path class="st47" d="M895.2,137.1h0.2c0.3,0.8,0.6,1.4,1,1.8c0.4,0.4,0.9,0.6,1.4,0.5c0.3,0,0.6-0.2,0.8-0.5s0.2-0.7,0.2-1.1
				c-0.1-0.7-0.5-1.2-1.3-1.6c-0.2-0.1-0.6-0.2-1-0.4s-0.7-0.4-0.9-0.6c-0.2-0.2-0.4-0.4-0.6-0.8c-0.2-0.3-0.3-0.6-0.3-1
				c-0.1-0.7,0-1.3,0.3-1.9c0.3-0.5,0.8-0.8,1.3-0.9c0.3,0,0.7,0,1,0.1s0.5,0.2,0.6,0.2s0.1-0.1,0.2-0.1c0.1-0.1,0.1-0.1,0.1-0.2
				l0,0h0.2l0.3,2.4h-0.2c-0.2-0.6-0.5-1.2-0.8-1.5c-0.4-0.4-0.7-0.5-1.1-0.5c-0.3,0-0.6,0.2-0.7,0.4c-0.2,0.2-0.2,0.5-0.2,0.8
				c0.1,0.4,0.2,0.8,0.6,1s0.9,0.6,1.6,0.9c1.2,0.5,1.9,1.3,2,2.5c0.1,0.8,0,1.5-0.4,2.1s-0.9,0.9-1.5,1c-0.4,0.1-0.7,0-1.1-0.2
				s-0.5-0.2-0.6-0.2c-0.2,0-0.3,0.2-0.3,0.5h-0.3L895.2,137.1z"/>
			<path class="st47" d="M900.7,131.5l1.6-0.1l0.1,1.7l0.7-0.1v0.2l-0.7,0.1l0.4,5.2c0,0.2,0.1,0.2,0.2,0.2c0.2,0,0.4-0.3,0.5-1h0.2
				c0,0.9-0.5,1.4-1.2,1.4c-0.4,0-0.7,0-0.9-0.2s-0.3-0.4-0.4-0.7l-0.4-4.9l-0.7,0.1v-0.2l0.7-0.1L900.7,131.5z"/>
			<path class="st47" d="M906.7,135.1l-0.1-1.5c0-0.2-0.1-0.3-0.2-0.4c-0.1-0.1-0.3-0.2-0.5-0.2s-0.3,0.1-0.5,0.1
				c-0.1,0.1-0.2,0.2-0.2,0.2c0,0.1,0.1,0.1,0.2,0.2c0.3,0.2,0.5,0.4,0.5,0.7c0,0.2-0.1,0.4-0.2,0.6c-0.2,0.2-0.4,0.2-0.6,0.3
				c-0.3,0-0.5-0.1-0.7-0.2c-0.2-0.2-0.3-0.4-0.3-0.6c0-0.4,0.2-0.8,0.6-1.1c0.4-0.3,0.9-0.5,1.5-0.5s1.1,0.1,1.5,0.4
				c0.4,0.3,0.6,0.7,0.6,1.3l0.1,3.7c0,0.2,0.1,0.2,0.1,0.2c0.1,0,0.2-0.2,0.2-0.6h0.2v0.2c0,0.3-0.1,0.5-0.2,0.6
				c-0.2,0.2-0.4,0.2-0.7,0.3c-0.5,0-0.9-0.2-1.1-0.7c-0.1,0.3-0.3,0.4-0.5,0.6c-0.2,0.1-0.4,0.2-0.8,0.2c-0.5,0-0.9-0.1-1.1-0.3
				c-0.3-0.2-0.4-0.6-0.4-1c0-0.6,0.4-1.1,1.2-1.5c0.4-0.2,0.7-0.3,0.8-0.4C906.3,135.6,906.5,135.4,906.7,135.1z M906.8,137.5
				l-0.1-2l-0.3,0.2c-0.3,0.2-0.5,0.4-0.5,0.5c-0.1,0.2-0.1,0.4-0.1,0.7v0.9c0,0.4,0.2,0.6,0.4,0.6s0.3-0.1,0.4-0.3
				C906.7,138,906.8,137.8,906.8,137.5z"/>
			<path class="st47" d="M910,131.1h1.6v1.7h0.7v0.2h-0.7v5.2c0,0.2,0.1,0.3,0.2,0.3c0.2,0,0.4-0.3,0.5-0.9h0.2
				c-0.1,0.9-0.6,1.3-1.3,1.3c-0.4,0-0.7-0.1-0.9-0.2c-0.2-0.2-0.3-0.4-0.3-0.7v-4.9h-0.7v-0.2h0.7V131.1z"/>
			<path class="st47" d="M917.5,136.8h0.2c-0.2,1.4-0.8,2.1-2.1,2.1c-0.8,0-1.4-0.3-1.8-0.9c-0.4-0.6-0.7-1.3-0.6-2.3
				c0-0.9,0.3-1.6,0.7-2.2s1.1-0.8,1.7-0.8c1.5,0,2.3,1.1,2.2,3.3l-2.9-0.1v1.4c0,0.9,0.3,1.3,0.9,1.3
				C916.7,138.7,917.3,138.1,917.5,136.8z M916,135.7v-2.2c0-0.1,0-0.3-0.2-0.4c-0.1-0.1-0.2-0.2-0.3-0.2c-0.2,0-0.3,0.1-0.4,0.2
				c-0.1,0.1-0.2,0.3-0.2,0.5v2.1L916,135.7z"/>
			<path class="st47" d="M921.3,130.1l3,0.2v0.2h-0.6l-0.4,7.5c0,0.3,0,0.5,0.2,0.7c0.1,0.2,0.3,0.3,0.5,0.3c0.4,0,0.7-0.1,0.9-0.3
				s0.4-0.6,0.4-1.1l0.4-6.5c0-0.1,0-0.2-0.1-0.3s-0.2-0.2-0.3-0.2H925v-0.2l1.5,0.1v0.2h-0.2c-0.1,0-0.2,0-0.3,0.1
				s-0.2,0.2-0.2,0.3l-0.4,6.5c0,0.6-0.2,1-0.5,1.3s-0.8,0.4-1.5,0.3c-1.3-0.1-2-0.8-1.9-2.2l0.4-6.6h-0.6L921.3,130.1z"/>
			<path class="st47" d="M929.1,133.5l-0.1,0.7l0.1-0.1c0.2-0.3,0.4-0.4,0.6-0.5c0.2-0.1,0.4-0.1,0.7-0.1c0.4,0,0.7,0.2,0.9,0.5
				s0.3,0.6,0.3,1l-0.4,4.4l0.6,0.1v0.2l-2.6-0.2v-0.2h0.4l0.4-4.8c0-0.4-0.1-0.5-0.3-0.6c-0.2,0-0.4,0.1-0.6,0.5
				c-0.2,0.3-0.3,0.5-0.3,0.6l-0.4,4.1h0.4v0.2l-2.6-0.2v-0.2l0.6,0.1l0.5-5.5l-0.6-0.1v-0.2L929.1,133.5z"/>
			<path class="st47" d="M932.8,133.8l2.2,0.2l-0.6,5.7l0.5,0.1v0.2l-2.7-0.3v-0.2l0.6,0.1l0.5-5.5l-0.6-0.1L932.8,133.8z
				 M933.4,132c0-0.2,0.1-0.5,0.3-0.6c0.2-0.2,0.4-0.2,0.7-0.2c0.2,0,0.5,0.1,0.6,0.3c0.2,0.2,0.2,0.4,0.2,0.7
				c0,0.2-0.1,0.5-0.3,0.6c-0.2,0.2-0.4,0.2-0.7,0.2c-0.2,0-0.5-0.1-0.6-0.3C933.4,132.4,933.3,132.2,933.4,132z"/>
			<path class="st47" d="M936,134.1l2.7,0.3v0.2l-0.6-0.1l0.7,3.6l0,0l1.1-2.5c0.1-0.1,0.1-0.3,0.1-0.4c0-0.1,0-0.2-0.1-0.3
				s-0.2-0.2-0.3-0.2h-0.3v-0.2l1.7,0.2v0.2c-0.2,0-0.4,0-0.5,0.1s-0.3,0.3-0.4,0.7l-2.1,4.8h-0.3l-1.3-6l-0.5-0.1L936,134.1z"/>
			<path class="st47" d="M945.5,139.3h0.2c-0.3,1.4-1.1,2-2.3,1.8c-0.8-0.1-1.3-0.5-1.7-1.1s-0.5-1.4-0.4-2.3c0.1-0.9,0.4-1.6,1-2.1
				c0.5-0.5,1.1-0.7,1.8-0.6c1.5,0.2,2.1,1.4,1.8,3.5l-2.8-0.4l-0.2,1.4c-0.1,0.9,0.1,1.3,0.7,1.4
				C944.6,141.1,945.2,140.5,945.5,139.3z M944.2,138l0.3-2.2c0-0.1,0-0.3-0.1-0.4c-0.1-0.1-0.2-0.2-0.3-0.2c-0.2,0-0.3,0-0.4,0.1
				c-0.1,0.1-0.2,0.3-0.2,0.5l-0.3,2.1L944.2,138z"/>
			<path class="st47" d="M949.2,135.8l-0.1,0.6l0,0c0.3-0.4,0.6-0.6,1.1-0.5c0.3,0,0.5,0.2,0.7,0.4s0.2,0.5,0.2,0.8
				c0,0.2-0.1,0.4-0.3,0.6c-0.2,0.1-0.4,0.2-0.6,0.2c-0.2,0-0.4-0.1-0.5-0.3s-0.2-0.3-0.1-0.6c0-0.2,0.1-0.4,0.3-0.5
				s0.2-0.2,0.2-0.3s0-0.1-0.1-0.1c-0.2,0-0.4,0.1-0.6,0.4c-0.2,0.3-0.3,0.6-0.4,1l-0.6,4l0.7,0.1v0.2l-2.8-0.4v-0.2l0.6,0.1
				l0.8-5.5l-0.6-0.1v-0.2L949.2,135.8z"/>
			<path class="st47" d="M951.4,140.1h0.2c0.2,1.3,0.5,2,1.1,2.1c0.2,0,0.4,0,0.6-0.2c0.2-0.1,0.3-0.3,0.3-0.5c0-0.3,0-0.6-0.2-0.8
				s-0.4-0.5-0.8-0.7c-0.3-0.2-0.6-0.4-0.8-0.6c-0.2-0.2-0.3-0.4-0.4-0.7c-0.1-0.3-0.1-0.5,0-0.8c0.1-0.5,0.3-0.9,0.6-1.2
				s0.7-0.4,1.2-0.3c0.3,0,0.6,0.1,0.8,0.3c0.2,0.1,0.3,0.2,0.4,0.2c0.1,0,0.2,0,0.2-0.2h0.2l-0.3,1.7h-0.2
				c-0.1-1.1-0.4-1.7-1.1-1.8c-0.2,0-0.5,0-0.6,0.1c-0.2,0.1-0.3,0.3-0.3,0.5s0,0.4,0.2,0.6s0.5,0.5,1,0.8c0.5,0.4,0.8,0.7,1,1
				s0.2,0.7,0.1,1.2c-0.1,0.6-0.3,1-0.7,1.3s-0.8,0.4-1.3,0.4c-0.3,0-0.6-0.1-0.8-0.3c-0.2-0.1-0.3-0.2-0.4-0.2
				c-0.1,0-0.1,0.1-0.2,0.2H951L951.4,140.1z"/>
			<path class="st47" d="M955.9,136.7l2.2,0.3l-0.9,5.7l0.5,0.1v0.2l-2.7-0.4v-0.2l0.6,0.1l0.8-5.5l-0.6-0.1L955.9,136.7z
				 M956.6,134.9c0-0.2,0.2-0.4,0.4-0.6s0.4-0.2,0.7-0.2c0.2,0,0.4,0.2,0.6,0.4c0.1,0.2,0.2,0.4,0.2,0.7c0,0.2-0.2,0.4-0.4,0.6
				c-0.2,0.1-0.4,0.2-0.7,0.2c-0.2,0-0.4-0.2-0.6-0.4C956.6,135.4,956.5,135.2,956.6,134.9z"/>
			<path class="st47" d="M960,135.7l1.6,0.3l-0.3,1.6l0.7,0.1v0.2l-0.7-0.1l-0.8,5.1c0,0.2,0,0.3,0.1,0.3c0.2,0,0.4-0.2,0.7-0.8h0.2
				c-0.3,0.9-0.8,1.2-1.5,1.1c-0.4-0.1-0.7-0.2-0.8-0.4c-0.2-0.2-0.2-0.5-0.2-0.8l0.8-4.8l-0.7-0.1v-0.2l0.7,0.1L960,135.7z"/>
			<path class="st47" d="M962.6,137.8l2.7,0.5l-0.1,0.2l-0.6-0.1l0.6,3.8l0,0l1.2-2.6c0.1-0.1,0.1-0.2,0.1-0.4
				c0.1-0.3,0-0.5-0.3-0.5l-0.3-0.1v-0.2l1.7,0.3l-0.1,0.2c-0.2,0-0.4,0-0.6,0.1c-0.2,0.1-0.3,0.4-0.5,0.7l-2.6,5.9
				c-0.1,0.3-0.3,0.6-0.5,0.8c-0.3,0.3-0.6,0.4-1.1,0.3c-0.3-0.1-0.6-0.2-0.7-0.4s-0.2-0.5-0.2-0.7c0-0.3,0.2-0.5,0.3-0.6
				c0.2-0.1,0.4-0.2,0.7-0.1c0.2,0,0.4,0.1,0.5,0.3s0.2,0.4,0.1,0.6c0,0.1-0.1,0.2-0.1,0.3l-0.2,0.2l0,0c0,0.1,0,0.2,0.2,0.2
				c0.1,0,0.2-0.1,0.4-0.2c0.1-0.1,0.3-0.3,0.3-0.5l0.7-1.5h-0.3l-1-6.1l-0.5-0.1L962.6,137.8z"/>
		</g>
	</g>
</g>
<path class="st48" d="M975.9,134.7c0,0-17.8-7.6-59.2-7.8c-33.9-0.1-59.2,7.8-59.2,7.8v-4.2c0,0,14.1-7.8,59.2-7.8
	c51.9,0,59.2,7.8,59.2,7.8V134.7z"/>
<path class="st15" d="M975.3,133.4c0,0-17.8-7.6-59.2-7.8c-33.9-0.1-59.2,7.8-59.2,7.8v-1.6c0,0,14.1-7.8,59.2-7.8
	c51.9,0,59.2,7.8,59.2,7.8V133.4z"/>
<path class="st48" d="M975.9,156.5c0,0-17.8-7.6-59.2-7.8c-33.9-0.1-59.2,7.8-59.2,7.8v-4.2c0,0,14.1-7.8,59.2-7.8
	c51.9,0,59.2,7.8,59.2,7.8V156.5z"/>
<path class="st15" d="M975.3,155.2c0,0-17.8-7.6-59.2-7.8c-33.9-0.1-59.2,7.8-59.2,7.8v-1.6c0,0,14.1-7.8,59.2-7.8
	c51.9,0,59.2,7.8,59.2,7.8V155.2z"/>
</svg>
