<?xml version="1.0" encoding="utf-8"?>
<!-- Generator: Adobe Illustrator 23.0.1, SVG Export Plug-In . SVG Version: 6.00 Build 0)  -->
<svg version="1.1" id="Layer_1" xmlns="http://www.w3.org/2000/svg" xmlns:xlink="http://www.w3.org/1999/xlink" x="0px" y="0px"
	 viewBox="0 0 1152 768" style="enable-background:new 0 0 1152 768;" xml:space="preserve">
<style type="text/css">
	.st0{opacity:0.8;fill:#D3DCE7;stroke:#032303;stroke-width:1.0985;stroke-miterlimit:10;}
	.st1{opacity:0.8;fill:#ECECEC;}
	.st2{fill:none;stroke:#FFFFFF;stroke-width:1.0985;stroke-miterlimit:10;}
	.st3{opacity:0.25;fill:none;stroke:#FFFFFF;stroke-width:1.6477;stroke-miterlimit:10;}
	.st4{opacity:0.25;fill:none;stroke:#FFFFFF;stroke-width:1.3731;stroke-miterlimit:10;}
	.st5{opacity:0.25;fill:none;stroke:#FFFFFF;stroke-width:1.0985;stroke-miterlimit:10;}
	.st6{opacity:0.25;fill:none;stroke:#FFFFFF;stroke-width:0.8239;stroke-miterlimit:10;}
	.st7{opacity:0.25;fill:none;stroke:#FFFFFF;stroke-width:0.5492;stroke-miterlimit:10;}
	.st8{fill:#7EBED9;fill-opacity:0.5;stroke:#7EBED9;stroke-width:3.2955;stroke-miterlimit:10;}
	.st9{fill:#9DBD90;fill-opacity:0.5;stroke:#9DBD8F;stroke-width:3.2955;stroke-miterlimit:10;}
	.st10{fill:#7EBED9;stroke:#FFFFFF;stroke-width:1.6477;stroke-miterlimit:10;}
	.st11{fill:#9DBD90;stroke:#FFFFFF;stroke-width:1.6477;stroke-miterlimit:10;}
	.st12{opacity:0.8;}
	.st13{fill:#D3DCE7;}
	.st14{opacity:0.8;stroke:#D3DCE7;stroke-width:3.7757;stroke-miterlimit:10;}
	.st15{fill:none;stroke:#000000;stroke-miterlimit:10;}
	.st16{opacity:0.8;fill:none;stroke:#737475;stroke-width:3.7757;stroke-miterlimit:10;}
	.st17{font-family:'Impact';}
	.st18{font-size:23.1164px;}
	.st19{opacity:0.8;fill:none;stroke:#737475;stroke-width:2.6698;stroke-miterlimit:10;}
</style>
<polygon class="st0" points="434.7,653.9 589.4,385.9 744.2,653.9 "/>
<polygon class="st1" points="434.7,117.8 589.4,385.9 744.2,117.8 "/>
<polygon class="st0" points="744.2,117.8 899,385.9 589.4,385.9 "/>
<polygon class="st0" points="434.7,117.8 589.4,385.9 279.9,385.9 "/>
<polygon class="st1" points="589.4,385.9 434.7,653.9 279.9,385.9 "/>
<polygon class="st1" points="899,385.9 744.2,653.9 589.4,385.9 "/>
<polygon class="st2" points="744.2,117.8 434.7,117.8 279.9,385.9 434.7,653.9 744.2,653.9 899,385.9 "/>
<polygon class="st3" points="715.5,167.5 463.3,167.5 337.3,385.9 463.3,604.3 715.5,604.3 841.6,385.9 "/>
<polygon class="st4" points="686.1,218.5 492.8,218.5 396.2,385.9 492.8,553.2 686.1,553.2 782.7,385.9 "/>
<polygon class="st5" points="659.5,264.6 519.4,264.6 449.4,385.9 519.4,507.1 659.5,507.1 729.5,385.9 "/>
<polygon class="st6" points="635.3,305.4 543.6,305.4 497.8,384.8 543.6,464.1 635.3,464.1 681.1,384.8 "/>
<polygon class="st7" points="615.5,339.6 563.4,339.6 537.3,384.8 563.4,429.9 615.5,429.9 641.6,384.8 "/>
<polygon class="st8" points="434.7,118.9 686.1,219.6 729.5,386.9 686.1,554.2 519.4,508.2 396.2,386.9 "/>
<polygon class="st9" points="635.3,465.2 563.4,431 425.6,386.5 434.7,118.9 671.8,244.2 697.9,385.8 "/>
<circle class="st10" cx="685.6" cy="219.4" r="7"/>
<circle class="st11" cx="670" cy="245.2" r="7.1"/>
<circle class="st11" cx="562.8" cy="431.1" r="7"/>
<circle class="st10" cx="518" cy="507.1" r="7"/>
<circle class="st11" cx="635.3" cy="464.1" r="7"/>
<circle class="st10" cx="685.6" cy="553.2" r="7"/>
<circle class="st11" cx="697.9" cy="385.9" r="7"/>
<circle class="st11" cx="431.8" cy="118.2" r="7"/>
<circle class="st10" cx="435.9" cy="116.2" r="7"/>
<circle class="st11" cx="425.6" cy="386.5" r="7"/>
<circle class="st10" cx="396.2" cy="385.9" r="7"/>
<g class="st12">
	<g>
		<circle class="st13" cx="423.4" cy="101.7" r="5.5"/>
		<circle class="st13" cx="414.2" cy="84.3" r="8.4"/>
		<circle class="st13" cx="401.6" cy="60.6" r="12.3"/>
	</g>
	<g>
		<circle class="st14" cx="423.4" cy="101.7" r="5.5"/>
		<circle class="st14" cx="414.2" cy="84.3" r="8.4"/>
		<circle class="st14" cx="401.6" cy="60.6" r="12.3"/>
	</g>
	<g>
		<circle class="st15" cx="423.4" cy="101.7" r="5.5"/>
		<circle class="st15" cx="414.2" cy="84.3" r="8.4"/>
		<circle class="st15" cx="401.6" cy="60.6" r="12.3"/>
	</g>
</g>
<path class="st16" d="M371.3,57.8H236.9c-6.6,0-12-5.4-12-12V20.1c0-6.6,5.4-12,12-12h134.4c6.6,0,12,5.4,12,12v25.7
	C383.3,52.4,377.9,57.8,371.3,57.8z"/>
<text transform="matrix(1 0 0 1 230.418 40.7494)" class="st17 st18">Documentation</text>
<path class="st16" d="M937.2,52.8H786.6c-6.6,0-12-5.4-12-12V15.1c0-6.6,5.4-12,12-12h150.6c6.6,0,12,5.4,12,12v25.7
	C949.2,47.4,943.8,52.8,937.2,52.8z"/>
<text transform="matrix(1 0 0 1 783.5093 35.7312)" class="st17 st18">Writing &amp; Editing</text>
<g class="st12">
	<g>
		<circle class="st13" cx="750.1" cy="108.1" r="5.5"/>
		<circle class="st13" cx="759.6" cy="90.8" r="8.4"/>
		<circle class="st13" cx="772.5" cy="67.3" r="12.3"/>
	</g>
	<g>
		<circle class="st14" cx="750.1" cy="108.1" r="5.5"/>
		<circle class="st14" cx="759.6" cy="90.8" r="8.4"/>
		<circle class="st14" cx="772.5" cy="67.3" r="12.3"/>
	</g>
	<g>
		<circle class="st15" cx="750.1" cy="108.1" r="5.5"/>
		<circle class="st15" cx="759.6" cy="90.8" r="8.4"/>
		<circle class="st15" cx="772.5" cy="67.3" r="12.3"/>
	</g>
</g>
<g class="st12">
	<g>
		<circle class="st13" cx="430" cy="662.2" r="5.5"/>
		<circle class="st13" cx="418.9" cy="678.5" r="8.4"/>
		<circle class="st13" cx="403.7" cy="700.6" r="12.3"/>
	</g>
	<g>
		<circle class="st14" cx="430" cy="662.2" r="5.5"/>
		<circle class="st14" cx="418.9" cy="678.5" r="8.4"/>
		<circle class="st14" cx="403.7" cy="700.6" r="12.3"/>
	</g>
	<g>
		<circle class="st15" cx="430" cy="662.2" r="5.5"/>
		<circle class="st15" cx="418.9" cy="678.5" r="8.4"/>
		<circle class="st15" cx="403.7" cy="700.6" r="12.3"/>
	</g>
</g>
<path class="st19" d="M377.9,763.6h-55.2c-6.6,0-12-5.4-12-12v-25.7c0-6.6,5.4-12,12-12h55.2c6.6,0,12,5.4,12,12v25.7
	C389.9,758.2,384.5,763.6,377.9,763.6z"/>
<text transform="matrix(1 0 0 1 319.1994 746.5558)" class="st17 st18">Media</text>
<path class="st19" d="M863.9,764.5h-63.3c-6.6,0-12-5.4-12-12v-25.7c0-6.6,5.4-12,12-12h63.3c6.6,0,12,5.4,12,12v25.7
	C875.9,759.1,870.5,764.5,863.9,764.5z"/>
<text transform="matrix(1 0 0 1 797.4806 747.4525)" class="st17 st18">Design</text>
<g class="st12">
	<g>
		<circle class="st13" cx="749.7" cy="662" r="5.5"/>
		<circle class="st13" cx="761" cy="678.2" r="8.4"/>
		<circle class="st13" cx="776.3" cy="700.2" r="12.3"/>
	</g>
	<g>
		<circle class="st14" cx="749.7" cy="662" r="5.5"/>
		<circle class="st14" cx="761" cy="678.2" r="8.4"/>
		<circle class="st14" cx="776.3" cy="700.2" r="12.3"/>
	</g>
	<g>
		<circle class="st15" cx="749.7" cy="662" r="5.5"/>
		<circle class="st15" cx="761" cy="678.2" r="8.4"/>
		<circle class="st15" cx="776.3" cy="700.2" r="12.3"/>
	</g>
</g>
<path class="st16" d="M1043.7,407.7h-48c-6.6,0-12-5.4-12-12v-25.7c0-6.6,5.4-12,12-12h48c6.6,0,12,5.4,12,12v25.7
	C1055.7,402.3,1050.3,407.7,1043.7,407.7z"/>
<text transform="matrix(1 0 0 1 994.3082 389.8993)" class="st17 st18">STEM</text>
<g class="st12">
	<g>
		<circle class="st13" cx="911.2" cy="385.6" r="5.5"/>
		<circle class="st13" cx="930.9" cy="385.3" r="8.4"/>
		<circle class="st13" cx="957.7" cy="384.8" r="12.3"/>
	</g>
	<g>
		<circle class="st14" cx="911.2" cy="385.6" r="5.5"/>
		<circle class="st14" cx="930.9" cy="385.3" r="8.4"/>
		<circle class="st14" cx="957.7" cy="384.8" r="12.3"/>
	</g>
	<g>
		<circle class="st15" cx="911.2" cy="385.6" r="5.5"/>
		<circle class="st15" cx="930.9" cy="385.3" r="8.4"/>
		<circle class="st15" cx="957.7" cy="384.8" r="12.3"/>
	</g>
</g>
<path class="st16" d="M180.1,409.3h-77.7c-6.6,0-12-5.4-12-12v-25.7c0-6.6,5.4-12,12-12h77.7c6.6,0,12,5.4,12,12v25.7
	C192.1,403.9,186.7,409.3,180.1,409.3z"/>
<text transform="matrix(1 0 0 1 101.8376 391.9535)" class="st17 st18">Rhetoric</text>
<g class="st12">
	<g>
		<circle class="st13" cx="267.3" cy="384.4" r="5.5"/>
		<circle class="st13" cx="247.5" cy="384.4" r="8.4"/>
		<circle class="st13" cx="220.7" cy="384.4" r="12.3"/>
	</g>
	<g>
		<circle class="st14" cx="267.3" cy="384.4" r="5.5"/>
		<circle class="st14" cx="247.5" cy="384.4" r="8.4"/>
		<circle class="st14" cx="220.7" cy="384.4" r="12.3"/>
	</g>
	<g>
		<circle class="st15" cx="267.3" cy="384.4" r="5.5"/>
		<circle class="st15" cx="247.5" cy="384.4" r="8.4"/>
		<circle class="st15" cx="220.7" cy="384.4" r="12.3"/>
	</g>
</g>
</svg>
