<?xml version="1.0" encoding="utf-8"?>
<!-- Generator: Adobe Illustrator 23.0.1, SVG Export Plug-In . SVG Version: 6.00 Build 0)  -->
<svg version="1.1" id="Layer_1" xmlns="http://www.w3.org/2000/svg" xmlns:xlink="http://www.w3.org/1999/xlink" x="0px" y="0px"
	 viewBox="0 0 1366 78" style="enable-background:new 0 0 1366 78;" xml:space="preserve">
<style type="text/css">
	.st0{fill:#00E4F5;}
	.st1{fill:#EFFF1F;}
	.st2{fill:#FFB609;}
	.st3{fill:#FF76A8;}
	.st4{fill:#C4C4C4;}
	.st5{fill:#FFFFFF;}
	.st6{fill:#7B00A8;}
	.st7{fill:#DF5E00;}
</style>
<g>
	<rect x="13.1" y="11.1" class="st0" width="68.3" height="14.6"/>
	<path d="M81.3,11.2v14.3H13.2V11.2H81.3 M81.6,11H13v14.8h68.6V11L81.6,11z"/>
</g>
<g>
	<rect x="13.1" y="32" class="st1" width="68.3" height="14.6"/>
	<path d="M81.3,32.1v14.3H13.2V32.1H81.3 M81.6,31.9H13v14.8h68.6V31.9L81.6,31.9z"/>
</g>
<g>
	<rect x="13.1" y="52.3" class="st2" width="68.3" height="14.6"/>
	<path d="M81.3,52.4v14.3H13.2V52.4H81.3 M81.6,52.2H13V67h68.6V52.2L81.6,52.2z"/>
</g>
<g>
	<rect x="93.3" y="11.1" class="st3" width="68.3" height="14.6"/>
	<path d="M161.4,11.2v14.3H93.4V11.2H161.4 M161.7,11H93.1v14.8h68.6V11L161.7,11z"/>
</g>
<g>
	<rect x="501.6" y="30.8" class="st4" width="68.3" height="14.6"/>
	<path d="M569.8,30.9v14.3h-68.1V30.9H569.8 M570.1,30.7h-68.6v14.8h68.6V30.7L570.1,30.7z"/>
</g>
<g>
	<rect x="965.8" y="24" class="st5" width="68" height="14.3"/>
	<path d="M1033.5,24.2V38H966V24.2H1033.5 M1034,23.7h-68.6v14.8h68.6V23.7L1034,23.7z"/>
</g>
<g>
	<rect x="93.3" y="32" class="st6" width="68.3" height="14.6"/>
	<path d="M161.4,32.1v14.3H93.4V32.1H161.4 M161.7,31.9H93.1v14.8h68.6V31.9L161.7,31.9z"/>
</g>
<g>
	<rect x="93.3" y="52.3" class="st7" width="68.3" height="14.6"/>
	<path d="M161.4,52.4v14.3H93.4V52.4H161.4 M161.7,52.2H93.1V67h68.6V52.2L161.7,52.2z"/>
</g>
<g>
	<path d="M180.4,33.3v-2.2c0.2,0.2,0.4,0.3,0.7,0.5c0.3,0.1,0.6,0.3,0.9,0.4c0.3,0.1,0.6,0.2,0.9,0.2c0.3,0.1,0.6,0.1,0.9,0.1
		c0.9,0,1.6-0.2,2-0.5s0.7-0.7,0.7-1.3c0-0.3-0.1-0.6-0.2-0.8c-0.1-0.2-0.4-0.4-0.6-0.6c-0.3-0.2-0.6-0.4-0.9-0.5
		c-0.4-0.2-0.7-0.4-1.2-0.5c-0.4-0.2-0.9-0.5-1.2-0.7c-0.4-0.2-0.7-0.5-1-0.8s-0.5-0.6-0.7-1s-0.2-0.8-0.2-1.3
		c0-0.6,0.1-1.1,0.4-1.6s0.6-0.8,1.1-1.1c0.5-0.3,1-0.5,1.5-0.7c0.6-0.1,1.2-0.2,1.8-0.2c1.4,0,2.4,0.2,3,0.5v2.1
		c-0.7-0.5-1.7-0.8-2.9-0.8c-0.3,0-0.6,0-1,0.1s-0.6,0.2-0.9,0.3c-0.3,0.1-0.5,0.3-0.6,0.5s-0.2,0.5-0.2,0.8c0,0.3,0.1,0.5,0.2,0.8
		c0.1,0.2,0.3,0.4,0.5,0.6c0.2,0.2,0.5,0.3,0.9,0.5s0.7,0.3,1.2,0.5c0.5,0.2,0.9,0.5,1.3,0.7s0.8,0.5,1.1,0.9s0.5,0.7,0.7,1
		c0.2,0.4,0.3,0.8,0.3,1.3c0,0.7-0.1,1.2-0.4,1.7c-0.3,0.5-0.6,0.8-1.1,1.1c-0.5,0.3-1,0.5-1.6,0.6s-1.2,0.2-1.9,0.2
		c-0.2,0-0.5,0-0.8,0c-0.3,0-0.6-0.1-1-0.1c-0.3-0.1-0.6-0.1-0.9-0.2C180.8,33.5,180.5,33.4,180.4,33.3z"/>
	<path d="M195.2,33.7c-0.4,0.2-1,0.3-1.6,0.3c-1.8,0-2.7-0.9-2.7-2.6v-5.3h-1.6v-1.7h1.6v-2.2l2.1-0.6v2.8h2.2v1.7H193v4.6
		c0,0.6,0.1,0.9,0.3,1.2c0.2,0.2,0.5,0.4,1,0.4c0.4,0,0.7-0.1,0.9-0.3V33.7z"/>
	<path d="M205.1,33.8H203v-1.5h0c-0.6,1.1-1.6,1.7-2.8,1.7c-2.2,0-3.3-1.3-3.3-4v-5.6h2.1v5.3c0,1.7,0.6,2.5,1.9,2.5
		c0.6,0,1.1-0.2,1.5-0.7c0.4-0.5,0.6-1.1,0.6-1.8v-5.3h2.1V33.8z"/>
	<path d="M216.3,33.8h-2.1v-1.6h0c-0.7,1.2-1.7,1.8-3.1,1.8c-1.1,0-2.1-0.4-2.7-1.2c-0.7-0.8-1-2-1-3.4c0-1.5,0.4-2.8,1.1-3.7
		s1.8-1.4,3-1.4c1.3,0,2.2,0.5,2.7,1.5h0v-5.8h2.1V33.8z M214.2,29.6v-1.2c0-0.7-0.2-1.2-0.6-1.7s-1-0.7-1.6-0.7
		c-0.8,0-1.4,0.3-1.9,0.9c-0.5,0.6-0.7,1.4-0.7,2.4c0,0.9,0.2,1.7,0.6,2.2c0.4,0.5,1,0.8,1.7,0.8c0.7,0,1.3-0.3,1.8-0.8
		C214,31,214.2,30.4,214.2,29.6z"/>
	<path d="M226.9,29.7h-6.3c0,0.9,0.3,1.5,0.8,2c0.5,0.5,1.2,0.7,2.1,0.7c1,0,1.9-0.3,2.7-0.9v1.7c-0.8,0.5-2,0.8-3.4,0.8
		c-1.4,0-2.4-0.4-3.2-1.3c-0.8-0.8-1.2-2-1.2-3.6c0-1.4,0.4-2.6,1.3-3.5c0.9-0.9,1.9-1.4,3.2-1.4s2.3,0.4,2.9,1.2s1,2,1,3.4V29.7z
		 M224.9,28.3c0-0.8-0.2-1.3-0.5-1.8c-0.4-0.4-0.8-0.6-1.5-0.6c-0.6,0-1.1,0.2-1.5,0.7c-0.4,0.4-0.7,1-0.8,1.7H224.9z"/>
	<path d="M237.2,33.8h-2.1v-5.2c0-1.7-0.6-2.6-1.8-2.6c-0.6,0-1.2,0.2-1.6,0.7c-0.4,0.5-0.6,1.1-0.6,1.8v5.3h-2.1v-9.3h2.1v1.5h0
		c0.7-1.2,1.7-1.8,3-1.8c1,0,1.8,0.3,2.3,1c0.5,0.7,0.8,1.6,0.8,2.8V33.8z"/>
	<path d="M244.7,33.7c-0.4,0.2-1,0.3-1.6,0.3c-1.8,0-2.7-0.9-2.7-2.6v-5.3h-1.6v-1.7h1.6v-2.2l2.1-0.6v2.8h2.2v1.7h-2.2v4.6
		c0,0.6,0.1,0.9,0.3,1.2c0.2,0.2,0.5,0.4,1,0.4c0.4,0,0.7-0.1,0.9-0.3V33.7z"/>
	<path d="M265.8,33.8h-2.1v-8.4c0-0.7,0-1.5,0.1-2.5h0c-0.1,0.6-0.3,1-0.4,1.2l-3.9,9.7H258l-3.9-9.7c-0.1-0.3-0.2-0.7-0.3-1.3h0
		c0,0.5,0.1,1.4,0.1,2.6v8.4h-2v-13h3l3.4,8.7c0.3,0.7,0.4,1.2,0.5,1.5h0c0.2-0.7,0.4-1.2,0.5-1.5l3.5-8.6h2.9V33.8z"/>
	<path d="M275.9,33.8h-2v-1.5h0c-0.6,1.1-1.6,1.7-2.8,1.7c-0.9,0-1.6-0.2-2.1-0.7c-0.5-0.5-0.8-1.2-0.8-2c0-1.8,1-2.8,3-3.1l2.8-0.4
		c0-1.3-0.6-2-1.9-2c-1.1,0-2.1,0.4-3,1.1v-1.8c1-0.6,2.1-0.9,3.4-0.9c2.3,0,3.5,1.2,3.5,3.5V33.8z M273.9,29.3l-2,0.3
		c-0.6,0.1-1.1,0.2-1.4,0.4c-0.3,0.2-0.5,0.6-0.5,1.1c0,0.4,0.1,0.7,0.4,1c0.3,0.3,0.7,0.4,1.1,0.4c0.6,0,1.2-0.2,1.6-0.7
		c0.4-0.5,0.6-1,0.6-1.7V29.3z"/>
	<path d="M280.6,33.4c0,1.5-0.3,2.7-1,3.5c-0.6,0.8-1.6,1.2-2.8,1.2c-0.4,0-0.9-0.1-1.3-0.3v-1.8c0.4,0.3,0.8,0.4,1.1,0.4
		c1.2,0,1.8-1,1.8-3.1v-8.8h2.1V33.4z M279.6,22.6c-0.3,0-0.6-0.1-0.9-0.3c-0.2-0.2-0.4-0.5-0.4-0.9s0.1-0.6,0.4-0.9
		s0.5-0.3,0.9-0.3c0.4,0,0.7,0.1,0.9,0.3s0.4,0.5,0.4,0.9c0,0.3-0.1,0.6-0.4,0.8C280.2,22.5,279.9,22.6,279.6,22.6z"/>
	<path d="M287.5,34c-1.4,0-2.6-0.4-3.4-1.3c-0.9-0.9-1.3-2-1.3-3.5c0-1.6,0.4-2.8,1.3-3.7s2.1-1.3,3.6-1.3c1.5,0,2.6,0.4,3.4,1.3
		c0.8,0.9,1.2,2,1.2,3.5c0,1.5-0.4,2.7-1.3,3.6C290.1,33.6,288.9,34,287.5,34z M287.6,26c-0.8,0-1.5,0.3-2,0.9
		c-0.5,0.6-0.7,1.4-0.7,2.4c0,1,0.2,1.7,0.7,2.3c0.5,0.6,1.1,0.8,1.9,0.8c0.8,0,1.5-0.3,1.9-0.8c0.4-0.6,0.7-1.3,0.7-2.4
		c0-1-0.2-1.8-0.7-2.4C289,26.3,288.4,26,287.6,26z"/>
	<path d="M299.8,26.5c-0.3-0.2-0.6-0.3-1.1-0.3c-0.6,0-1.1,0.3-1.6,0.8c-0.4,0.6-0.6,1.3-0.6,2.3v4.4h-2.1v-9.3h2.1v1.9h0
		c0.2-0.7,0.5-1.2,0.9-1.5s0.9-0.5,1.4-0.5c0.4,0,0.7,0.1,0.9,0.2V26.5z"/>
	<path d="M300.9,33.5v-2c0.8,0.6,1.7,0.9,2.6,0.9c1.3,0,1.9-0.4,1.9-1.1c0-0.2-0.1-0.4-0.2-0.5s-0.3-0.3-0.4-0.4
		c-0.2-0.1-0.4-0.2-0.7-0.3c-0.3-0.1-0.5-0.2-0.8-0.3c-0.4-0.2-0.7-0.3-1-0.5s-0.6-0.4-0.8-0.6c-0.2-0.2-0.4-0.5-0.5-0.7
		c-0.1-0.3-0.2-0.6-0.2-1c0-0.4,0.1-0.8,0.3-1.2s0.5-0.6,0.9-0.9c0.4-0.2,0.8-0.4,1.2-0.5c0.5-0.1,0.9-0.2,1.4-0.2
		c0.9,0,1.6,0.1,2.3,0.4v1.8c-0.7-0.4-1.4-0.7-2.3-0.7c-0.3,0-0.5,0-0.7,0.1c-0.2,0.1-0.4,0.1-0.5,0.2c-0.2,0.1-0.3,0.2-0.4,0.3
		c-0.1,0.1-0.1,0.3-0.1,0.4c0,0.2,0,0.4,0.1,0.5c0.1,0.1,0.2,0.3,0.4,0.4c0.2,0.1,0.4,0.2,0.6,0.3c0.2,0.1,0.5,0.2,0.8,0.3
		c0.4,0.2,0.8,0.3,1.1,0.5c0.3,0.2,0.6,0.4,0.8,0.6c0.2,0.2,0.4,0.5,0.5,0.7c0.1,0.3,0.2,0.6,0.2,1c0,0.5-0.1,0.9-0.3,1.2
		c-0.2,0.4-0.5,0.6-0.9,0.9c-0.4,0.2-0.8,0.4-1.3,0.5c-0.5,0.1-1,0.2-1.5,0.2C302.5,34,301.6,33.9,300.9,33.5z"/>
	<path d="M316.7,32.5L316.7,32.5l0,1.3h-2.1V20.1h2.1v6.1h0c0.7-1.2,1.8-1.9,3.2-1.9c1.2,0,2.1,0.4,2.8,1.2c0.7,0.8,1,1.9,1,3.3
		c0,1.6-0.4,2.8-1.1,3.7c-0.7,0.9-1.8,1.4-3,1.4C318.2,34,317.3,33.5,316.7,32.5z M316.7,28.8v1.2c0,0.7,0.2,1.3,0.6,1.7
		s1,0.7,1.6,0.7c0.8,0,1.4-0.3,1.8-0.9c0.4-0.6,0.7-1.5,0.7-2.5c0-0.9-0.2-1.6-0.6-2.1c-0.4-0.5-1-0.8-1.7-0.8
		c-0.8,0-1.4,0.3-1.8,0.8C316.9,27.3,316.7,28,316.7,28.8z"/>
	<path d="M333.6,29.7h-6.3c0,0.9,0.3,1.5,0.8,2c0.5,0.5,1.2,0.7,2.1,0.7c1,0,1.9-0.3,2.7-0.9v1.7c-0.8,0.5-2,0.8-3.4,0.8
		c-1.4,0-2.4-0.4-3.2-1.3c-0.8-0.8-1.2-2-1.2-3.6c0-1.4,0.4-2.6,1.3-3.5c0.9-0.9,1.9-1.4,3.2-1.4s2.3,0.4,2.9,1.2s1,2,1,3.4V29.7z
		 M331.6,28.3c0-0.8-0.2-1.3-0.5-1.8c-0.4-0.4-0.8-0.6-1.5-0.6c-0.6,0-1.1,0.2-1.5,0.7c-0.4,0.4-0.7,1-0.8,1.7H331.6z"/>
	<path d="M340.9,21.8c-0.3-0.2-0.6-0.2-1-0.2c-1,0-1.5,0.6-1.5,1.7v1.3h2.2v1.7h-2.2v7.6h-2.1v-7.6h-1.6v-1.7h1.6V23
		c0-1,0.3-1.8,1-2.3c0.6-0.6,1.4-0.8,2.4-0.8c0.5,0,0.9,0.1,1.2,0.2V21.8z"/>
	<path d="M346.2,34c-1.4,0-2.6-0.4-3.4-1.3c-0.9-0.9-1.3-2-1.3-3.5c0-1.6,0.4-2.8,1.3-3.7s2.1-1.3,3.6-1.3c1.5,0,2.6,0.4,3.4,1.3
		c0.8,0.9,1.2,2,1.2,3.5c0,1.5-0.4,2.7-1.3,3.6C348.8,33.6,347.7,34,346.2,34z M346.3,26c-0.8,0-1.5,0.3-2,0.9
		c-0.5,0.6-0.7,1.4-0.7,2.4c0,1,0.2,1.7,0.7,2.3c0.5,0.6,1.1,0.8,1.9,0.8c0.8,0,1.5-0.3,1.9-0.8c0.4-0.6,0.7-1.3,0.7-2.4
		c0-1-0.2-1.8-0.7-2.4C347.7,26.3,347.1,26,346.3,26z"/>
	<path d="M358.5,26.5c-0.3-0.2-0.6-0.3-1.1-0.3c-0.6,0-1.1,0.3-1.6,0.8c-0.4,0.6-0.6,1.3-0.6,2.3v4.4h-2.1v-9.3h2.1v1.9h0
		c0.2-0.7,0.5-1.2,0.9-1.5s0.9-0.5,1.4-0.5c0.4,0,0.7,0.1,0.9,0.2V26.5z"/>
	<path d="M367.7,29.7h-6.3c0,0.9,0.3,1.5,0.8,2c0.5,0.5,1.2,0.7,2.1,0.7c1,0,1.9-0.3,2.7-0.9v1.7c-0.8,0.5-2,0.8-3.4,0.8
		c-1.4,0-2.4-0.4-3.2-1.3c-0.8-0.8-1.2-2-1.2-3.6c0-1.4,0.4-2.6,1.3-3.5c0.9-0.9,1.9-1.4,3.2-1.4s2.3,0.4,2.9,1.2s1,2,1,3.4V29.7z
		 M365.7,28.3c0-0.8-0.2-1.3-0.5-1.8c-0.4-0.4-0.8-0.6-1.5-0.6c-0.6,0-1.1,0.2-1.5,0.7c-0.4,0.4-0.7,1-0.8,1.7H365.7z"/>
	<path d="M379.8,33.7c-0.4,0.2-1,0.3-1.6,0.3c-1.8,0-2.7-0.9-2.7-2.6v-5.3h-1.6v-1.7h1.6v-2.2l2.1-0.6v2.8h2.2v1.7h-2.2v4.6
		c0,0.6,0.1,0.9,0.3,1.2c0.2,0.2,0.5,0.4,1,0.4c0.4,0,0.7-0.1,0.9-0.3V33.7z"/>
	<path d="M389.8,33.8h-2.1v-5.1c0-1.8-0.6-2.8-1.8-2.8c-0.6,0-1.1,0.3-1.6,0.8c-0.4,0.5-0.6,1.2-0.6,2v5h-2.1V20.1h2.1v6h0
		c0.7-1.2,1.7-1.8,3-1.8c2.1,0,3.1,1.3,3.1,3.8V33.8z"/>
	<path d="M400.3,29.7h-6.3c0,0.9,0.3,1.5,0.8,2c0.5,0.5,1.2,0.7,2.1,0.7c1,0,1.9-0.3,2.7-0.9v1.7c-0.8,0.5-2,0.8-3.4,0.8
		c-1.4,0-2.4-0.4-3.2-1.3c-0.8-0.8-1.2-2-1.2-3.6c0-1.4,0.4-2.6,1.3-3.5c0.9-0.9,1.9-1.4,3.2-1.4s2.3,0.4,2.9,1.2s1,2,1,3.4V29.7z
		 M398.2,28.3c0-0.8-0.2-1.3-0.5-1.8c-0.4-0.4-0.8-0.6-1.5-0.6c-0.6,0-1.1,0.2-1.5,0.7c-0.4,0.4-0.7,1-0.8,1.7H398.2z"/>
	<path d="M410.3,24.5l-4.2,10.8c-0.9,1.9-2.1,2.9-3.7,2.9c-0.4,0-0.8,0-1.1-0.1v-1.8c0.3,0.1,0.6,0.2,0.9,0.2c0.8,0,1.4-0.4,1.8-1.2
		l0.6-1.5l-3.7-9.3h2.3l2.2,6.8c0,0.1,0.1,0.3,0.2,0.7h0c0-0.1,0.1-0.4,0.2-0.7l2.3-6.8H410.3z"/>
	<path d="M193.2,46.8l-2.7,9.3h-2.2l-1.7-6.3c-0.1-0.2-0.1-0.5-0.1-0.8h0c0,0.2-0.1,0.5-0.2,0.8l-1.8,6.3h-2.2l-2.7-9.3h2.2l1.7,6.7
		c0.1,0.2,0.1,0.5,0.1,0.8h0.1c0-0.3,0.1-0.5,0.1-0.8l1.9-6.7h2l1.7,6.7c0.1,0.2,0.1,0.5,0.1,0.8h0.1c0-0.2,0.1-0.5,0.1-0.8l1.7-6.7
		H193.2z"/>
	<path d="M202.6,52h-6.3c0,0.9,0.3,1.5,0.8,2c0.5,0.5,1.2,0.7,2.1,0.7c1,0,1.9-0.3,2.7-0.9v1.7c-0.8,0.5-2,0.8-3.4,0.8
		c-1.4,0-2.4-0.4-3.2-1.3c-0.8-0.8-1.2-2-1.2-3.6c0-1.4,0.4-2.6,1.3-3.5c0.9-0.9,1.9-1.4,3.2-1.4s2.3,0.4,2.9,1.2s1,2,1,3.4V52z
		 M200.5,50.6c0-0.8-0.2-1.3-0.5-1.8c-0.4-0.4-0.8-0.6-1.5-0.6c-0.6,0-1.1,0.2-1.5,0.7c-0.4,0.4-0.7,1-0.8,1.7H200.5z"/>
	<path d="M210,48.8c-0.3-0.2-0.6-0.3-1.1-0.3c-0.6,0-1.1,0.3-1.6,0.8c-0.4,0.6-0.6,1.3-0.6,2.3v4.4h-2.1v-9.3h2.1v1.9h0
		c0.2-0.7,0.5-1.2,0.9-1.5s0.9-0.5,1.4-0.5c0.4,0,0.7,0.1,0.9,0.2V48.8z"/>
	<path d="M219.1,52h-6.3c0,0.9,0.3,1.5,0.8,2c0.5,0.5,1.2,0.7,2.1,0.7c1,0,1.9-0.3,2.7-0.9v1.7c-0.8,0.5-2,0.8-3.4,0.8
		c-1.4,0-2.4-0.4-3.2-1.3c-0.8-0.8-1.2-2-1.2-3.6c0-1.4,0.4-2.6,1.3-3.5c0.9-0.9,1.9-1.4,3.2-1.4s2.3,0.4,2.9,1.2s1,2,1,3.4V52z
		 M217.1,50.6c0-0.8-0.2-1.3-0.5-1.8c-0.4-0.4-0.8-0.6-1.5-0.6c-0.6,0-1.1,0.2-1.5,0.7c-0.4,0.4-0.7,1-0.8,1.7H217.1z"/>
	<path d="M231.2,56c-0.4,0.2-1,0.3-1.6,0.3c-1.8,0-2.7-0.9-2.7-2.6v-5.3h-1.6v-1.7h1.6v-2.2l2.1-0.6v2.8h2.2v1.7h-2.2v4.6
		c0,0.6,0.1,0.9,0.3,1.2c0.2,0.2,0.5,0.4,1,0.4c0.4,0,0.7-0.1,0.9-0.3V56z"/>
	<path d="M240.7,52h-6.3c0,0.9,0.3,1.5,0.8,2c0.5,0.5,1.2,0.7,2.1,0.7c1,0,1.9-0.3,2.7-0.9v1.7c-0.8,0.5-2,0.8-3.4,0.8
		c-1.4,0-2.4-0.4-3.2-1.3c-0.8-0.8-1.2-2-1.2-3.6c0-1.4,0.4-2.6,1.3-3.5c0.9-0.9,1.9-1.4,3.2-1.4s2.3,0.4,2.9,1.2s1,2,1,3.4V52z
		 M238.7,50.6c0-0.8-0.2-1.3-0.5-1.8c-0.4-0.4-0.8-0.6-1.5-0.6c-0.6,0-1.1,0.2-1.5,0.7c-0.4,0.4-0.7,1-0.8,1.7H238.7z"/>
	<path d="M249.4,55.7c-0.7,0.4-1.6,0.6-2.6,0.6c-1.4,0-2.5-0.4-3.3-1.3s-1.3-2-1.3-3.4c0-1.5,0.5-2.8,1.4-3.7
		c0.9-0.9,2.1-1.4,3.7-1.4c0.8,0,1.6,0.1,2.2,0.4v2c-0.6-0.5-1.3-0.7-2.1-0.7c-0.9,0-1.6,0.3-2.2,0.9c-0.6,0.6-0.9,1.4-0.9,2.4
		c0,1,0.3,1.7,0.8,2.3c0.5,0.6,1.3,0.8,2.2,0.8c0.8,0,1.5-0.3,2.1-0.8V55.7z"/>
	<path d="M259.7,56.1h-2.1V51c0-1.8-0.6-2.8-1.8-2.8c-0.6,0-1.1,0.3-1.6,0.8c-0.4,0.5-0.6,1.2-0.6,2v5h-2.1V42.4h2.1v6h0
		c0.7-1.2,1.7-1.8,3-1.8c2.1,0,3.1,1.3,3.1,3.8V56.1z"/>
	<path d="M274.1,55.7c-0.7,0.4-1.6,0.6-2.6,0.6c-1.4,0-2.5-0.4-3.3-1.3s-1.3-2-1.3-3.4c0-1.5,0.5-2.8,1.4-3.7
		c0.9-0.9,2.1-1.4,3.7-1.4c0.8,0,1.6,0.1,2.2,0.4v2c-0.6-0.5-1.3-0.7-2.1-0.7c-0.9,0-1.6,0.3-2.2,0.9c-0.6,0.6-0.9,1.4-0.9,2.4
		c0,1,0.3,1.7,0.8,2.3c0.5,0.6,1.3,0.8,2.2,0.8c0.8,0,1.5-0.3,2.1-0.8V55.7z"/>
	<path d="M280.3,56.3c-1.4,0-2.6-0.4-3.4-1.3c-0.9-0.9-1.3-2-1.3-3.5c0-1.6,0.4-2.8,1.3-3.7s2.1-1.3,3.6-1.3c1.5,0,2.6,0.4,3.4,1.3
		c0.8,0.9,1.2,2,1.2,3.5c0,1.5-0.4,2.7-1.3,3.6C282.9,55.9,281.8,56.3,280.3,56.3z M280.4,48.3c-0.8,0-1.5,0.3-2,0.9
		c-0.5,0.6-0.7,1.4-0.7,2.4c0,1,0.2,1.7,0.7,2.3c0.5,0.6,1.1,0.8,1.9,0.8c0.8,0,1.5-0.3,1.9-0.8c0.4-0.6,0.7-1.3,0.7-2.4
		c0-1-0.2-1.8-0.7-2.4C281.8,48.6,281.2,48.3,280.4,48.3z"/>
	<path d="M301.1,56.1H299v-5.1c0-1-0.1-1.7-0.4-2.1c-0.3-0.4-0.7-0.7-1.4-0.7c-0.6,0-1,0.3-1.4,0.8s-0.6,1.2-0.6,2v5h-2.1v-5.2
		c0-1.7-0.6-2.6-1.8-2.6c-0.6,0-1,0.3-1.4,0.8s-0.5,1.2-0.5,2v5h-2.1v-9.3h2.1v1.5h0c0.7-1.1,1.6-1.7,2.9-1.7c0.6,0,1.2,0.2,1.7,0.5
		s0.8,0.8,1,1.4c0.7-1.3,1.7-1.9,3.1-1.9c2,0,3.1,1.3,3.1,3.8V56.1z"/>
	<path d="M317.6,56.1h-2.1v-5.1c0-1-0.1-1.7-0.4-2.1c-0.3-0.4-0.7-0.7-1.4-0.7c-0.6,0-1,0.3-1.4,0.8s-0.6,1.2-0.6,2v5h-2.1v-5.2
		c0-1.7-0.6-2.6-1.8-2.6c-0.6,0-1,0.3-1.4,0.8s-0.5,1.2-0.5,2v5h-2.1v-9.3h2.1v1.5h0c0.7-1.1,1.6-1.7,2.9-1.7c0.6,0,1.2,0.2,1.7,0.5
		s0.8,0.8,1,1.4c0.7-1.3,1.7-1.9,3.1-1.9c2,0,3.1,1.3,3.1,3.8V56.1z"/>
	<path d="M324.7,55.8v-2c0.8,0.6,1.7,0.9,2.6,0.9c1.3,0,1.9-0.4,1.9-1.1c0-0.2-0.1-0.4-0.2-0.5s-0.3-0.3-0.4-0.4
		c-0.2-0.1-0.4-0.2-0.7-0.3c-0.3-0.1-0.5-0.2-0.8-0.3c-0.4-0.2-0.7-0.3-1-0.5s-0.6-0.4-0.8-0.6c-0.2-0.2-0.4-0.5-0.5-0.7
		c-0.1-0.3-0.2-0.6-0.2-1c0-0.4,0.1-0.8,0.3-1.2s0.5-0.6,0.9-0.9c0.4-0.2,0.8-0.4,1.2-0.5c0.5-0.1,0.9-0.2,1.4-0.2
		c0.9,0,1.6,0.1,2.3,0.4v1.8c-0.7-0.4-1.4-0.7-2.3-0.7c-0.3,0-0.5,0-0.7,0.1c-0.2,0.1-0.4,0.1-0.5,0.2c-0.2,0.1-0.3,0.2-0.4,0.3
		c-0.1,0.1-0.1,0.3-0.1,0.4c0,0.2,0,0.4,0.1,0.5c0.1,0.1,0.2,0.3,0.4,0.4c0.2,0.1,0.4,0.2,0.6,0.3c0.2,0.1,0.5,0.2,0.8,0.3
		c0.4,0.2,0.8,0.3,1.1,0.5c0.3,0.2,0.6,0.4,0.8,0.6c0.2,0.2,0.4,0.5,0.5,0.7c0.1,0.3,0.2,0.6,0.2,1c0,0.5-0.1,0.9-0.3,1.2
		c-0.2,0.4-0.5,0.6-0.9,0.9c-0.4,0.2-0.8,0.4-1.3,0.5c-0.5,0.1-1,0.2-1.5,0.2C326.3,56.3,325.5,56.2,324.7,55.8z"/>
	<path d="M338.2,56c-0.4,0.2-1,0.3-1.6,0.3c-1.8,0-2.7-0.9-2.7-2.6v-5.3h-1.6v-1.7h1.6v-2.2l2.1-0.6v2.8h2.2v1.7H336v4.6
		c0,0.6,0.1,0.9,0.3,1.2c0.2,0.2,0.5,0.4,1,0.4c0.4,0,0.7-0.1,0.9-0.3V56z"/>
	<path d="M348.1,56.1H346v-1.5h0c-0.6,1.1-1.6,1.7-2.8,1.7c-2.2,0-3.3-1.3-3.3-4v-5.6h2.1v5.3c0,1.7,0.6,2.5,1.9,2.5
		c0.6,0,1.1-0.2,1.5-0.7c0.4-0.5,0.6-1.1,0.6-1.8v-5.3h2.1V56.1z"/>
	<path d="M359.3,56.1h-2.1v-1.6h0c-0.7,1.2-1.7,1.8-3.1,1.8c-1.1,0-2.1-0.4-2.7-1.2c-0.7-0.8-1-2-1-3.4c0-1.5,0.4-2.8,1.1-3.7
		s1.8-1.4,3-1.4c1.3,0,2.2,0.5,2.7,1.5h0v-5.8h2.1V56.1z M357.2,51.9v-1.2c0-0.7-0.2-1.2-0.6-1.7s-1-0.7-1.6-0.7
		c-0.8,0-1.4,0.3-1.9,0.9c-0.5,0.6-0.7,1.4-0.7,2.4c0,0.9,0.2,1.7,0.6,2.2c0.4,0.5,1,0.8,1.7,0.8c0.7,0,1.3-0.3,1.8-0.8
		C357,53.3,357.2,52.7,357.2,51.9z"/>
	<path d="M369.9,52h-6.3c0,0.9,0.3,1.5,0.8,2c0.5,0.5,1.2,0.7,2.1,0.7c1,0,1.9-0.3,2.7-0.9v1.7c-0.8,0.5-2,0.8-3.4,0.8
		c-1.4,0-2.4-0.4-3.2-1.3c-0.8-0.8-1.2-2-1.2-3.6c0-1.4,0.4-2.6,1.3-3.5c0.9-0.9,1.9-1.4,3.2-1.4s2.3,0.4,2.9,1.2s1,2,1,3.4V52z
		 M367.9,50.6c0-0.8-0.2-1.3-0.5-1.8c-0.4-0.4-0.8-0.6-1.5-0.6c-0.6,0-1.1,0.2-1.5,0.7c-0.4,0.4-0.7,1-0.8,1.7H367.9z"/>
	<path d="M380.2,56.1h-2.1v-5.2c0-1.7-0.6-2.6-1.8-2.6c-0.6,0-1.2,0.2-1.6,0.7c-0.4,0.5-0.6,1.1-0.6,1.8v5.3h-2.1v-9.3h2.1v1.5h0
		c0.7-1.2,1.7-1.8,3-1.8c1,0,1.8,0.3,2.3,1c0.5,0.7,0.8,1.6,0.8,2.8V56.1z"/>
	<path d="M387.7,56c-0.4,0.2-1,0.3-1.6,0.3c-1.8,0-2.7-0.9-2.7-2.6v-5.3h-1.6v-1.7h1.6v-2.2l2.1-0.6v2.8h2.2v1.7h-2.2v4.6
		c0,0.6,0.1,0.9,0.3,1.2c0.2,0.2,0.5,0.4,1,0.4c0.4,0,0.7-0.1,0.9-0.3V56z"/>
	<path d="M388.9,55.8v-2c0.8,0.6,1.7,0.9,2.6,0.9c1.3,0,1.9-0.4,1.9-1.1c0-0.2-0.1-0.4-0.2-0.5s-0.3-0.3-0.4-0.4
		c-0.2-0.1-0.4-0.2-0.7-0.3c-0.3-0.1-0.5-0.2-0.8-0.3c-0.4-0.2-0.7-0.3-1-0.5s-0.6-0.4-0.8-0.6c-0.2-0.2-0.4-0.5-0.5-0.7
		c-0.1-0.3-0.2-0.6-0.2-1c0-0.4,0.1-0.8,0.3-1.2s0.5-0.6,0.9-0.9c0.4-0.2,0.8-0.4,1.2-0.5c0.5-0.1,0.9-0.2,1.4-0.2
		c0.9,0,1.6,0.1,2.3,0.4v1.8c-0.7-0.4-1.4-0.7-2.3-0.7c-0.3,0-0.5,0-0.7,0.1c-0.2,0.1-0.4,0.1-0.5,0.2c-0.2,0.1-0.3,0.2-0.4,0.3
		c-0.1,0.1-0.1,0.3-0.1,0.4c0,0.2,0,0.4,0.1,0.5c0.1,0.1,0.2,0.3,0.4,0.4c0.2,0.1,0.4,0.2,0.6,0.3c0.2,0.1,0.5,0.2,0.8,0.3
		c0.4,0.2,0.8,0.3,1.1,0.5c0.3,0.2,0.6,0.4,0.8,0.6c0.2,0.2,0.4,0.5,0.5,0.7c0.1,0.3,0.2,0.6,0.2,1c0,0.5-0.1,0.9-0.3,1.2
		c-0.2,0.4-0.5,0.6-0.9,0.9c-0.4,0.2-0.8,0.4-1.3,0.5c-0.5,0.1-1,0.2-1.5,0.2C390.6,56.3,389.7,56.2,388.9,55.8z"/>
</g>
<g>
	<path d="M596.4,31.3v-2.2c0.2,0.2,0.4,0.3,0.7,0.5c0.3,0.1,0.6,0.3,0.9,0.4c0.3,0.1,0.6,0.2,0.9,0.2c0.3,0.1,0.6,0.1,0.9,0.1
		c0.9,0,1.6-0.2,2-0.5s0.7-0.7,0.7-1.3c0-0.3-0.1-0.6-0.2-0.8c-0.1-0.2-0.4-0.4-0.6-0.6c-0.3-0.2-0.6-0.4-0.9-0.5
		c-0.4-0.2-0.7-0.4-1.2-0.5c-0.4-0.2-0.9-0.5-1.2-0.7c-0.4-0.2-0.7-0.5-1-0.8s-0.5-0.6-0.7-1s-0.2-0.8-0.2-1.3
		c0-0.6,0.1-1.1,0.4-1.6s0.6-0.8,1.1-1.1c0.5-0.3,1-0.5,1.5-0.7c0.6-0.1,1.2-0.2,1.8-0.2c1.4,0,2.4,0.2,3,0.5v2.1
		c-0.7-0.5-1.7-0.8-2.9-0.8c-0.3,0-0.6,0-1,0.1s-0.6,0.2-0.9,0.3c-0.3,0.1-0.5,0.3-0.6,0.5s-0.2,0.5-0.2,0.8c0,0.3,0.1,0.5,0.2,0.8
		c0.1,0.2,0.3,0.4,0.5,0.6c0.2,0.2,0.5,0.3,0.9,0.5s0.7,0.3,1.2,0.5c0.5,0.2,0.9,0.5,1.3,0.7s0.8,0.5,1.1,0.9s0.5,0.7,0.7,1
		c0.2,0.4,0.3,0.8,0.3,1.3c0,0.7-0.1,1.2-0.4,1.7c-0.3,0.5-0.6,0.8-1.1,1.1c-0.5,0.3-1,0.5-1.6,0.6s-1.2,0.2-1.9,0.2
		c-0.2,0-0.5,0-0.8,0c-0.3,0-0.6-0.1-1-0.1c-0.3-0.1-0.6-0.1-0.9-0.2C596.8,31.5,596.5,31.4,596.4,31.3z"/>
	<path d="M611.2,31.7c-0.4,0.2-1,0.3-1.6,0.3c-1.8,0-2.7-0.9-2.7-2.6v-5.3h-1.6v-1.7h1.6v-2.2l2.1-0.6v2.8h2.2v1.7H609v4.6
		c0,0.6,0.1,0.9,0.3,1.2c0.2,0.2,0.5,0.4,1,0.4c0.4,0,0.7-0.1,0.9-0.3V31.7z"/>
	<path d="M621.1,31.8H619v-1.5h0c-0.6,1.1-1.6,1.7-2.8,1.7c-2.2,0-3.3-1.3-3.3-4v-5.6h2.1v5.3c0,1.7,0.6,2.5,1.9,2.5
		c0.6,0,1.1-0.2,1.5-0.7c0.4-0.5,0.6-1.1,0.6-1.8v-5.3h2.1V31.8z"/>
	<path d="M632.3,31.8h-2.1v-1.6h0c-0.7,1.2-1.7,1.8-3.1,1.8c-1.1,0-2.1-0.4-2.7-1.2c-0.7-0.8-1-2-1-3.4c0-1.5,0.4-2.8,1.1-3.7
		s1.8-1.4,3-1.4c1.3,0,2.2,0.5,2.7,1.5h0v-5.8h2.1V31.8z M630.2,27.6v-1.2c0-0.7-0.2-1.2-0.6-1.7s-1-0.7-1.6-0.7
		c-0.8,0-1.4,0.3-1.9,0.9c-0.5,0.6-0.7,1.4-0.7,2.4c0,0.9,0.2,1.7,0.6,2.2c0.4,0.5,1,0.8,1.7,0.8c0.7,0,1.3-0.3,1.8-0.8
		C630,29,630.2,28.4,630.2,27.6z"/>
	<path d="M642.9,27.7h-6.3c0,0.9,0.3,1.5,0.8,2c0.5,0.5,1.2,0.7,2.1,0.7c1,0,1.9-0.3,2.7-0.9v1.7c-0.8,0.5-2,0.8-3.4,0.8
		c-1.4,0-2.4-0.4-3.2-1.3c-0.8-0.8-1.2-2-1.2-3.6c0-1.4,0.4-2.6,1.3-3.5c0.9-0.9,1.9-1.4,3.2-1.4s2.3,0.4,2.9,1.2s1,2,1,3.4V27.7z
		 M640.9,26.3c0-0.8-0.2-1.3-0.5-1.8c-0.4-0.4-0.8-0.6-1.5-0.6c-0.6,0-1.1,0.2-1.5,0.7c-0.4,0.4-0.7,1-0.8,1.7H640.9z"/>
	<path d="M653.2,31.8h-2.1v-5.2c0-1.7-0.6-2.6-1.8-2.6c-0.6,0-1.2,0.2-1.6,0.7c-0.4,0.5-0.6,1.1-0.6,1.8v5.3h-2.1v-9.3h2.1v1.5h0
		c0.7-1.2,1.7-1.8,3-1.8c1,0,1.8,0.3,2.3,1c0.5,0.7,0.8,1.6,0.8,2.8V31.8z"/>
	<path d="M660.7,31.7c-0.4,0.2-1,0.3-1.6,0.3c-1.8,0-2.7-0.9-2.7-2.6v-5.3h-1.6v-1.7h1.6v-2.2l2.1-0.6v2.8h2.2v1.7h-2.2v4.6
		c0,0.6,0.1,0.9,0.3,1.2c0.2,0.2,0.5,0.4,1,0.4c0.4,0,0.7-0.1,0.9-0.3V31.7z"/>
	<path d="M661.9,31.5v-2c0.8,0.6,1.7,0.9,2.6,0.9c1.3,0,1.9-0.4,1.9-1.1c0-0.2-0.1-0.4-0.2-0.5s-0.3-0.3-0.4-0.4
		c-0.2-0.1-0.4-0.2-0.7-0.3c-0.3-0.1-0.5-0.2-0.8-0.3c-0.4-0.2-0.7-0.3-1-0.5s-0.6-0.4-0.8-0.6c-0.2-0.2-0.4-0.5-0.5-0.7
		c-0.1-0.3-0.2-0.6-0.2-1c0-0.4,0.1-0.8,0.3-1.2s0.5-0.6,0.9-0.9c0.4-0.2,0.8-0.4,1.2-0.5c0.5-0.1,0.9-0.2,1.4-0.2
		c0.9,0,1.6,0.1,2.3,0.4v1.8c-0.7-0.4-1.4-0.7-2.3-0.7c-0.3,0-0.5,0-0.7,0.1c-0.2,0.1-0.4,0.1-0.5,0.2c-0.2,0.1-0.3,0.2-0.4,0.3
		c-0.1,0.1-0.1,0.3-0.1,0.4c0,0.2,0,0.4,0.1,0.5c0.1,0.1,0.2,0.3,0.4,0.4c0.2,0.1,0.4,0.2,0.6,0.3c0.2,0.1,0.5,0.2,0.8,0.3
		c0.4,0.2,0.8,0.3,1.1,0.5c0.3,0.2,0.6,0.4,0.8,0.6c0.2,0.2,0.4,0.5,0.5,0.7c0.1,0.3,0.2,0.6,0.2,1c0,0.5-0.1,0.9-0.3,1.2
		c-0.2,0.4-0.5,0.6-0.9,0.9c-0.4,0.2-0.8,0.4-1.3,0.5c-0.5,0.1-1,0.2-1.5,0.2C663.5,32,662.7,31.9,661.9,31.5z"/>
	<path d="M688.1,22.5l-2.7,9.3h-2.2l-1.7-6.3c-0.1-0.2-0.1-0.5-0.1-0.8h0c0,0.2-0.1,0.5-0.2,0.8l-1.8,6.3h-2.2l-2.7-9.3h2.2l1.7,6.7
		c0.1,0.2,0.1,0.5,0.1,0.8h0.1c0-0.3,0.1-0.5,0.1-0.8l1.9-6.7h2l1.7,6.7c0.1,0.2,0.1,0.5,0.1,0.8h0.1c0-0.2,0.1-0.5,0.1-0.8l1.7-6.7
		H688.1z"/>
	<path d="M697.9,31.8h-2.1v-5.1c0-1.8-0.6-2.8-1.8-2.8c-0.6,0-1.1,0.3-1.6,0.8c-0.4,0.5-0.6,1.2-0.6,2v5h-2.1V18.1h2.1v6h0
		c0.7-1.2,1.7-1.8,3-1.8c2.1,0,3.1,1.3,3.1,3.8V31.8z"/>
	<path d="M708.4,27.7H702c0,0.9,0.3,1.5,0.8,2c0.5,0.5,1.2,0.7,2.1,0.7c1,0,1.9-0.3,2.7-0.9v1.7c-0.8,0.5-2,0.8-3.4,0.8
		c-1.4,0-2.4-0.4-3.2-1.3c-0.8-0.8-1.2-2-1.2-3.6c0-1.4,0.4-2.6,1.3-3.5c0.9-0.9,1.9-1.4,3.2-1.4c1.3,0,2.3,0.4,3,1.2s1,2,1,3.4
		V27.7z M706.3,26.3c0-0.8-0.2-1.3-0.5-1.8c-0.4-0.4-0.8-0.6-1.5-0.6c-0.6,0-1.1,0.2-1.5,0.7c-0.4,0.4-0.7,1-0.8,1.7H706.3z"/>
	<path d="M718.7,31.8h-2.1v-5.2c0-1.7-0.6-2.6-1.8-2.6c-0.6,0-1.2,0.2-1.6,0.7c-0.4,0.5-0.6,1.1-0.6,1.8v5.3h-2.1v-9.3h2.1v1.5h0
		c0.7-1.2,1.7-1.8,3-1.8c1,0,1.8,0.3,2.3,1c0.5,0.7,0.8,1.6,0.8,2.8V31.8z"/>
	<path d="M731.2,31.7c-0.4,0.2-1,0.3-1.6,0.3c-1.8,0-2.7-0.9-2.7-2.6v-5.3h-1.6v-1.7h1.6v-2.2l2.1-0.6v2.8h2.2v1.7H729v4.6
		c0,0.6,0.1,0.9,0.3,1.2c0.2,0.2,0.5,0.4,1,0.4c0.4,0,0.7-0.1,0.9-0.3V31.7z"/>
	<path d="M741.3,31.8h-2.1v-5.1c0-1.8-0.6-2.8-1.8-2.8c-0.6,0-1.1,0.3-1.6,0.8c-0.4,0.5-0.6,1.2-0.6,2v5h-2.1V18.1h2.1v6h0
		c0.7-1.2,1.7-1.8,3-1.8c2.1,0,3.1,1.3,3.1,3.8V31.8z"/>
	<path d="M751.7,27.7h-6.3c0,0.9,0.3,1.5,0.8,2c0.5,0.5,1.2,0.7,2.1,0.7c1,0,1.9-0.3,2.7-0.9v1.7c-0.8,0.5-2,0.8-3.4,0.8
		c-1.4,0-2.4-0.4-3.2-1.3s-1.2-2-1.2-3.6c0-1.4,0.4-2.6,1.3-3.5s1.9-1.4,3.2-1.4s2.3,0.4,2.9,1.2c0.7,0.8,1,2,1,3.4V27.7z
		 M749.7,26.3c0-0.8-0.2-1.3-0.5-1.8s-0.8-0.6-1.5-0.6c-0.6,0-1.1,0.2-1.5,0.7c-0.4,0.4-0.7,1-0.8,1.7H749.7z"/>
	<path d="M761.8,22.5l-4.2,10.8c-0.9,1.9-2.1,2.9-3.7,2.9c-0.4,0-0.8,0-1.1-0.1v-1.8c0.3,0.1,0.6,0.2,0.9,0.2c0.8,0,1.4-0.4,1.8-1.2
		l0.6-1.5l-3.7-9.3h2.3l2.2,6.8c0,0.1,0.1,0.3,0.2,0.7h0c0-0.1,0.1-0.4,0.2-0.7l2.3-6.8H761.8z"/>
	<path d="M770.4,30.5L770.4,30.5l0,1.3h-2.1V18.1h2.1v6.1h0c0.7-1.2,1.8-1.9,3.2-1.9c1.2,0,2.1,0.4,2.8,1.2c0.7,0.8,1,1.9,1,3.3
		c0,1.6-0.4,2.8-1.1,3.7c-0.7,0.9-1.8,1.4-3,1.4C772,32,771.1,31.5,770.4,30.5z M770.4,26.8v1.2c0,0.7,0.2,1.3,0.6,1.7
		s1,0.7,1.6,0.7c0.8,0,1.4-0.3,1.8-0.9c0.4-0.6,0.7-1.5,0.7-2.5c0-0.9-0.2-1.6-0.6-2.1c-0.4-0.5-1-0.8-1.7-0.8
		c-0.8,0-1.4,0.3-1.8,0.8C770.6,25.3,770.4,26,770.4,26.8z"/>
	<path d="M787.4,27.7H781c0,0.9,0.3,1.5,0.8,2c0.5,0.5,1.2,0.7,2.1,0.7c1,0,1.9-0.3,2.7-0.9v1.7c-0.8,0.5-2,0.8-3.4,0.8
		c-1.4,0-2.4-0.4-3.2-1.3c-0.8-0.8-1.2-2-1.2-3.6c0-1.4,0.4-2.6,1.3-3.5c0.9-0.9,1.9-1.4,3.2-1.4c1.3,0,2.3,0.4,3,1.2s1,2,1,3.4
		V27.7z M785.3,26.3c0-0.8-0.2-1.3-0.5-1.8c-0.4-0.4-0.8-0.6-1.5-0.6c-0.6,0-1.1,0.2-1.5,0.7c-0.4,0.4-0.7,1-0.8,1.7H785.3z"/>
	<path d="M796,31.4c-0.7,0.4-1.6,0.6-2.6,0.6c-1.4,0-2.5-0.4-3.3-1.3c-0.8-0.9-1.3-2-1.3-3.4c0-1.5,0.5-2.8,1.4-3.7
		c0.9-0.9,2.1-1.4,3.7-1.4c0.8,0,1.6,0.1,2.2,0.4v2c-0.6-0.5-1.3-0.7-2.1-0.7c-0.9,0-1.6,0.3-2.2,0.9c-0.6,0.6-0.9,1.4-0.9,2.4
		c0,1,0.3,1.7,0.8,2.3s1.3,0.8,2.2,0.8c0.8,0,1.5-0.3,2.1-0.8V31.4z"/>
	<path d="M805.3,31.8h-2v-1.5h0c-0.6,1.1-1.6,1.7-2.8,1.7c-0.9,0-1.6-0.2-2.1-0.7c-0.5-0.5-0.8-1.2-0.8-2c0-1.8,1-2.8,3-3.1l2.8-0.4
		c0-1.3-0.6-2-1.9-2c-1.1,0-2.1,0.4-3,1.1v-1.8c1-0.6,2.1-0.9,3.4-0.9c2.3,0,3.5,1.2,3.5,3.5V31.8z M803.2,27.3l-2,0.3
		c-0.6,0.1-1.1,0.2-1.4,0.4c-0.3,0.2-0.5,0.6-0.5,1.1c0,0.4,0.1,0.7,0.4,1c0.3,0.3,0.7,0.4,1.1,0.4c0.6,0,1.2-0.2,1.6-0.7
		c0.4-0.5,0.6-1,0.6-1.7V27.3z"/>
	<path d="M821.7,31.8h-2.1v-5.1c0-1-0.1-1.7-0.4-2.1c-0.3-0.4-0.7-0.7-1.4-0.7c-0.6,0-1,0.3-1.4,0.8s-0.6,1.2-0.6,2v5h-2.1v-5.2
		c0-1.7-0.6-2.6-1.8-2.6c-0.6,0-1,0.3-1.4,0.8s-0.5,1.2-0.5,2v5h-2.1v-9.3h2.1V24h0c0.7-1.1,1.6-1.7,2.9-1.7c0.6,0,1.2,0.2,1.7,0.5
		s0.8,0.8,1,1.4c0.7-1.3,1.7-1.9,3.1-1.9c2,0,3.1,1.3,3.1,3.8V31.8z"/>
	<path d="M832.2,27.7h-6.3c0,0.9,0.3,1.5,0.8,2c0.5,0.5,1.2,0.7,2.1,0.7c1,0,1.9-0.3,2.7-0.9v1.7c-0.8,0.5-2,0.8-3.4,0.8
		c-1.4,0-2.4-0.4-3.2-1.3s-1.2-2-1.2-3.6c0-1.4,0.4-2.6,1.3-3.5s1.9-1.4,3.2-1.4s2.3,0.4,2.9,1.2c0.7,0.8,1,2,1,3.4V27.7z
		 M830.1,26.3c0-0.8-0.2-1.3-0.5-1.8s-0.8-0.6-1.5-0.6c-0.6,0-1.1,0.2-1.5,0.7c-0.4,0.4-0.7,1-0.8,1.7H830.1z"/>
	<path d="M844.2,31.7c-0.4,0.2-1,0.3-1.6,0.3c-1.8,0-2.7-0.9-2.7-2.6v-5.3h-1.6v-1.7h1.6v-2.2l2.1-0.6v2.8h2.2v1.7h-2.2v4.6
		c0,0.6,0.1,0.9,0.3,1.2c0.2,0.2,0.5,0.4,1,0.4c0.4,0,0.7-0.1,0.9-0.3V31.7z"/>
	<path d="M853.7,27.7h-6.3c0,0.9,0.3,1.5,0.8,2c0.5,0.5,1.2,0.7,2.1,0.7c1,0,1.9-0.3,2.7-0.9v1.7c-0.8,0.5-2,0.8-3.4,0.8
		c-1.4,0-2.4-0.4-3.2-1.3c-0.8-0.8-1.2-2-1.2-3.6c0-1.4,0.4-2.6,1.3-3.5c0.9-0.9,1.9-1.4,3.2-1.4c1.3,0,2.3,0.4,3,1.2s1,2,1,3.4
		V27.7z M851.7,26.3c0-0.8-0.2-1.3-0.5-1.8c-0.4-0.4-0.8-0.6-1.5-0.6c-0.6,0-1.1,0.2-1.5,0.7c-0.4,0.4-0.7,1-0.8,1.7H851.7z"/>
	<path d="M862.4,31.4c-0.7,0.4-1.6,0.6-2.6,0.6c-1.4,0-2.5-0.4-3.3-1.3c-0.8-0.9-1.3-2-1.3-3.4c0-1.5,0.5-2.8,1.4-3.7
		c0.9-0.9,2.1-1.4,3.7-1.4c0.8,0,1.6,0.1,2.2,0.4v2c-0.6-0.5-1.3-0.7-2.1-0.7c-0.9,0-1.6,0.3-2.2,0.9c-0.6,0.6-0.9,1.4-0.9,2.4
		c0,1,0.3,1.7,0.8,2.3s1.3,0.8,2.2,0.8c0.8,0,1.5-0.3,2.1-0.8V31.4z"/>
	<path d="M872.8,31.8h-2.1v-5.1c0-1.8-0.6-2.8-1.8-2.8c-0.6,0-1.1,0.3-1.6,0.8c-0.4,0.5-0.6,1.2-0.6,2v5h-2.1V18.1h2.1v6h0
		c0.7-1.2,1.7-1.8,3-1.8c2.1,0,3.1,1.3,3.1,3.8V31.8z"/>
	<path d="M603.4,53.7c-0.7,0.4-1.6,0.6-2.6,0.6c-1.4,0-2.5-0.4-3.3-1.3s-1.3-2-1.3-3.4c0-1.5,0.5-2.8,1.4-3.7
		c0.9-0.9,2.1-1.4,3.7-1.4c0.8,0,1.6,0.1,2.2,0.4v2c-0.6-0.5-1.3-0.7-2.1-0.7c-0.9,0-1.6,0.3-2.2,0.9c-0.6,0.6-0.9,1.4-0.9,2.4
		c0,1,0.3,1.7,0.8,2.3c0.5,0.6,1.3,0.8,2.2,0.8c0.8,0,1.5-0.3,2.1-0.8V53.7z"/>
	<path d="M609.6,54.3c-1.4,0-2.6-0.4-3.4-1.3c-0.9-0.9-1.3-2-1.3-3.5c0-1.6,0.4-2.8,1.3-3.7s2.1-1.3,3.6-1.3c1.5,0,2.6,0.4,3.4,1.3
		c0.8,0.9,1.2,2,1.2,3.5c0,1.5-0.4,2.7-1.3,3.6C612.2,53.9,611.1,54.3,609.6,54.3z M609.7,46.3c-0.8,0-1.5,0.3-2,0.9
		c-0.5,0.6-0.7,1.4-0.7,2.4c0,1,0.2,1.7,0.7,2.3c0.5,0.6,1.1,0.8,1.9,0.8c0.8,0,1.5-0.3,1.9-0.8c0.4-0.6,0.7-1.3,0.7-2.4
		c0-1-0.2-1.8-0.7-2.4C611.1,46.6,610.5,46.3,609.7,46.3z"/>
	<path d="M630.5,54.1h-2.1v-5.1c0-1-0.1-1.7-0.4-2.1c-0.3-0.4-0.7-0.7-1.4-0.7c-0.6,0-1,0.3-1.4,0.8s-0.6,1.2-0.6,2v5h-2.1v-5.2
		c0-1.7-0.6-2.6-1.8-2.6c-0.6,0-1,0.3-1.4,0.8s-0.5,1.2-0.5,2v5h-2.1v-9.3h2.1v1.5h0c0.7-1.1,1.6-1.7,2.9-1.7c0.6,0,1.2,0.2,1.7,0.5
		s0.8,0.8,1,1.4c0.7-1.3,1.7-1.9,3.1-1.9c2,0,3.1,1.3,3.1,3.8V54.1z"/>
	<path d="M646.9,54.1h-2.1v-5.1c0-1-0.1-1.7-0.4-2.1c-0.3-0.4-0.7-0.7-1.4-0.7c-0.6,0-1,0.3-1.4,0.8s-0.6,1.2-0.6,2v5h-2.1v-5.2
		c0-1.7-0.6-2.6-1.8-2.6c-0.6,0-1,0.3-1.4,0.8s-0.5,1.2-0.5,2v5H633v-9.3h2.1v1.5h0c0.7-1.1,1.6-1.7,2.9-1.7c0.6,0,1.2,0.2,1.7,0.5
		s0.8,0.8,1,1.4c0.7-1.3,1.7-1.9,3.1-1.9c2,0,3.1,1.3,3.1,3.8V54.1z"/>
	<path d="M654,53.8v-2c0.8,0.6,1.7,0.9,2.6,0.9c1.3,0,1.9-0.4,1.9-1.1c0-0.2-0.1-0.4-0.2-0.5s-0.3-0.3-0.4-0.4
		c-0.2-0.1-0.4-0.2-0.7-0.3c-0.3-0.1-0.5-0.2-0.8-0.3c-0.4-0.2-0.7-0.3-1-0.5s-0.6-0.4-0.8-0.6c-0.2-0.2-0.4-0.5-0.5-0.7
		c-0.1-0.3-0.2-0.6-0.2-1c0-0.4,0.1-0.8,0.3-1.2s0.5-0.6,0.9-0.9c0.4-0.2,0.8-0.4,1.2-0.5c0.5-0.1,0.9-0.2,1.4-0.2
		c0.9,0,1.6,0.1,2.3,0.4v1.8c-0.7-0.4-1.4-0.7-2.3-0.7c-0.3,0-0.5,0-0.7,0.1c-0.2,0.1-0.4,0.1-0.5,0.2c-0.2,0.1-0.3,0.2-0.4,0.3
		c-0.1,0.1-0.1,0.3-0.1,0.4c0,0.2,0,0.4,0.1,0.5c0.1,0.1,0.2,0.3,0.4,0.4c0.2,0.1,0.4,0.2,0.6,0.3c0.2,0.1,0.5,0.2,0.8,0.3
		c0.4,0.2,0.8,0.3,1.1,0.5c0.3,0.2,0.6,0.4,0.8,0.6c0.2,0.2,0.4,0.5,0.5,0.7c0.1,0.3,0.2,0.6,0.2,1c0,0.5-0.1,0.9-0.3,1.2
		c-0.2,0.4-0.5,0.6-0.9,0.9c-0.4,0.2-0.8,0.4-1.3,0.5c-0.5,0.1-1,0.2-1.5,0.2C655.6,54.3,654.8,54.2,654,53.8z"/>
	<path d="M667.5,54c-0.4,0.2-1,0.3-1.6,0.3c-1.8,0-2.7-0.9-2.7-2.6v-5.3h-1.6v-1.7h1.6v-2.2l2.1-0.6v2.8h2.2v1.7h-2.2v4.6
		c0,0.6,0.1,0.9,0.3,1.2c0.2,0.2,0.5,0.4,1,0.4c0.4,0,0.7-0.1,0.9-0.3V54z"/>
	<path d="M677.4,54.1h-2.1v-1.5h0c-0.6,1.1-1.6,1.7-2.8,1.7c-2.2,0-3.3-1.3-3.3-4v-5.6h2.1v5.3c0,1.7,0.6,2.5,1.9,2.5
		c0.6,0,1.1-0.2,1.5-0.7c0.4-0.5,0.6-1.1,0.6-1.8v-5.3h2.1V54.1z"/>
	<path d="M688.6,54.1h-2.1v-1.6h0c-0.7,1.2-1.7,1.8-3.1,1.8c-1.1,0-2.1-0.4-2.7-1.2c-0.7-0.8-1-2-1-3.4c0-1.5,0.4-2.8,1.1-3.7
		s1.8-1.4,3-1.4c1.3,0,2.2,0.5,2.7,1.5h0v-5.8h2.1V54.1z M686.5,49.9v-1.2c0-0.7-0.2-1.2-0.6-1.7s-1-0.7-1.6-0.7
		c-0.8,0-1.4,0.3-1.9,0.9c-0.5,0.6-0.7,1.4-0.7,2.4c0,0.9,0.2,1.7,0.6,2.2c0.4,0.5,1,0.8,1.7,0.8c0.7,0,1.3-0.3,1.8-0.8
		C686.3,51.3,686.5,50.7,686.5,49.9z"/>
	<path d="M699.2,50h-6.3c0,0.9,0.3,1.5,0.8,2c0.5,0.5,1.2,0.7,2.1,0.7c1,0,1.9-0.3,2.7-0.9v1.7c-0.8,0.5-2,0.8-3.4,0.8
		c-1.4,0-2.4-0.4-3.2-1.3c-0.8-0.8-1.2-2-1.2-3.6c0-1.4,0.4-2.6,1.3-3.5c0.9-0.9,1.9-1.4,3.2-1.4c1.3,0,2.3,0.4,3,1.2s1,2,1,3.4V50z
		 M697.2,48.6c0-0.8-0.2-1.3-0.5-1.8c-0.4-0.4-0.8-0.6-1.5-0.6c-0.6,0-1.1,0.2-1.5,0.7c-0.4,0.4-0.7,1-0.8,1.7H697.2z"/>
	<path d="M709.5,54.1h-2.1v-5.2c0-1.7-0.6-2.6-1.8-2.6c-0.6,0-1.2,0.2-1.6,0.7c-0.4,0.5-0.6,1.1-0.6,1.8v5.3h-2.1v-9.3h2.1v1.5h0
		c0.7-1.2,1.7-1.8,3-1.8c1,0,1.8,0.3,2.3,1c0.5,0.7,0.8,1.6,0.8,2.8V54.1z"/>
	<path d="M717,54c-0.4,0.2-1,0.3-1.6,0.3c-1.8,0-2.7-0.9-2.7-2.6v-5.3h-1.6v-1.7h1.6v-2.2l2.1-0.6v2.8h2.2v1.7h-2.2v4.6
		c0,0.6,0.1,0.9,0.3,1.2c0.2,0.2,0.5,0.4,1,0.4c0.4,0,0.7-0.1,0.9-0.3V54z"/>
	<path d="M718.2,53.8v-2c0.8,0.6,1.7,0.9,2.6,0.9c1.3,0,1.9-0.4,1.9-1.1c0-0.2-0.1-0.4-0.2-0.5s-0.3-0.3-0.4-0.4
		c-0.2-0.1-0.4-0.2-0.7-0.3c-0.3-0.1-0.5-0.2-0.8-0.3c-0.4-0.2-0.7-0.3-1-0.5c-0.3-0.2-0.6-0.4-0.8-0.6s-0.4-0.5-0.5-0.7
		c-0.1-0.3-0.2-0.6-0.2-1c0-0.4,0.1-0.8,0.3-1.2c0.2-0.3,0.5-0.6,0.9-0.9c0.4-0.2,0.8-0.4,1.2-0.5c0.5-0.1,0.9-0.2,1.4-0.2
		c0.9,0,1.6,0.1,2.3,0.4v1.8c-0.7-0.4-1.4-0.7-2.3-0.7c-0.3,0-0.5,0-0.7,0.1c-0.2,0.1-0.4,0.1-0.5,0.2c-0.2,0.1-0.3,0.2-0.4,0.3
		c-0.1,0.1-0.1,0.3-0.1,0.4c0,0.2,0,0.4,0.1,0.5c0.1,0.1,0.2,0.3,0.4,0.4c0.2,0.1,0.4,0.2,0.6,0.3c0.2,0.1,0.5,0.2,0.8,0.3
		c0.4,0.2,0.8,0.3,1.1,0.5c0.3,0.2,0.6,0.4,0.8,0.6c0.2,0.2,0.4,0.5,0.5,0.7c0.1,0.3,0.2,0.6,0.2,1c0,0.5-0.1,0.9-0.3,1.2
		c-0.2,0.4-0.5,0.6-0.9,0.9c-0.4,0.2-0.8,0.4-1.3,0.5s-1,0.2-1.5,0.2C719.9,54.3,719,54.2,718.2,53.8z"/>
</g>
<g>
	<path d="M1063.4,30.3v-2.2c0.2,0.2,0.4,0.3,0.7,0.5c0.3,0.1,0.6,0.3,0.9,0.4c0.3,0.1,0.6,0.2,0.9,0.2c0.3,0.1,0.6,0.1,0.9,0.1
		c0.9,0,1.6-0.2,2-0.5s0.7-0.7,0.7-1.3c0-0.3-0.1-0.6-0.2-0.8c-0.1-0.2-0.4-0.4-0.6-0.6c-0.3-0.2-0.6-0.4-0.9-0.5
		c-0.4-0.2-0.7-0.4-1.2-0.5c-0.4-0.2-0.9-0.5-1.2-0.7c-0.4-0.2-0.7-0.5-1-0.8s-0.5-0.6-0.7-1s-0.2-0.8-0.2-1.3
		c0-0.6,0.1-1.1,0.4-1.6s0.6-0.8,1.1-1.1c0.5-0.3,1-0.5,1.5-0.7c0.6-0.1,1.2-0.2,1.8-0.2c1.4,0,2.4,0.2,3,0.5v2.1
		c-0.7-0.5-1.7-0.8-2.9-0.8c-0.3,0-0.6,0-1,0.1c-0.3,0.1-0.6,0.2-0.9,0.3s-0.5,0.3-0.6,0.5c-0.2,0.2-0.2,0.5-0.2,0.8
		c0,0.3,0.1,0.5,0.2,0.8s0.3,0.4,0.5,0.6c0.2,0.2,0.5,0.3,0.9,0.5s0.7,0.3,1.2,0.5c0.5,0.2,0.9,0.5,1.3,0.7s0.8,0.5,1.1,0.9
		s0.5,0.7,0.7,1c0.2,0.4,0.3,0.8,0.3,1.3c0,0.7-0.1,1.2-0.4,1.7c-0.3,0.5-0.6,0.8-1.1,1.1c-0.5,0.3-1,0.5-1.6,0.6
		c-0.6,0.1-1.2,0.2-1.9,0.2c-0.2,0-0.5,0-0.8,0c-0.3,0-0.6-0.1-1-0.1c-0.3-0.1-0.6-0.1-0.9-0.2C1063.8,30.5,1063.5,30.4,1063.4,30.3
		z"/>
	<path d="M1078.2,30.7c-0.4,0.2-1,0.3-1.6,0.3c-1.8,0-2.7-0.9-2.7-2.6v-5.3h-1.6v-1.7h1.6v-2.2l2.1-0.6v2.8h2.2v1.7h-2.2v4.6
		c0,0.6,0.1,0.9,0.3,1.2c0.2,0.2,0.5,0.4,1,0.4c0.4,0,0.7-0.1,0.9-0.3V30.7z"/>
	<path d="M1088.1,30.8h-2.1v-1.5h0c-0.6,1.1-1.6,1.7-2.8,1.7c-2.2,0-3.3-1.3-3.3-4v-5.6h2.1v5.3c0,1.7,0.6,2.5,1.9,2.5
		c0.6,0,1.1-0.2,1.5-0.7c0.4-0.5,0.6-1.1,0.6-1.8v-5.3h2.1V30.8z"/>
	<path d="M1099.3,30.8h-2.1v-1.6h0c-0.7,1.2-1.7,1.8-3.1,1.8c-1.1,0-2.1-0.4-2.7-1.2c-0.7-0.8-1-2-1-3.4c0-1.5,0.4-2.8,1.1-3.7
		c0.8-0.9,1.8-1.4,3-1.4c1.3,0,2.2,0.5,2.7,1.5h0v-5.8h2.1V30.8z M1097.2,26.6v-1.2c0-0.7-0.2-1.2-0.6-1.7s-1-0.7-1.6-0.7
		c-0.8,0-1.4,0.3-1.9,0.9c-0.5,0.6-0.7,1.4-0.7,2.4c0,0.9,0.2,1.7,0.6,2.2c0.4,0.5,1,0.8,1.7,0.8c0.7,0,1.3-0.3,1.8-0.8
		C1097,28,1097.2,27.4,1097.2,26.6z"/>
	<path d="M1109.9,26.7h-6.3c0,0.9,0.3,1.5,0.8,2s1.2,0.7,2.1,0.7c1,0,1.9-0.3,2.7-0.9v1.7c-0.8,0.5-2,0.8-3.4,0.8
		c-1.4,0-2.4-0.4-3.2-1.3s-1.2-2-1.2-3.6c0-1.4,0.4-2.6,1.3-3.5c0.9-0.9,1.9-1.4,3.2-1.4c1.3,0,2.3,0.4,2.9,1.2s1,2,1,3.4V26.7z
		 M1107.9,25.3c0-0.8-0.2-1.3-0.5-1.8c-0.3-0.4-0.8-0.6-1.5-0.6c-0.6,0-1.1,0.2-1.5,0.7c-0.4,0.4-0.7,1-0.8,1.7H1107.9z"/>
	<path d="M1120.2,30.8h-2.1v-5.2c0-1.7-0.6-2.6-1.8-2.6c-0.6,0-1.2,0.2-1.6,0.7c-0.4,0.5-0.6,1.1-0.6,1.8v5.3h-2.1v-9.3h2.1v1.5h0
		c0.7-1.2,1.7-1.8,3-1.8c1,0,1.8,0.3,2.3,1c0.5,0.7,0.8,1.6,0.8,2.8V30.8z"/>
	<path d="M1127.7,30.7c-0.4,0.2-1,0.3-1.6,0.3c-1.8,0-2.7-0.9-2.7-2.6v-5.3h-1.6v-1.7h1.6v-2.2l2.1-0.6v2.8h2.2v1.7h-2.2v4.6
		c0,0.6,0.1,0.9,0.3,1.2c0.2,0.2,0.5,0.4,1,0.4c0.4,0,0.7-0.1,0.9-0.3V30.7z"/>
	<path d="M1128.9,30.5v-2c0.8,0.6,1.7,0.9,2.6,0.9c1.3,0,1.9-0.4,1.9-1.1c0-0.2-0.1-0.4-0.2-0.5c-0.1-0.1-0.3-0.3-0.4-0.4
		c-0.2-0.1-0.4-0.2-0.7-0.3c-0.3-0.1-0.5-0.2-0.8-0.3c-0.4-0.2-0.7-0.3-1-0.5s-0.6-0.4-0.8-0.6c-0.2-0.2-0.4-0.5-0.5-0.7
		c-0.1-0.3-0.2-0.6-0.2-1c0-0.4,0.1-0.8,0.3-1.2s0.5-0.6,0.9-0.9c0.4-0.2,0.8-0.4,1.2-0.5c0.5-0.1,0.9-0.2,1.4-0.2
		c0.9,0,1.6,0.1,2.3,0.4v1.8c-0.7-0.4-1.4-0.7-2.3-0.7c-0.3,0-0.5,0-0.7,0.1c-0.2,0.1-0.4,0.1-0.5,0.2c-0.2,0.1-0.3,0.2-0.4,0.3
		s-0.1,0.3-0.1,0.4c0,0.2,0,0.4,0.1,0.5c0.1,0.1,0.2,0.3,0.4,0.4c0.2,0.1,0.4,0.2,0.6,0.3c0.2,0.1,0.5,0.2,0.8,0.3
		c0.4,0.2,0.8,0.3,1.1,0.5c0.3,0.2,0.6,0.4,0.8,0.6c0.2,0.2,0.4,0.5,0.5,0.7c0.1,0.3,0.2,0.6,0.2,1c0,0.5-0.1,0.9-0.3,1.2
		c-0.2,0.4-0.5,0.6-0.9,0.9c-0.4,0.2-0.8,0.4-1.3,0.5c-0.5,0.1-1,0.2-1.5,0.2C1130.5,31,1129.7,30.9,1128.9,30.5z"/>
	<path d="M1144.8,29.5L1144.8,29.5l0,1.3h-2.1V17.1h2.1v6.1h0c0.7-1.2,1.8-1.9,3.2-1.9c1.2,0,2.1,0.4,2.8,1.2c0.7,0.8,1,1.9,1,3.3
		c0,1.6-0.4,2.8-1.1,3.7c-0.7,0.9-1.8,1.4-3.1,1.4C1146.3,31,1145.4,30.5,1144.8,29.5z M1144.7,25.8v1.2c0,0.7,0.2,1.3,0.6,1.7
		c0.4,0.5,1,0.7,1.6,0.7c0.8,0,1.4-0.3,1.8-0.9c0.4-0.6,0.7-1.5,0.7-2.5c0-0.9-0.2-1.6-0.6-2.1c-0.4-0.5-1-0.8-1.7-0.8
		c-0.8,0-1.4,0.3-1.8,0.8C1144.9,24.3,1144.7,25,1144.7,25.8z"/>
	<path d="M1161.7,26.7h-6.3c0,0.9,0.3,1.5,0.8,2c0.5,0.5,1.2,0.7,2.1,0.7c1,0,1.9-0.3,2.7-0.9v1.7c-0.8,0.5-2,0.8-3.4,0.8
		c-1.4,0-2.4-0.4-3.2-1.3s-1.2-2-1.2-3.6c0-1.4,0.4-2.6,1.3-3.5s1.9-1.4,3.2-1.4s2.3,0.4,2.9,1.2c0.7,0.8,1,2,1,3.4V26.7z
		 M1159.7,25.3c0-0.8-0.2-1.3-0.5-1.8s-0.8-0.6-1.5-0.6c-0.6,0-1.1,0.2-1.5,0.7c-0.4,0.4-0.7,1-0.8,1.7H1159.7z"/>
	<path d="M1169,18.8c-0.3-0.2-0.6-0.2-1-0.2c-1,0-1.5,0.6-1.5,1.7v1.3h2.2v1.7h-2.2v7.6h-2.1v-7.6h-1.6v-1.7h1.6V20
		c0-1,0.3-1.8,1-2.3c0.6-0.6,1.4-0.8,2.4-0.8c0.5,0,0.9,0.1,1.2,0.2V18.8z"/>
	<path d="M1174.2,31c-1.4,0-2.6-0.4-3.4-1.3s-1.3-2-1.3-3.5c0-1.6,0.4-2.8,1.3-3.7s2.1-1.3,3.6-1.3c1.5,0,2.6,0.4,3.4,1.3
		c0.8,0.9,1.2,2,1.2,3.5c0,1.5-0.4,2.7-1.3,3.6C1176.9,30.6,1175.7,31,1174.2,31z M1174.3,23c-0.8,0-1.5,0.3-2,0.9
		c-0.5,0.6-0.7,1.4-0.7,2.4c0,1,0.2,1.7,0.7,2.3c0.5,0.6,1.1,0.8,1.9,0.8c0.8,0,1.5-0.3,1.9-0.8c0.4-0.6,0.7-1.3,0.7-2.4
		c0-1-0.2-1.8-0.7-2.4C1175.8,23.3,1175.2,23,1174.3,23z"/>
	<path d="M1186.6,23.5c-0.3-0.2-0.6-0.3-1.1-0.3c-0.6,0-1.1,0.3-1.6,0.8c-0.4,0.6-0.6,1.3-0.6,2.3v4.4h-2.1v-9.3h2.1v1.9h0
		c0.2-0.7,0.5-1.2,0.9-1.5c0.4-0.4,0.9-0.5,1.4-0.5c0.4,0,0.7,0.1,0.9,0.2V23.5z"/>
	<path d="M1195.8,26.7h-6.3c0,0.9,0.3,1.5,0.8,2c0.5,0.5,1.2,0.7,2.1,0.7c1,0,1.9-0.3,2.7-0.9v1.7c-0.8,0.5-2,0.8-3.4,0.8
		c-1.4,0-2.4-0.4-3.2-1.3s-1.2-2-1.2-3.6c0-1.4,0.4-2.6,1.3-3.5s1.9-1.4,3.2-1.4s2.3,0.4,2.9,1.2c0.7,0.8,1,2,1,3.4V26.7z
		 M1193.8,25.3c0-0.8-0.2-1.3-0.5-1.8s-0.8-0.6-1.5-0.6c-0.6,0-1.1,0.2-1.5,0.7c-0.4,0.4-0.7,1-0.8,1.7H1193.8z"/>
	<path d="M1207.8,30.7c-0.4,0.2-1,0.3-1.6,0.3c-1.8,0-2.7-0.9-2.7-2.6v-5.3h-1.6v-1.7h1.6v-2.2l2.1-0.6v2.8h2.2v1.7h-2.2v4.6
		c0,0.6,0.1,0.9,0.3,1.2c0.2,0.2,0.5,0.4,1,0.4c0.4,0,0.7-0.1,0.9-0.3V30.7z"/>
	<path d="M1217.9,30.8h-2.1v-5.1c0-1.8-0.6-2.8-1.8-2.8c-0.6,0-1.1,0.3-1.6,0.8c-0.4,0.5-0.6,1.2-0.6,2v5h-2.1V17.1h2.1v6h0
		c0.7-1.2,1.7-1.8,3-1.8c2.1,0,3.1,1.3,3.1,3.8V30.8z"/>
	<path d="M1228.3,26.7h-6.3c0,0.9,0.3,1.5,0.8,2c0.5,0.5,1.2,0.7,2.1,0.7c1,0,1.9-0.3,2.7-0.9v1.7c-0.8,0.5-2,0.8-3.4,0.8
		c-1.4,0-2.4-0.4-3.2-1.3c-0.8-0.8-1.2-2-1.2-3.6c0-1.4,0.4-2.6,1.3-3.5c0.9-0.9,1.9-1.4,3.2-1.4s2.3,0.4,3,1.2c0.7,0.8,1,2,1,3.4
		V26.7z M1226.3,25.3c0-0.8-0.2-1.3-0.5-1.8c-0.4-0.4-0.8-0.6-1.5-0.6c-0.6,0-1.1,0.2-1.5,0.7c-0.4,0.4-0.7,1-0.8,1.7H1226.3z"/>
	<path d="M1238.4,21.5l-4.2,10.8c-0.9,1.9-2.1,2.9-3.7,2.9c-0.4,0-0.8,0-1.1-0.1v-1.8c0.3,0.1,0.6,0.2,0.9,0.2
		c0.8,0,1.4-0.4,1.8-1.2l0.6-1.5l-3.7-9.3h2.3l2.2,6.8c0,0.1,0.1,0.3,0.2,0.7h0c0-0.1,0.1-0.4,0.2-0.7l2.3-6.8H1238.4z"/>
	<path d="M1253.3,30.1c0,3.4-1.7,5.1-5.1,5.1c-1.2,0-2.3-0.2-3.2-0.6v-1.9c1,0.6,2,0.9,2.9,0.9c2.2,0,3.3-1.1,3.3-3.3v-1h0
		c-0.7,1.2-1.7,1.8-3.1,1.8c-1.1,0-2-0.4-2.7-1.2c-0.7-0.8-1-1.9-1-3.3c0-1.6,0.4-2.8,1.1-3.8c0.7-0.9,1.8-1.4,3.1-1.4
		c1.2,0,2.1,0.5,2.7,1.5h0v-1.3h2.1V30.1z M1251.3,26.6v-1.2c0-0.7-0.2-1.2-0.6-1.7c-0.4-0.5-1-0.7-1.6-0.7c-0.8,0-1.4,0.3-1.9,0.9
		c-0.5,0.6-0.7,1.4-0.7,2.5c0,0.9,0.2,1.6,0.6,2.2c0.4,0.5,1,0.8,1.7,0.8c0.7,0,1.3-0.3,1.8-0.8C1251,28,1251.3,27.4,1251.3,26.6z"
		/>
	<path d="M1260.2,31c-1.4,0-2.6-0.4-3.4-1.3s-1.3-2-1.3-3.5c0-1.6,0.4-2.8,1.3-3.7s2.1-1.3,3.6-1.3c1.5,0,2.6,0.4,3.4,1.3
		c0.8,0.9,1.2,2,1.2,3.5c0,1.5-0.4,2.7-1.3,3.6C1262.9,30.6,1261.7,31,1260.2,31z M1260.3,23c-0.8,0-1.5,0.3-2,0.9
		c-0.5,0.6-0.7,1.4-0.7,2.4c0,1,0.2,1.7,0.7,2.3c0.5,0.6,1.1,0.8,1.9,0.8c0.8,0,1.5-0.3,1.9-0.8c0.4-0.6,0.7-1.3,0.7-2.4
		c0-1-0.2-1.8-0.7-2.4C1261.8,23.3,1261.1,23,1260.3,23z"/>
	<path d="M1272.1,30.7c-0.4,0.2-1,0.3-1.6,0.3c-1.8,0-2.7-0.9-2.7-2.6v-5.3h-1.6v-1.7h1.6v-2.2l2.1-0.6v2.8h2.2v1.7h-2.2v4.6
		c0,0.6,0.1,0.9,0.3,1.2c0.2,0.2,0.5,0.4,1,0.4c0.4,0,0.7-0.1,0.9-0.3V30.7z"/>
	<path d="M1283.9,30.7c-0.4,0.2-1,0.3-1.6,0.3c-1.8,0-2.7-0.9-2.7-2.6v-5.3h-1.6v-1.7h1.6v-2.2l2.1-0.6v2.8h2.2v1.7h-2.2v4.6
		c0,0.6,0.1,0.9,0.3,1.2c0.2,0.2,0.5,0.4,1,0.4c0.4,0,0.7-0.1,0.9-0.3V30.7z"/>
	<path d="M1289.7,31c-1.4,0-2.6-0.4-3.4-1.3c-0.9-0.9-1.3-2-1.3-3.5c0-1.6,0.4-2.8,1.3-3.7s2.1-1.3,3.6-1.3c1.5,0,2.6,0.4,3.4,1.3
		c0.8,0.9,1.2,2,1.2,3.5c0,1.5-0.4,2.7-1.3,3.6C1292.4,30.6,1291.2,31,1289.7,31z M1289.8,23c-0.8,0-1.5,0.3-2,0.9
		c-0.5,0.6-0.7,1.4-0.7,2.4c0,1,0.2,1.7,0.7,2.3c0.5,0.6,1.1,0.8,1.9,0.8c0.8,0,1.5-0.3,1.9-0.8c0.4-0.6,0.7-1.3,0.7-2.4
		c0-1-0.2-1.8-0.7-2.4C1291.3,23.3,1290.7,23,1289.8,23z"/>
	<path d="M1066.2,53.1h-2.2v-13h2.2V53.1z"/>
	<path d="M1073.3,53.3c-1.4,0-2.6-0.4-3.4-1.3c-0.9-0.9-1.3-2-1.3-3.5c0-1.6,0.4-2.8,1.3-3.7s2.1-1.3,3.6-1.3c1.5,0,2.6,0.4,3.4,1.3
		c0.8,0.9,1.2,2,1.2,3.5c0,1.5-0.4,2.7-1.3,3.6C1075.9,52.9,1074.7,53.3,1073.3,53.3z M1073.4,45.3c-0.8,0-1.5,0.3-2,0.9
		c-0.5,0.6-0.7,1.4-0.7,2.4c0,1,0.2,1.7,0.7,2.3c0.5,0.6,1.1,0.8,1.9,0.8c0.8,0,1.5-0.3,1.9-0.8c0.4-0.6,0.7-1.3,0.7-2.4
		c0-1-0.2-1.8-0.7-2.4C1074.8,45.6,1074.2,45.3,1073.4,45.3z"/>
	<path d="M1092.7,43.8l-2.7,9.3h-2.2l-1.7-6.3c-0.1-0.2-0.1-0.5-0.1-0.8h0c0,0.2-0.1,0.5-0.2,0.8l-1.8,6.3h-2.2l-2.7-9.3h2.2
		l1.7,6.7c0.1,0.2,0.1,0.5,0.1,0.8h0.1c0-0.3,0.1-0.5,0.1-0.8l1.9-6.7h2l1.7,6.7c0.1,0.2,0.1,0.5,0.1,0.8h0.1c0-0.2,0.1-0.5,0.1-0.8
		l1.7-6.7H1092.7z"/>
	<path d="M1101.4,53.1h-2v-1.5h0c-0.6,1.1-1.6,1.7-2.8,1.7c-0.9,0-1.6-0.2-2.1-0.7s-0.8-1.2-0.8-2c0-1.8,1-2.8,3-3.1l2.8-0.4
		c0-1.3-0.6-2-1.9-2c-1.1,0-2.1,0.4-3,1.1v-1.8c1-0.6,2.1-0.9,3.4-0.9c2.3,0,3.5,1.2,3.5,3.5V53.1z M1099.4,48.6l-2,0.3
		c-0.6,0.1-1.1,0.2-1.4,0.4c-0.3,0.2-0.5,0.6-0.5,1.1c0,0.4,0.1,0.7,0.4,1c0.3,0.3,0.7,0.4,1.1,0.4c0.6,0,1.2-0.2,1.6-0.7
		s0.6-1,0.6-1.7V48.6z"/>
	<path d="M1108.7,52.6v-2.2c0.2,0.2,0.4,0.3,0.7,0.5c0.3,0.1,0.6,0.3,0.9,0.4c0.3,0.1,0.6,0.2,0.9,0.2c0.3,0.1,0.6,0.1,0.9,0.1
		c0.9,0,1.6-0.2,2-0.5s0.7-0.7,0.7-1.3c0-0.3-0.1-0.6-0.2-0.8c-0.1-0.2-0.4-0.4-0.6-0.6c-0.3-0.2-0.6-0.4-0.9-0.5
		c-0.4-0.2-0.7-0.4-1.2-0.5c-0.4-0.2-0.9-0.5-1.2-0.7c-0.4-0.2-0.7-0.5-1-0.8s-0.5-0.6-0.7-1s-0.2-0.8-0.2-1.3
		c0-0.6,0.1-1.1,0.4-1.6s0.6-0.8,1.1-1.1c0.5-0.3,1-0.5,1.5-0.7c0.6-0.1,1.2-0.2,1.8-0.2c1.4,0,2.4,0.2,3,0.5v2.1
		c-0.7-0.5-1.7-0.8-2.9-0.8c-0.3,0-0.6,0-1,0.1c-0.3,0.1-0.6,0.2-0.9,0.3s-0.5,0.3-0.6,0.5c-0.2,0.2-0.2,0.5-0.2,0.8
		c0,0.3,0.1,0.5,0.2,0.8s0.3,0.4,0.5,0.6c0.2,0.2,0.5,0.3,0.9,0.5s0.7,0.3,1.2,0.5c0.5,0.2,0.9,0.5,1.3,0.7s0.8,0.5,1.1,0.9
		s0.5,0.7,0.7,1c0.2,0.4,0.3,0.8,0.3,1.3c0,0.7-0.1,1.2-0.4,1.7c-0.3,0.5-0.6,0.8-1.1,1.1c-0.5,0.3-1,0.5-1.6,0.6
		c-0.6,0.1-1.2,0.2-1.9,0.2c-0.2,0-0.5,0-0.8,0c-0.3,0-0.6-0.1-1-0.1c-0.3-0.1-0.6-0.1-0.9-0.2C1109.2,52.8,1108.9,52.7,1108.7,52.6
		z"/>
	<path d="M1123.6,53c-0.4,0.2-1,0.3-1.6,0.3c-1.8,0-2.7-0.9-2.7-2.6v-5.3h-1.6v-1.7h1.6v-2.2l2.1-0.6v2.8h2.2v1.7h-2.2v4.6
		c0,0.6,0.1,0.9,0.3,1.2c0.2,0.2,0.5,0.4,1,0.4c0.4,0,0.7-0.1,0.9-0.3V53z"/>
	<path d="M1132.5,53.1h-2v-1.5h0c-0.6,1.1-1.6,1.7-2.8,1.7c-0.9,0-1.6-0.2-2.1-0.7s-0.8-1.2-0.8-2c0-1.8,1-2.8,3-3.1l2.8-0.4
		c0-1.3-0.6-2-1.9-2c-1.1,0-2.1,0.4-3,1.1v-1.8c1-0.6,2.1-0.9,3.4-0.9c2.3,0,3.5,1.2,3.5,3.5V53.1z M1130.5,48.6l-2,0.3
		c-0.6,0.1-1.1,0.2-1.4,0.4c-0.3,0.2-0.5,0.6-0.5,1.1c0,0.4,0.1,0.7,0.4,1c0.3,0.3,0.7,0.4,1.1,0.4c0.6,0,1.2-0.2,1.6-0.7
		s0.6-1,0.6-1.7V48.6z"/>
	<path d="M1140,53c-0.4,0.2-1,0.3-1.6,0.3c-1.8,0-2.7-0.9-2.7-2.6v-5.3h-1.6v-1.7h1.6v-2.2l2.1-0.6v2.8h2.2v1.7h-2.2v4.6
		c0,0.6,0.1,0.9,0.3,1.2c0.2,0.2,0.5,0.4,1,0.4c0.4,0,0.7-0.1,0.9-0.3V53z"/>
	<path d="M1149.6,49h-6.3c0,0.9,0.3,1.5,0.8,2c0.5,0.5,1.2,0.7,2.1,0.7c1,0,1.9-0.3,2.7-0.9v1.7c-0.8,0.5-2,0.8-3.4,0.8
		c-1.4,0-2.4-0.4-3.2-1.3s-1.2-2-1.2-3.6c0-1.4,0.4-2.6,1.3-3.5s1.9-1.4,3.2-1.4s2.3,0.4,2.9,1.2c0.7,0.8,1,2,1,3.4V49z
		 M1147.6,47.6c0-0.8-0.2-1.3-0.5-1.8s-0.8-0.6-1.5-0.6c-0.6,0-1.1,0.2-1.5,0.7c-0.4,0.4-0.7,1-0.8,1.7H1147.6z"/>
</g>
</svg>
