<?xml version="1.0" encoding="utf-8"?><!DOCTYPE svg PUBLIC "-//W3C//DTD SVG 1.1//EN" 	"http://www.w3.org/Graphics/SVG/1.1/DTD/svg11.dtd"><svg width="1238" height="452" viewbox="0 0 1238 452" xml:space="preserve" xmlns="http://www.w3.org/2000/svg" xmlns:xlink="http://www.w3.org/1999/xlink" Version="1.1" x="0px" y="0px"><g><g><g class="link" fill="#d42f75" opacity="0.3" id="link-0"><path d="M30,308.10466175240765L30,334.24817297765037"></path><path d="M30,308.10466175240765C614,308.10466175240765 614,0 1198,0L1198,26.143511225242705C614,26.143511225242705 614,334.24817297765037 30,334.24817297765037Z"></path><path d="M1198,0L1198,26.143511225242705"></path><title> Steve Irons →  MEL
3,693.80</title></g><g class="link" fill="#26823a" opacity="0.3" id="link-1" style="opacity: 0.3;"><path d="M30,55.719034612259115L30,78.27006020544033"></path><path d="M30,55.719034612259115C614,55.719034612259115 614,211.00607549599798 1198,211.00607549599798L1198,233.55710108917918C614,233.55710108917918 614,78.27006020544033 30,78.27006020544033Z"></path><path d="M1198,211.00607549599798L1198,233.55710108917918"></path><title> Chris Bowen  →  SYD
3,186.22</title></g><g class="link" fill="#a11b1b" opacity="0.3" id="link-2" style="opacity: 0.3;"><path d="M30,0L30,21.870790370955312"></path><path d="M30,0C614,0 614,110.39321485852392 1198,110.39321485852392L1198,132.26400522947924C614,132.26400522947924 614,21.870790370955312 30,21.870790370955312Z"></path><path d="M1198,110.39321485852392L1198,132.26400522947924"></path><title> Rachel Siewert →  PER
3,090.11</title></g><g class="link" fill="#142735" opacity="0.3" id="link-3"><path d="M30,214.4936247897348L30,235.2139392958184"></path><path d="M30,214.4936247897348C614,214.4936247897348 614,132.26400522947924 1198,132.26400522947924L1198,152.98431973556282C614,152.98431973556282 614,235.2139392958184 30,235.2139392958184Z"></path><path d="M1198,132.26400522947924L1198,152.98431973556282"></path><title> Rick Wilson →  PER
2,927.56</title></g><g class="link" fill="#7b7d14" opacity="0.3" id="link-4" style="opacity: 0.3;"><path d="M30,109.75053947698598L30,129.66442383823113"></path><path d="M30,109.75053947698598C614,109.75053947698598 614,233.55710108917918 1198,233.55710108917918L1198,253.47098545042434C614,253.47098545042434 614,129.66442383823113 30,129.66442383823113Z"></path><path d="M1198,233.55710108917918L1198,253.47098545042434"></path><title> Michael Keenan →  SYD
2,813.62</title></g><g class="link" fill="#142735" opacity="0.3" id="link-5"><path d="M30,163.3169704008902L30,180.28201277911378"></path><path d="M30,163.3169704008902C614,163.3169704008902 614,285.3036497667932 1198,285.3036497667932L1198,302.2686921450168C614,302.2686921450168 614,180.28201277911378 30,180.28201277911378Z"></path><path d="M1198,285.3036497667932L1198,302.2686921450168"></path><title> Mathias Cormann →  BNE
2,396.98</title></g><g class="link" fill="#142735" opacity="0.3" id="link-6"><path d="M30,265.2282784541178L30,282.158286347376"></path><path d="M30,265.2282784541178C614,265.2282784541178 614,26.143511225242705 1198,26.143511225242705L1198,43.073519118500954C614,43.073519118500954 614,282.158286347376 30,282.158286347376Z"></path><path d="M1198,26.143511225242705L1198,43.073519118500954"></path><title> Sharman Stone →  MEL
2,392.03</title></g><g class="link" fill="#142735" opacity="0.3" id="link-7"><path d="M30,350.228192895998L30,366.1907535670519"></path><path d="M30,350.228192895998C614,350.228192895998 614,302.2686921450168 1198,302.2686921450168L1198,318.2312528160707C614,318.2312528160707 614,366.1907535670519 30,366.1907535670519Z"></path><path d="M1198,302.2686921450168L1198,318.2312528160707"></path><title> Ian Macfarlane →  BNE
2,255.34</title></g><g class="link" fill="#7b7d14" opacity="0.3" id="link-8" style="opacity: 0.3;"><path d="M30,129.66442383823113L30,144.37260839405144"></path><path d="M30,129.66442383823113C614,129.66442383823113 614,43.073519118500954 1198,43.073519118500954L1198,57.78170367432128C614,57.78170367432128 614,144.37260839405144 30,144.37260839405144Z"></path><path d="M1198,43.073519118500954L1198,57.78170367432128"></path><title> Michael Keenan →  MEL
2,078.11</title></g><g class="link" fill="#142735" opacity="0.3" id="link-9" style="opacity: 0.3;"><path d="M30,235.2139392958184L30,248.7412139897264"></path><path d="M30,235.2139392958184C614,235.2139392958184 614,57.78170367432128 1198,57.78170367432128L1198,71.30897836822928C614,71.30897836822928 614,248.7412139897264 30,248.7412139897264Z"></path><path d="M1198,57.78170367432128L1198,71.30897836822928"></path><title> Rick Wilson →  MEL
1,911.26</title></g><g class="link" fill="#142735" opacity="0.3" id="link-10"><path d="M30,366.1907535670519L30,379.252671213188"></path><path d="M30,366.1907535670519C614,366.1907535670519 614,152.9843197355628 1198,152.9843197355628L1198,166.04623738169892C614,166.04623738169892 614,379.252671213188 30,379.252671213188Z"></path><path d="M1198,152.9843197355628L1198,166.04623738169892"></path><title> Ian Macfarlane →  PER
1,845.51</title></g><g class="link" fill="#142735" opacity="0.3" id="link-11"><path d="M30,423.4466824230407L30,436.4083802091548"></path><path d="M30,423.4466824230407C614,423.4466824230407 614,410.87423112900024 1198,410.87423112900024L1198,423.8359289151143C614,423.8359289151143 614,436.4083802091548 30,436.4083802091548Z"></path><path d="M1198,410.87423112900024L1198,423.8359289151143"></path><title> Gary Gray →  CNS
1,831.35</title></g><g class="link" fill="#26823a" opacity="0.3" id="link-12" style="opacity: 0.3;"><path d="M30,78.27006020544033L30,90.86909798961022"></path><path d="M30,78.27006020544033C614,78.27006020544033 614,166.04623738169894 1198,166.04623738169894L1198,178.64527516586884C614,178.64527516586884 614,90.86909798961022 30,90.86909798961022Z"></path><path d="M1198,166.04623738169894L1198,178.64527516586884"></path><title> Chris Bowen  →  PER
1,780.11</title></g><g class="link" fill="#7b7d14" opacity="0.3" id="link-13" style="opacity: 0.3;"><path d="M30,144.37260839405147L30,155.5149193710365"></path><path d="M30,144.37260839405147C614,144.37260839405147 614,178.64527516586884 1198,178.64527516586884L1198,189.78758614285388C614,189.78758614285388 614,155.5149193710365 30,155.5149193710365Z"></path><path d="M1198,178.64527516586884L1198,189.78758614285388"></path><title> Michael Keenan →  PER
1,574.29</title></g><g class="link" fill="#142735" opacity="0.3" id="link-14"><path d="M30,436.4083802091548L30,447.20501760114854"></path><path d="M30,436.4083802091548C614,436.4083802091548 614,71.30897836822928 1198,71.30897836822928L1198,82.10561576022302C614,82.10561576022302 614,447.20501760114854 30,447.20501760114854Z"></path><path d="M1198,71.30897836822928L1198,82.10561576022302"></path><title> Gary Gray →  MEL
1,525.45</title></g><g class="link" fill="#142735" opacity="0.3" id="link-15"><path d="M30,180.28201277911378L30,191.06180530762924"></path><path d="M30,180.28201277911378C614,180.28201277911378 614,253.47098545042437 1198,253.47098545042437L1198,264.2507779789398C614,264.2507779789398 614,191.06180530762924 30,191.06180530762924Z"></path><path d="M1198,253.47098545042437L1198,264.2507779789398"></path><title> Mathias Cormann →  SYD
1,523.07</title></g><g class="link" fill="#142735" opacity="0.3" id="link-16"><path d="M30,191.06180530762924L30,201.79028470159952"></path><path d="M30,191.06180530762924C614,191.06180530762924 614,189.78758614285388 1198,189.78758614285388L1198,200.51606553682416C614,200.51606553682416 614,201.79028470159952 30,201.79028470159952Z"></path><path d="M1198,189.78758614285388L1198,200.51606553682416"></path><title> Mathias Cormann →  PER
1,515.82</title></g><g class="link" fill="#1b68a1" opacity="0.3" id="link-17" style="opacity: 0.3;"><path d="M30,21.870790370955312L30,32.59742956975569"></path><path d="M30,21.870790370955312C614,21.870790370955312 614,334.6153371276852 1198,334.6153371276852L1198,345.3419763264856C614,345.3419763264856 614,32.59742956975569 30,32.59742956975569Z"></path><path d="M1198,334.6153371276852L1198,345.3419763264856"></path><title> Rachel Siewert →  CBR
1,515.56</title></g><g class="link" fill="#142735" opacity="0.3" id="link-18" style="opacity: 0.3;"><path d="M30,248.7412139897264L30,259.46785318852676"></path><path d="M30,248.7412139897264C614,248.7412139897264 614,345.3419763264856 1198,345.3419763264856L1198,356.068615525286C614,356.068615525286 614,259.46785318852676 30,259.46785318852676Z"></path><path d="M1198,345.3419763264856L1198,356.068615525286"></path><title> Rick Wilson →  CBR
1,515.56</title></g><g class="link" fill="#142735" opacity="0.3" id="link-19"><path d="M30,389.1276313251927L30,399.6904931538723"></path><path d="M30,389.1276313251927C614,389.1276313251927 614,264.2507779789398 1198,264.2507779789398L1198,274.81363980761944C614,274.81363980761944 614,399.6904931538723 30,399.6904931538723Z"></path><path d="M1198,264.2507779789398L1198,274.81363980761944"></path><title> Jamie Briggs →  SYD
1,492.42</title></g><g class="link" fill="#142735" opacity="0.3" id="link-20"><path d="M30,399.6904931538723L30,408.9912642029522"></path><path d="M30,399.6904931538723C614,399.6904931538723 614,391.14410578461576 1198,391.14410578461576L1198,400.4448768336957C614,400.4448768336957 614,408.9912642029522 30,408.9912642029522Z"></path><path d="M1198,391.14410578461576L1198,400.4448768336957"></path><title> Jamie Briggs →  ADL
1,314.10</title></g><g class="link" fill="#26823a" opacity="0.3" id="link-21" style="opacity: 0.3;"><path d="M30,90.86909798961024L30,99.89702471638438"></path><path d="M30,90.86909798961024C614,90.86909798961024 614,82.10561576022302 1198,82.10561576022302L1198,91.13354248699716C614,91.13354248699716 614,99.89702471638438 30,99.89702471638438Z"></path><path d="M1198,82.10561576022302L1198,91.13354248699716"></path><title> Chris Bowen  →  MEL
1,275.55</title></g><g class="link" fill="#142735" opacity="0.3" id="link-22"><path d="M30,282.158286347376L30,290.7323926345588"></path><path d="M30,282.158286347376C614,282.158286347376 614,443.4258937128172 1198,443.4258937128172L1198,451.99999999999994C614,451.99999999999994 614,290.7323926345588 30,290.7323926345588Z"></path><path d="M1198,443.4258937128172L1198,451.99999999999994"></path><title> Sharman Stone →  FIZ
1,211.43</title></g><g class="link" fill="#142735" opacity="0.3" id="link-23" style="opacity: 0.3;"><path d="M30,201.7902847015995L30,209.49362478973478"></path><path d="M30,201.7902847015995C614,201.7902847015995 614,370.7374256083452 1198,370.7374256083452L1198,378.44076569648047C614,378.44076569648047 614,209.49362478973478 30,209.49362478973478Z"></path><path d="M1198,370.7374256083452L1198,378.44076569648047"></path><title> Mathias Cormann →  BME
1,088.40</title></g><g class="link" fill="#142735" opacity="0.3" id="link-24"><path d="M30,290.73239263455883L30,298.4357327226941"></path><path d="M30,290.73239263455883C614,290.73239263455883 614,378.44076569648047 1198,378.44076569648047L1198,386.14410578461576C614,386.14410578461576 614,298.4357327226941 30,298.4357327226941Z"></path><path d="M1198,378.44076569648047L1198,386.14410578461576"></path><title> Sharman Stone →  BME
1,088.40</title></g><g class="link" fill="#142735" opacity="0.3" id="link-25" style="opacity: 0.3;"><path d="M30,408.9912642029522L30,416.45488348183983"></path><path d="M30,408.9912642029522C614,408.9912642029522 614,91.13354248699716 1198,91.13354248699716L1198,98.5971617658848C614,98.5971617658848 614,416.45488348183983 30,416.45488348183983Z"></path><path d="M1198,91.13354248699716L1198,98.5971617658848"></path><title> Jamie Briggs →  MEL
1,054.53</title></g><g class="link" fill="#1b68a1" opacity="0.3" id="link-26" style="opacity: 0.3;"><path d="M30,32.59742956975569L30,39.39348266239479"></path><path d="M30,32.59742956975569C614,32.59742956975569 614,98.5971617658848 1198,98.5971617658848L1198,105.3932148585239C614,105.3932148585239 614,39.39348266239479 30,39.39348266239479Z"></path><path d="M1198,98.5971617658848L1198,105.3932148585239"></path><title> Rachel Siewert →  MEL
960.21</title></g><g class="link" fill="#1b68a1" opacity="0.3" id="link-27" style="opacity: 0.3;"><path d="M30,39.39348266239479L30,45.924052213407684"></path><path d="M30,39.39348266239479C614,39.39348266239479 614,318.2312528160707 1198,318.2312528160707L1198,324.7618223670836C614,324.7618223670836 614,45.924052213407684 30,45.924052213407684Z"></path><path d="M1198,318.2312528160707L1198,324.7618223670836"></path><title> Rachel Siewert →  BNE
922.70</title></g><g class="link" fill="#d42f75" opacity="0.3" id="link-28"><path d="M30,334.24817297765037L30,339.7381829368242"></path><path d="M30,334.24817297765037C614,334.24817297765037 614,274.81363980761944 1198,274.81363980761944L1198,280.3036497667933C614,280.3036497667933 614,339.7381829368242 30,339.7381829368242Z"></path><path d="M1198,274.81363980761944L1198,280.3036497667933"></path><title> Steve Irons →  SYD
775.68</title></g><g class="link" fill="#d42f75" opacity="0.3" id="link-29" style="opacity: 0.3;"><path d="M30,339.73818293682416L30,345.228192895998"></path><path d="M30,339.73818293682416C614,339.73818293682416 614,200.51606553682416 1198,200.51606553682416L1198,206.00607549599798C614,206.00607549599798 614,345.228192895998 30,345.228192895998Z"></path><path d="M1198,200.51606553682416L1198,206.00607549599798"></path><title> Steve Irons →  PER
775.68</title></g><g class="link" fill="#142735" opacity="0.3" id="link-30"><path d="M30,379.252671213188L30,384.1276313251926"></path><path d="M30,379.252671213188C614,379.252671213188 614,356.06861552528596 1198,356.06861552528596L1198,360.94357563729056C614,360.94357563729056 614,384.1276313251926 30,384.1276313251926Z"></path><path d="M1198,356.06861552528596L1198,360.94357563729056"></path><title> Ian Macfarlane →  CBR
688.78</title></g><g class="link" fill="#26823a" opacity="0.3" id="link-31"><path d="M30,99.89702471638438L30,104.75053947698598"></path><path d="M30,99.89702471638438C614,99.89702471638438 614,324.7618223670836 1198,324.7618223670836L1198,329.61533712768517C614,329.61533712768517 614,104.75053947698598 30,104.75053947698598Z"></path><path d="M1198,324.7618223670836L1198,329.61533712768517"></path><title> Chris Bowen  →  BNE
685.75</title></g><g class="link" fill="#1b68a1" opacity="0.3" id="link-32" style="opacity: 0.3;"><path d="M30,45.924052213407684L30,50.719034612259115"></path><path d="M30,45.924052213407684C614,45.924052213407684 614,428.8359289151143 1198,428.8359289151143L1198,433.6309113139658C614,433.6309113139658 614,50.719034612259115 30,50.719034612259115Z"></path><path d="M1198,428.8359289151143L1198,433.6309113139658"></path><title> Rachel Siewert →  GTT
677.48</title></g><g class="link" fill="#142735" opacity="0.3" id="link-33"><path d="M30,447.20501760114854L30,452"></path><path d="M30,447.20501760114854C614,447.20501760114854 614,433.6309113139658 1198,433.6309113139658L1198,438.42589371281724C614,438.42589371281724 614,452 30,452Z"></path><path d="M1198,433.6309113139658L1198,438.42589371281724"></path><title> Gary Gray →  GTT
677.48</title></g><g class="link" fill="#142735" opacity="0.3" id="link-34"><path d="M30,298.4357327226941L30,303.10466175240765"></path><path d="M30,298.4357327226941C614,298.4357327226941 614,400.4448768336957 1198,400.4448768336957L1198,405.1138058634092C614,405.1138058634092 614,303.10466175240765 30,303.10466175240765Z"></path><path d="M1198,400.4448768336957L1198,405.1138058634092"></path><title> Sharman Stone →  ADL
659.67</title></g><g class="link" fill="#7b7d14" opacity="0.3" id="link-35"><path d="M30,155.5149193710365L30,158.3169704008902"></path><path d="M30,155.5149193710365C614,155.5149193710365 614,360.94357563729056 1198,360.94357563729056L1198,363.7456266671443C614,363.7456266671443 614,158.3169704008902 30,158.3169704008902Z"></path><path d="M1198,360.94357563729056L1198,363.7456266671443"></path><title> Michael Keenan →  CBR
395.90</title></g><g class="link" fill="#142735" opacity="0.3" id="link-36"><path d="M30,416.45488348183983L30,418.4466824230407"></path><path d="M30,416.45488348183983C614,416.45488348183983 614,363.7456266671443 1198,363.7456266671443L1198,365.7374256083452C614,365.7374256083452 614,418.4466824230407 30,418.4466824230407Z"></path><path d="M1198,363.7456266671443L1198,365.7374256083452"></path><title> Jamie Briggs →  CBR
281.42</title></g><g class="link" fill="#142735" opacity="0.3" id="link-37"><path d="M30,259.46785318852676L30,260.2282784541178"></path><path d="M30,259.46785318852676C614,259.46785318852676 614,405.1138058634092 1198,405.1138058634092L1198,405.87423112900024C614,405.87423112900024 614,260.2282784541178 30,260.2282784541178Z"></path><path d="M1198,405.1138058634092L1198,405.87423112900024"></path><title> Rick Wilson →  ADL
107.44</title></g><g class="link" fill="#1b68a1" opacity="0.3" id="link-38" style="opacity: 0.3;"><path d="M30,50.719034612259115L30,50.719034612259115"></path><path d="M30,50.719034612259115C614,50.719034612259115 614,280.3036497667932 1198,280.3036497667932L1198,280.3036497667932C614,280.3036497667932 614,50.719034612259115 30,50.719034612259115Z"></path><path d="M1198,280.3036497667932L1198,280.3036497667932"></path><title> Rachel Siewert →  SYD
0.00</title></g><g class="link" fill="#1b68a1" opacity="0.3" id="link-39"><path d="M30,50.719034612259115L30,50.719034612259115"></path><path d="M30,50.719034612259115C614,50.719034612259115 614,405.87423112900024 1198,405.87423112900024L1198,405.87423112900024C614,405.87423112900024 614,50.719034612259115 30,50.719034612259115Z"></path><path d="M1198,405.87423112900024L1198,405.87423112900024"></path><title> Rachel Siewert →  ADL
0.00</title></g><g class="link" fill="#1b68a1" opacity="0.3" id="link-40"><path d="M30,50.719034612259115L30,50.719034612259115"></path><path d="M30,50.719034612259115C614,50.719034612259115 614,386.14410578461576 1198,386.14410578461576L1198,386.14410578461576C614,386.14410578461576 614,50.719034612259115 30,50.719034612259115Z"></path><path d="M1198,386.14410578461576L1198,386.14410578461576"></path><title> Rachel Siewert →  BME
0.00</title></g><g class="link" fill="#1b68a1" opacity="0.3" id="link-41"><path d="M30,50.719034612259115L30,50.719034612259115"></path><path d="M30,50.719034612259115C614,50.719034612259115 614,423.8359289151143 1198,423.8359289151143L1198,423.8359289151143C614,423.8359289151143 614,50.719034612259115 30,50.719034612259115Z"></path><path d="M1198,423.8359289151143L1198,423.8359289151143"></path><title> Rachel Siewert →  CNS
0.00</title></g><g class="link" fill="#1b68a1" opacity="0.3" id="link-42"><path d="M30,50.719034612259115L30,50.719034612259115"></path><path d="M30,50.719034612259115C614,50.719034612259115 614,451.99999999999994 1198,451.99999999999994L1198,451.99999999999994C614,451.99999999999994 614,50.719034612259115 30,50.719034612259115Z"></path><path d="M1198,451.99999999999994L1198,451.99999999999994"></path><title> Rachel Siewert →  FIZ
0.00</title></g><g class="link" fill="#26823a" opacity="0.3" id="link-43"><path d="M30,104.75053947698598L30,104.75053947698598"></path><path d="M30,104.75053947698598C614,104.75053947698598 614,365.7374256083452 1198,365.7374256083452L1198,365.7374256083452C614,365.7374256083452 614,104.75053947698598 30,104.75053947698598Z"></path><path d="M1198,365.7374256083452L1198,365.7374256083452"></path><title> Chris Bowen  →  CBR
0.00</title></g><g class="link" fill="#26823a" opacity="0.3" id="link-44"><path d="M30,104.75053947698598L30,104.75053947698598"></path><path d="M30,104.75053947698598C614,104.75053947698598 614,405.87423112900024 1198,405.87423112900024L1198,405.87423112900024C614,405.87423112900024 614,104.75053947698598 30,104.75053947698598Z"></path><path d="M1198,405.87423112900024L1198,405.87423112900024"></path><title> Chris Bowen  →  ADL
0.00</title></g><g class="link" fill="#26823a" opacity="0.3" id="link-45"><path d="M30,104.75053947698598L30,104.75053947698598"></path><path d="M30,104.75053947698598C614,104.75053947698598 614,386.14410578461576 1198,386.14410578461576L1198,386.14410578461576C614,386.14410578461576 614,104.75053947698598 30,104.75053947698598Z"></path><path d="M1198,386.14410578461576L1198,386.14410578461576"></path><title> Chris Bowen  →  BME
0.00</title></g><g class="link" fill="#26823a" opacity="0.3" id="link-46"><path d="M30,104.75053947698598L30,104.75053947698598"></path><path d="M30,104.75053947698598C614,104.75053947698598 614,423.8359289151143 1198,423.8359289151143L1198,423.8359289151143C614,423.8359289151143 614,104.75053947698598 30,104.75053947698598Z"></path><path d="M1198,423.8359289151143L1198,423.8359289151143"></path><title> Chris Bowen  →  CNS
0.00</title></g><g class="link" fill="#26823a" opacity="0.3" id="link-47"><path d="M30,104.75053947698598L30,104.75053947698598"></path><path d="M30,104.75053947698598C614,104.75053947698598 614,451.99999999999994 1198,451.99999999999994L1198,451.99999999999994C614,451.99999999999994 614,104.75053947698598 30,104.75053947698598Z"></path><path d="M1198,451.99999999999994L1198,451.99999999999994"></path><title> Chris Bowen  →  FIZ
0.00</title></g><g class="link" fill="#26823a" opacity="0.3" id="link-48" style="opacity: 0.3;"><path d="M30,104.75053947698598L30,104.75053947698598"></path><path d="M30,104.75053947698598C614,104.75053947698598 614,438.4258937128172 1198,438.4258937128172L1198,438.4258937128172C614,438.4258937128172 614,104.75053947698598 30,104.75053947698598Z"></path><path d="M1198,438.4258937128172L1198,438.4258937128172"></path><title> Chris Bowen  →  GTT
0.00</title></g><g class="link" fill="#7b7d14" opacity="0.3" id="link-49"><path d="M30,158.3169704008902L30,158.3169704008902"></path><path d="M30,158.3169704008902C614,158.3169704008902 614,329.6153371276852 1198,329.6153371276852L1198,329.6153371276852C614,329.6153371276852 614,158.3169704008902 30,158.3169704008902Z"></path><path d="M1198,329.6153371276852L1198,329.6153371276852"></path><title> Michael Keenan →  BNE
0.00</title></g><g class="link" fill="#7b7d14" opacity="0.3" id="link-50"><path d="M30,158.3169704008902L30,158.3169704008902"></path><path d="M30,158.3169704008902C614,158.3169704008902 614,405.87423112900024 1198,405.87423112900024L1198,405.87423112900024C614,405.87423112900024 614,158.3169704008902 30,158.3169704008902Z"></path><path d="M1198,405.87423112900024L1198,405.87423112900024"></path><title> Michael Keenan →  ADL
0.00</title></g><g class="link" fill="#7b7d14" opacity="0.3" id="link-51"><path d="M30,158.3169704008902L30,158.3169704008902"></path><path d="M30,158.3169704008902C614,158.3169704008902 614,386.14410578461576 1198,386.14410578461576L1198,386.14410578461576C614,386.14410578461576 614,158.3169704008902 30,158.3169704008902Z"></path><path d="M1198,386.14410578461576L1198,386.14410578461576"></path><title> Michael Keenan →  BME
0.00</title></g><g class="link" fill="#7b7d14" opacity="0.3" id="link-52"><path d="M30,158.3169704008902L30,158.3169704008902"></path><path d="M30,158.3169704008902C614,158.3169704008902 614,423.8359289151143 1198,423.8359289151143L1198,423.8359289151143C614,423.8359289151143 614,158.3169704008902 30,158.3169704008902Z"></path><path d="M1198,423.8359289151143L1198,423.8359289151143"></path><title> Michael Keenan →  CNS
0.00</title></g><g class="link" fill="#7b7d14" opacity="0.3" id="link-53"><path d="M30,158.3169704008902L30,158.3169704008902"></path><path d="M30,158.3169704008902C614,158.3169704008902 614,451.99999999999994 1198,451.99999999999994L1198,451.99999999999994C614,451.99999999999994 614,158.3169704008902 30,158.3169704008902Z"></path><path d="M1198,451.99999999999994L1198,451.99999999999994"></path><title> Michael Keenan →  FIZ
0.00</title></g><g class="link" fill="#7b7d14" opacity="0.3" id="link-54"><path d="M30,158.3169704008902L30,158.3169704008902"></path><path d="M30,158.3169704008902C614,158.3169704008902 614,438.4258937128172 1198,438.4258937128172L1198,438.4258937128172C614,438.4258937128172 614,158.3169704008902 30,158.3169704008902Z"></path><path d="M1198,438.4258937128172L1198,438.4258937128172"></path><title> Michael Keenan →  GTT
0.00</title></g><g class="link" fill="#142735" opacity="0.3" id="link-55"><path d="M30,260.2282784541178L30,260.2282784541178"></path><path d="M30,260.2282784541178C614,260.2282784541178 614,280.3036497667932 1198,280.3036497667932L1198,280.3036497667932C614,280.3036497667932 614,260.2282784541178 30,260.2282784541178Z"></path><path d="M1198,280.3036497667932L1198,280.3036497667932"></path><title> Rick Wilson →  SYD
0.00</title></g><g class="link" fill="#142735" opacity="0.3" id="link-56"><path d="M30,260.2282784541178L30,260.2282784541178"></path><path d="M30,260.2282784541178C614,260.2282784541178 614,329.6153371276852 1198,329.6153371276852L1198,329.6153371276852C614,329.6153371276852 614,260.2282784541178 30,260.2282784541178Z"></path><path d="M1198,329.6153371276852L1198,329.6153371276852"></path><title> Rick Wilson →  BNE
0.00</title></g><g class="link" fill="#142735" opacity="0.3" id="link-57"><path d="M30,260.2282784541178L30,260.2282784541178"></path><path d="M30,260.2282784541178C614,260.2282784541178 614,386.14410578461576 1198,386.14410578461576L1198,386.14410578461576C614,386.14410578461576 614,260.2282784541178 30,260.2282784541178Z"></path><path d="M1198,386.14410578461576L1198,386.14410578461576"></path><title> Rick Wilson →  BME
0.00</title></g><g class="link" fill="#142735" opacity="0.3" id="link-58"><path d="M30,260.2282784541178L30,260.2282784541178"></path><path d="M30,260.2282784541178C614,260.2282784541178 614,423.8359289151143 1198,423.8359289151143L1198,423.8359289151143C614,423.8359289151143 614,260.2282784541178 30,260.2282784541178Z"></path><path d="M1198,423.8359289151143L1198,423.8359289151143"></path><title> Rick Wilson →  CNS
0.00</title></g><g class="link" fill="#142735" opacity="0.3" id="link-59"><path d="M30,260.2282784541178L30,260.2282784541178"></path><path d="M30,260.2282784541178C614,260.2282784541178 614,451.99999999999994 1198,451.99999999999994L1198,451.99999999999994C614,451.99999999999994 614,260.2282784541178 30,260.2282784541178Z"></path><path d="M1198,451.99999999999994L1198,451.99999999999994"></path><title> Rick Wilson →  FIZ
0.00</title></g><g class="link" fill="#142735" opacity="0.3" id="link-60"><path d="M30,260.2282784541178L30,260.2282784541178"></path><path d="M30,260.2282784541178C614,260.2282784541178 614,438.4258937128172 1198,438.4258937128172L1198,438.4258937128172C614,438.4258937128172 614,260.2282784541178 30,260.2282784541178Z"></path><path d="M1198,438.4258937128172L1198,438.4258937128172"></path><title> Rick Wilson →  GTT
0.00</title></g><g class="link" fill="#142735" opacity="0.3" id="link-61"><path d="M30,209.4936247897348L30,209.4936247897348"></path><path d="M30,209.4936247897348C614,209.4936247897348 614,105.3932148585239 1198,105.3932148585239L1198,105.3932148585239C614,105.3932148585239 614,209.4936247897348 30,209.4936247897348Z"></path><path d="M1198,105.3932148585239L1198,105.3932148585239"></path><title> Mathias Cormann →  MEL
0.00</title></g><g class="link" fill="#142735" opacity="0.3" id="link-62"><path d="M30,209.4936247897348L30,209.4936247897348"></path><path d="M30,209.4936247897348C614,209.4936247897348 614,365.7374256083452 1198,365.7374256083452L1198,365.7374256083452C614,365.7374256083452 614,209.4936247897348 30,209.4936247897348Z"></path><path d="M1198,365.7374256083452L1198,365.7374256083452"></path><title> Mathias Cormann →  CBR
0.00</title></g><g class="link" fill="#142735" opacity="0.3" id="link-63"><path d="M30,209.4936247897348L30,209.4936247897348"></path><path d="M30,209.4936247897348C614,209.4936247897348 614,405.87423112900024 1198,405.87423112900024L1198,405.87423112900024C614,405.87423112900024 614,209.4936247897348 30,209.4936247897348Z"></path><path d="M1198,405.87423112900024L1198,405.87423112900024"></path><title> Mathias Cormann →  ADL
0.00</title></g><g class="link" fill="#142735" opacity="0.3" id="link-64"><path d="M30,209.4936247897348L30,209.4936247897348"></path><path d="M30,209.4936247897348C614,209.4936247897348 614,423.8359289151143 1198,423.8359289151143L1198,423.8359289151143C614,423.8359289151143 614,209.4936247897348 30,209.4936247897348Z"></path><path d="M1198,423.8359289151143L1198,423.8359289151143"></path><title> Mathias Cormann →  CNS
0.00</title></g><g class="link" fill="#142735" opacity="0.3" id="link-65"><path d="M30,209.4936247897348L30,209.4936247897348"></path><path d="M30,209.4936247897348C614,209.4936247897348 614,451.99999999999994 1198,451.99999999999994L1198,451.99999999999994C614,451.99999999999994 614,209.4936247897348 30,209.4936247897348Z"></path><path d="M1198,451.99999999999994L1198,451.99999999999994"></path><title> Mathias Cormann →  FIZ
0.00</title></g><g class="link" fill="#142735" opacity="0.3" id="link-66"><path d="M30,209.4936247897348L30,209.4936247897348"></path><path d="M30,209.4936247897348C614,209.4936247897348 614,438.4258937128172 1198,438.4258937128172L1198,438.4258937128172C614,438.4258937128172 614,209.4936247897348 30,209.4936247897348Z"></path><path d="M1198,438.4258937128172L1198,438.4258937128172"></path><title> Mathias Cormann →  GTT
0.00</title></g><g class="link" fill="#142735" opacity="0.3" id="link-67"><path d="M30,418.4466824230407L30,418.4466824230407"></path><path d="M30,418.4466824230407C614,418.4466824230407 614,329.6153371276852 1198,329.6153371276852L1198,329.6153371276852C614,329.6153371276852 614,418.4466824230407 30,418.4466824230407Z"></path><path d="M1198,329.6153371276852L1198,329.6153371276852"></path><title> Jamie Briggs →  BNE
0.00</title></g><g class="link" fill="#142735" opacity="0.3" id="link-68"><path d="M30,418.4466824230407L30,418.4466824230407"></path><path d="M30,418.4466824230407C614,418.4466824230407 614,206.00607549599798 1198,206.00607549599798L1198,206.00607549599798C614,206.00607549599798 614,418.4466824230407 30,418.4466824230407Z"></path><path d="M1198,206.00607549599798L1198,206.00607549599798"></path><title> Jamie Briggs →  PER
0.00</title></g><g class="link" fill="#142735" opacity="0.3" id="link-69"><path d="M30,418.4466824230407L30,418.4466824230407"></path><path d="M30,418.4466824230407C614,418.4466824230407 614,386.14410578461576 1198,386.14410578461576L1198,386.14410578461576C614,386.14410578461576 614,418.4466824230407 30,418.4466824230407Z"></path><path d="M1198,386.14410578461576L1198,386.14410578461576"></path><title> Jamie Briggs →  BME
0.00</title></g><g class="link" fill="#142735" opacity="0.3" id="link-70"><path d="M30,418.4466824230407L30,418.4466824230407"></path><path d="M30,418.4466824230407C614,418.4466824230407 614,423.8359289151143 1198,423.8359289151143L1198,423.8359289151143C614,423.8359289151143 614,418.4466824230407 30,418.4466824230407Z"></path><path d="M1198,423.8359289151143L1198,423.8359289151143"></path><title> Jamie Briggs →  CNS
0.00</title></g><g class="link" fill="#142735" opacity="0.3" id="link-71"><path d="M30,418.4466824230407L30,418.4466824230407"></path><path d="M30,418.4466824230407C614,418.4466824230407 614,451.99999999999994 1198,451.99999999999994L1198,451.99999999999994C614,451.99999999999994 614,418.4466824230407 30,418.4466824230407Z"></path><path d="M1198,451.99999999999994L1198,451.99999999999994"></path><title> Jamie Briggs →  FIZ
0.00</title></g><g class="link" fill="#142735" opacity="0.3" id="link-72"><path d="M30,418.4466824230407L30,418.4466824230407"></path><path d="M30,418.4466824230407C614,418.4466824230407 614,438.4258937128172 1198,438.4258937128172L1198,438.4258937128172C614,438.4258937128172 614,418.4466824230407 30,418.4466824230407Z"></path><path d="M1198,438.4258937128172L1198,438.4258937128172"></path><title> Jamie Briggs →  GTT
0.00</title></g><g class="link" fill="#142735" opacity="0.3" id="link-73"><path d="M30,452L30,452"></path><path d="M30,452C614,452 614,365.7374256083452 1198,365.7374256083452L1198,365.7374256083452C614,365.7374256083452 614,452 30,452Z"></path><path d="M1198,365.7374256083452L1198,365.7374256083452"></path><title> Gary Gray →  CBR
0.00</title></g><g class="link" fill="#142735" opacity="0.3" id="link-74"><path d="M30,452L30,452"></path><path d="M30,452C614,452 614,280.3036497667932 1198,280.3036497667932L1198,280.3036497667932C614,280.3036497667932 614,452 30,452Z"></path><path d="M1198,280.3036497667932L1198,280.3036497667932"></path><title> Gary Gray →  SYD
0.00</title></g><g class="link" fill="#142735" opacity="0.3" id="link-75"><path d="M30,452L30,452"></path><path d="M30,452C614,452 614,329.6153371276852 1198,329.6153371276852L1198,329.6153371276852C614,329.6153371276852 614,452 30,452Z"></path><path d="M1198,329.6153371276852L1198,329.6153371276852"></path><title> Gary Gray →  BNE
0.00</title></g><g class="link" fill="#142735" opacity="0.3" id="link-76"><path d="M30,452L30,452"></path><path d="M30,452C614,452 614,206.00607549599798 1198,206.00607549599798L1198,206.00607549599798C614,206.00607549599798 614,452 30,452Z"></path><path d="M1198,206.00607549599798L1198,206.00607549599798"></path><title> Gary Gray →  PER
0.00</title></g><g class="link" fill="#142735" opacity="0.3" id="link-77"><path d="M30,452L30,452"></path><path d="M30,452C614,452 614,405.87423112900024 1198,405.87423112900024L1198,405.87423112900024C614,405.87423112900024 614,452 30,452Z"></path><path d="M1198,405.87423112900024L1198,405.87423112900024"></path><title> Gary Gray →  ADL
0.00</title></g><g class="link" fill="#142735" opacity="0.3" id="link-78"><path d="M30,452L30,452"></path><path d="M30,452C614,452 614,386.14410578461576 1198,386.14410578461576L1198,386.14410578461576C614,386.14410578461576 614,452 30,452Z"></path><path d="M1198,386.14410578461576L1198,386.14410578461576"></path><title> Gary Gray →  BME
0.00</title></g><g class="link" fill="#142735" opacity="0.3" id="link-79"><path d="M30,452L30,452"></path><path d="M30,452C614,452 614,451.99999999999994 1198,451.99999999999994L1198,451.99999999999994C614,451.99999999999994 614,452 30,452Z"></path><path d="M1198,451.99999999999994L1198,451.99999999999994"></path><title> Gary Gray →  FIZ
0.00</title></g><g class="link" fill="#142735" opacity="0.3" id="link-80"><path d="M30,303.10466175240765L30,303.10466175240765"></path><path d="M30,303.10466175240765C614,303.10466175240765 614,365.7374256083452 1198,365.7374256083452L1198,365.7374256083452C614,365.7374256083452 614,303.10466175240765 30,303.10466175240765Z"></path><path d="M1198,365.7374256083452L1198,365.7374256083452"></path><title> Sharman Stone →  CBR
0.00</title></g><g class="link" fill="#142735" opacity="0.3" id="link-81"><path d="M30,303.10466175240765L30,303.10466175240765"></path><path d="M30,303.10466175240765C614,303.10466175240765 614,280.3036497667932 1198,280.3036497667932L1198,280.3036497667932C614,280.3036497667932 614,303.10466175240765 30,303.10466175240765Z"></path><path d="M1198,280.3036497667932L1198,280.3036497667932"></path><title> Sharman Stone →  SYD
0.00</title></g><g class="link" fill="#142735" opacity="0.3" id="link-82"><path d="M30,303.10466175240765L30,303.10466175240765"></path><path d="M30,303.10466175240765C614,303.10466175240765 614,329.6153371276852 1198,329.6153371276852L1198,329.6153371276852C614,329.6153371276852 614,303.10466175240765 30,303.10466175240765Z"></path><path d="M1198,329.6153371276852L1198,329.6153371276852"></path><title> Sharman Stone →  BNE
0.00</title></g><g class="link" fill="#142735" opacity="0.3" id="link-83"><path d="M30,303.10466175240765L30,303.10466175240765"></path><path d="M30,303.10466175240765C614,303.10466175240765 614,206.00607549599798 1198,206.00607549599798L1198,206.00607549599798C614,206.00607549599798 614,303.10466175240765 30,303.10466175240765Z"></path><path d="M1198,206.00607549599798L1198,206.00607549599798"></path><title> Sharman Stone →  PER
0.00</title></g><g class="link" fill="#142735" opacity="0.3" id="link-84"><path d="M30,303.10466175240765L30,303.10466175240765"></path><path d="M30,303.10466175240765C614,303.10466175240765 614,423.8359289151143 1198,423.8359289151143L1198,423.8359289151143C614,423.8359289151143 614,303.10466175240765 30,303.10466175240765Z"></path><path d="M1198,423.8359289151143L1198,423.8359289151143"></path><title> Sharman Stone →  CNS
0.00</title></g><g class="link" fill="#142735" opacity="0.3" id="link-85"><path d="M30,303.10466175240765L30,303.10466175240765"></path><path d="M30,303.10466175240765C614,303.10466175240765 614,438.4258937128172 1198,438.4258937128172L1198,438.4258937128172C614,438.4258937128172 614,303.10466175240765 30,303.10466175240765Z"></path><path d="M1198,438.4258937128172L1198,438.4258937128172"></path><title> Sharman Stone →  GTT
0.00</title></g><g class="link" fill="#142735" opacity="0.3" id="link-86"><path d="M30,384.1276313251927L30,384.1276313251927"></path><path d="M30,384.1276313251927C614,384.1276313251927 614,105.3932148585239 1198,105.3932148585239L1198,105.3932148585239C614,105.3932148585239 614,384.1276313251927 30,384.1276313251927Z"></path><path d="M1198,105.3932148585239L1198,105.3932148585239"></path><title> Ian Macfarlane →  MEL
0.00</title></g><g class="link" fill="#142735" opacity="0.3" id="link-87"><path d="M30,384.1276313251927L30,384.1276313251927"></path><path d="M30,384.1276313251927C614,384.1276313251927 614,280.3036497667932 1198,280.3036497667932L1198,280.3036497667932C614,280.3036497667932 614,384.1276313251927 30,384.1276313251927Z"></path><path d="M1198,280.3036497667932L1198,280.3036497667932"></path><title> Ian Macfarlane →  SYD
0.00</title></g><g class="link" fill="#142735" opacity="0.3" id="link-88"><path d="M30,384.1276313251927L30,384.1276313251927"></path><path d="M30,384.1276313251927C614,384.1276313251927 614,405.87423112900024 1198,405.87423112900024L1198,405.87423112900024C614,405.87423112900024 614,384.1276313251927 30,384.1276313251927Z"></path><path d="M1198,405.87423112900024L1198,405.87423112900024"></path><title> Ian Macfarlane →  ADL
0.00</title></g><g class="link" fill="#142735" opacity="0.3" id="link-89"><path d="M30,384.1276313251927L30,384.1276313251927"></path><path d="M30,384.1276313251927C614,384.1276313251927 614,386.14410578461576 1198,386.14410578461576L1198,386.14410578461576C614,386.14410578461576 614,384.1276313251927 30,384.1276313251927Z"></path><path d="M1198,386.14410578461576L1198,386.14410578461576"></path><title> Ian Macfarlane →  BME
0.00</title></g><g class="link" fill="#142735" opacity="0.3" id="link-90"><path d="M30,384.1276313251927L30,384.1276313251927"></path><path d="M30,384.1276313251927C614,384.1276313251927 614,423.8359289151143 1198,423.8359289151143L1198,423.8359289151143C614,423.8359289151143 614,384.1276313251927 30,384.1276313251927Z"></path><path d="M1198,423.8359289151143L1198,423.8359289151143"></path><title> Ian Macfarlane →  CNS
0.00</title></g><g class="link" fill="#142735" opacity="0.3" id="link-91"><path d="M30,384.1276313251927L30,384.1276313251927"></path><path d="M30,384.1276313251927C614,384.1276313251927 614,451.99999999999994 1198,451.99999999999994L1198,451.99999999999994C614,451.99999999999994 614,384.1276313251927 30,384.1276313251927Z"></path><path d="M1198,451.99999999999994L1198,451.99999999999994"></path><title> Ian Macfarlane →  FIZ
0.00</title></g><g class="link" fill="#142735" opacity="0.3" id="link-92"><path d="M30,384.1276313251927L30,384.1276313251927"></path><path d="M30,384.1276313251927C614,384.1276313251927 614,438.4258937128172 1198,438.4258937128172L1198,438.4258937128172C614,438.4258937128172 614,384.1276313251927 30,384.1276313251927Z"></path><path d="M1198,438.4258937128172L1198,438.4258937128172"></path><title> Ian Macfarlane →  GTT
0.00</title></g><g class="link" fill="#d42f75" opacity="0.3" id="link-93"><path d="M30,345.228192895998L30,345.228192895998"></path><path d="M30,345.228192895998C614,345.228192895998 614,365.7374256083452 1198,365.7374256083452L1198,365.7374256083452C614,365.7374256083452 614,345.228192895998 30,345.228192895998Z"></path><path d="M1198,365.7374256083452L1198,365.7374256083452"></path><title> Steve Irons →  CBR
0.00</title></g><g class="link" fill="#d42f75" opacity="0.3" id="link-94"><path d="M30,345.228192895998L30,345.228192895998"></path><path d="M30,345.228192895998C614,345.228192895998 614,329.6153371276852 1198,329.6153371276852L1198,329.6153371276852C614,329.6153371276852 614,345.228192895998 30,345.228192895998Z"></path><path d="M1198,329.6153371276852L1198,329.6153371276852"></path><title> Steve Irons →  BNE
0.00</title></g><g class="link" fill="#d42f75" opacity="0.3" id="link-95"><path d="M30,345.228192895998L30,345.228192895998"></path><path d="M30,345.228192895998C614,345.228192895998 614,405.87423112900024 1198,405.87423112900024L1198,405.87423112900024C614,405.87423112900024 614,345.228192895998 30,345.228192895998Z"></path><path d="M1198,405.87423112900024L1198,405.87423112900024"></path><title> Steve Irons →  ADL
0.00</title></g><g class="link" fill="#d42f75" opacity="0.3" id="link-96"><path d="M30,345.228192895998L30,345.228192895998"></path><path d="M30,345.228192895998C614,345.228192895998 614,386.14410578461576 1198,386.14410578461576L1198,386.14410578461576C614,386.14410578461576 614,345.228192895998 30,345.228192895998Z"></path><path d="M1198,386.14410578461576L1198,386.14410578461576"></path><title> Steve Irons →  BME
0.00</title></g><g class="link" fill="#d42f75" opacity="0.3" id="link-97"><path d="M30,345.228192895998L30,345.228192895998"></path><path d="M30,345.228192895998C614,345.228192895998 614,423.8359289151143 1198,423.8359289151143L1198,423.8359289151143C614,423.8359289151143 614,345.228192895998 30,345.228192895998Z"></path><path d="M1198,423.8359289151143L1198,423.8359289151143"></path><title> Steve Irons →  CNS
0.00</title></g><g class="link" fill="#d42f75" opacity="0.3" id="link-98"><path d="M30,345.228192895998L30,345.228192895998"></path><path d="M30,345.228192895998C614,345.228192895998 614,451.99999999999994 1198,451.99999999999994L1198,451.99999999999994C614,451.99999999999994 614,345.228192895998 30,345.228192895998Z"></path><path d="M1198,451.99999999999994L1198,451.99999999999994"></path><title> Steve Irons →  FIZ
0.00</title></g><g class="link" fill="#d42f75" opacity="0.3" id="link-99"><path d="M30,345.228192895998L30,345.228192895998"></path><path d="M30,345.228192895998C614,345.228192895998 614,438.4258937128172 1198,438.4258937128172L1198,438.4258937128172C614,438.4258937128172 614,345.228192895998 30,345.228192895998Z"></path><path d="M1198,438.4258937128172L1198,438.4258937128172"></path><title> Steve Irons →  GTT
0.00</title></g></g><g><g class="node" transform="translate(0,0)"><rect height="50.719034612259115" width="30" style="fill: rgb(27, 104, 161); stroke: rgb(13, 50, 78);"><title> Rachel Siewert
7,166.06</title></rect><text class="node_name" x="36" y="25.359517306129558" dy=".35em" text-anchor="start"> Rachel Siewert</text><text class="node_value" x="-25.359517306129558" y="21" transform="rotate(270)" text-anchor="middle" fill="white">7,166</text></g><g class="node" transform="translate(1198,0)"><rect height="105.39321485852392" width="30" style="fill: rgb(157, 142, 102); stroke: rgb(76, 69, 49);"><title> MEL
14,890.94</title></rect><text class="node_name" x="-6" y="52.69660742926196" dy=".35em" text-anchor="end"> MEL</text><text class="node_value" x="-52.69660742926196" y="21" transform="rotate(270)" text-anchor="middle" fill="white">14,891</text></g><g class="node" transform="translate(1198,334.6153371276852)"><rect height="31.12208848065995" width="30" style="fill: rgb(157, 142, 102); stroke: rgb(76, 69, 49);"><title> CBR
4,397.22</title></rect><text class="node_name" x="-6" y="15.561044240329975" dy=".35em" text-anchor="end"> CBR</text><text class="node_value" x="-15.561044240329975" y="21" transform="rotate(270)" text-anchor="middle" fill="white">4,397</text></g><g class="node" transform="translate(1198,211.00607549599798)"><rect height="69.29757427079527" width="30" style="fill: rgb(157, 142, 102); stroke: rgb(76, 69, 49);"><title> SYD
9,791.01</title></rect><text class="node_name" x="-6" y="34.64878713539763" dy=".35em" text-anchor="end"> SYD</text><text class="node_value" x="-34.64878713539763" y="21" transform="rotate(270)" text-anchor="middle" fill="white">9,791</text></g><g class="node" transform="translate(1198,285.3036497667932)"><rect height="44.31168736089197" width="30" style="fill: rgb(157, 142, 102); stroke: rgb(76, 69, 49);"><title> BNE
6,260.77</title></rect><text class="node_name" x="-6" y="22.155843680445987" dy=".35em" text-anchor="end"> BNE</text><text class="node_value" x="-22.155843680445987" y="21" transform="rotate(270)" text-anchor="middle" fill="white">6,261</text></g><g class="node" transform="translate(1198,110.39321485852392)"><rect height="95.61286063747406" width="30" style="fill: rgb(157, 142, 102); stroke: rgb(76, 69, 49);"><title> PER
13,509.08</title></rect><text class="node_name" x="-6" y="47.80643031873703" dy=".35em" text-anchor="end"> PER</text><text class="node_value" x="-47.80643031873703" y="21" transform="rotate(270)" text-anchor="middle" fill="white">13,509</text></g><g class="node" transform="translate(1198,391.14410578461576)"><rect height="14.730125344384472" width="30" style="fill: rgb(157, 142, 102); stroke: rgb(76, 69, 49);"><title> ADL
2,081.21</title></rect><text class="node_name" x="-6" y="7.365062672192236" dy=".35em" text-anchor="end"> ADL</text><text class="node_value" x="-7.365062672192236" y="21" transform="rotate(270)" text-anchor="middle" fill="white"></text></g><g class="node" transform="translate(1198,370.7374256083452)"><rect height="15.406680176270594" width="30" style="fill: rgb(157, 142, 102); stroke: rgb(76, 69, 49);"><title> BME
2,176.80</title></rect><text class="node_name" x="-6" y="7.703340088135297" dy=".35em" text-anchor="end"> BME</text><text class="node_value" x="-7.703340088135297" y="21" transform="rotate(270)" text-anchor="middle" fill="white"></text></g><g class="node" transform="translate(1198,410.87423112900024)"><rect height="12.961697786114089" width="30" style="fill: rgb(157, 142, 102); stroke: rgb(76, 69, 49);"><title> CNS
1,831.35</title></rect><text class="node_name" x="-6" y="6.480848893057044" dy=".35em" text-anchor="end"> CNS</text><text class="node_value" x="-6.480848893057044" y="21" transform="rotate(270)" text-anchor="middle" fill="white"></text></g><g class="node" transform="translate(1198,443.4258937128172)"><rect height="8.574106287182785" width="30" style="fill: rgb(157, 142, 102); stroke: rgb(76, 69, 49);"><title> FIZ
1,211.43</title></rect><text class="node_name" x="-6" y="4.287053143591392" dy=".35em" text-anchor="end"> FIZ</text><text class="node_value" x="-4.287053143591392" y="21" transform="rotate(270)" text-anchor="middle" fill="white"></text></g><g class="node" transform="translate(1198,428.8359289151143)"><rect height="9.589964797702867" width="30" style="fill: rgb(157, 142, 102); stroke: rgb(76, 69, 49);"><title> GTT
1,354.96</title></rect><text class="node_name" x="-6" y="4.794982398851434" dy=".35em" text-anchor="end"> GTT</text><text class="node_value" x="-4.794982398851434" y="21" transform="rotate(270)" text-anchor="middle" fill="white"></text></g><g class="node" transform="translate(0,55.719034612259115)"><rect height="49.03150486472686" width="30" style="fill: rgb(38, 130, 58); stroke: rgb(18, 63, 28);"><title> Chris Bowen 
6,927.63</title></rect><text class="node_name" x="36" y="24.51575243236343" dy=".35em" text-anchor="start"> Chris Bowen </text><text class="node_value" x="-24.51575243236343" y="21" transform="rotate(270)" text-anchor="middle" fill="white">6,928</text></g><g class="node" transform="translate(0,109.75053947698598)"><rect height="48.56643092390422" width="30" style="fill: rgb(123, 125, 20); stroke: rgb(60, 61, 9);"><title> Michael Keenan
6,861.92</title></rect><text class="node_name" x="36" y="24.28321546195211" dy=".35em" text-anchor="start"> Michael Keenan</text><text class="node_value" x="-24.28321546195211" y="21" transform="rotate(270)" text-anchor="middle" fill="white">6,862</text></g><g class="node" transform="translate(0,214.4936247897348)"><rect height="45.73465366438296" width="30" style="fill: rgb(20, 39, 53); stroke: rgb(9, 19, 25);"><title> Rick Wilson
6,461.82</title></rect><text class="node_name" x="36" y="22.86732683219148" dy=".35em" text-anchor="start"> Rick Wilson</text><text class="node_value" x="-22.86732683219148" y="21" transform="rotate(270)" text-anchor="middle" fill="white">6,462</text></g><g class="node" transform="translate(0,163.3169704008902)"><rect height="46.17665438884461" width="30" style="fill: rgb(20, 39, 53); stroke: rgb(9, 19, 25);"><title> Mathias Cormann
6,524.27</title></rect><text class="node_name" x="36" y="23.088327194422305" dy=".35em" text-anchor="start"> Mathias Cormann</text><text class="node_value" x="-23.088327194422305" y="21" transform="rotate(270)" text-anchor="middle" fill="white">6,524</text></g><g class="node" transform="translate(0,389.1276313251927)"><rect height="29.31905109784805" width="30" style="fill: rgb(20, 39, 53); stroke: rgb(9, 19, 25);"><title> Jamie Briggs
4,142.47</title></rect><text class="node_name" x="36" y="14.659525548924025" dy=".35em" text-anchor="start"> Jamie Briggs</text><text class="node_value" x="-14.659525548924025" y="21" transform="rotate(270)" text-anchor="middle" fill="white"></text></g><g class="node" transform="translate(0,423.4466824230407)"><rect height="28.553317576959266" width="30" style="fill: rgb(20, 39, 53); stroke: rgb(9, 19, 25);"><title> Gary Gray
4,034.28</title></rect><text class="node_name" x="36" y="14.276658788479633" dy=".35em" text-anchor="start"> Gary Gray</text><text class="node_value" x="-14.276658788479633" y="21" transform="rotate(270)" text-anchor="middle" fill="white"></text></g><g class="node" transform="translate(0,265.2282784541178)"><rect height="37.876383298289866" width="30" style="fill: rgb(20, 39, 53); stroke: rgb(9, 19, 25);"><title> Sharman Stone
5,351.53</title></rect><text class="node_name" x="36" y="18.938191649144933" dy=".35em" text-anchor="start"> Sharman Stone</text><text class="node_value" x="-18.938191649144933" y="21" transform="rotate(270)" text-anchor="middle" fill="white">5,352</text></g><g class="node" transform="translate(0,350.228192895998)"><rect height="33.89943842919465" width="30" style="fill: rgb(20, 39, 53); stroke: rgb(9, 19, 25);"><title> Ian Macfarlane
4,789.63</title></rect><text class="node_name" x="36" y="16.949719214597327" dy=".35em" text-anchor="start"> Ian Macfarlane</text><text class="node_value" x="-16.949719214597327" y="21" transform="rotate(270)" text-anchor="middle" fill="white">4,790</text></g><g class="node" transform="translate(0,308.10466175240765)"><rect height="37.12353114359035" width="30" style="fill: rgb(212, 47, 117); stroke: rgb(103, 23, 57);"><title> Steve Irons
5,245.16</title></rect><text class="node_name" x="36" y="18.561765571795174" dy=".35em" text-anchor="start"> Steve Irons</text><text class="node_value" x="-18.561765571795174" y="21" transform="rotate(270)" text-anchor="middle" fill="white">5,245</text></g></g></g><defs><style type="text/css"> .bg_overlay {fill: white;background-color: white;}</style></defs></svg>