<?xml version="1.0" encoding="utf-8"?>
<!-- Generator: Adobe Illustrator 23.0.1, SVG Export Plug-In . SVG Version: 6.00 Build 0)  -->
<svg version="1.1" id="Layer_1" xmlns="http://www.w3.org/2000/svg" xmlns:xlink="http://www.w3.org/1999/xlink" x="0px" y="0px"
	 viewBox="0 0 901.1 601.1" style="enable-background:new 0 0 901.1 601.1;" xml:space="preserve">
<style type="text/css">
	.st0{fill:#637939;}
	.st1{font-family:'Impact';}
	.st2{font-size:45.4721px;}
	.st3{fill:#6B6ECF;}
	.st4{font-size:129.9204px;}
	.st5{fill:#9C9EDE;}
	.st6{font-size:113.0308px;}
	.st7{font-size:79.2515px;}
	.st8{fill:#8CA252;}
	.st9{font-size:62.3618px;}
	.st10{fill:#B5CF6B;}
	.st11{fill:#CEDB9C;}
	.st12{fill:#8C6D31;}
	.st13{fill:#BD9E39;}
	.st14{fill:#E7BA52;}
	.st15{fill:#E7CB94;}
	.st16{font-size:28.5825px;}
	.st17{fill:#843C39;}
	.st18{font-size:34.4019px;}
	.st19{fill:#AD494A;}
	.st20{fill:#D6616B;}
	.st21{fill:#E7969C;}
	.st22{fill:#7B4173;}
	.st23{fill:#A55194;}
	.st24{font-size:28.8532px;}
	.st25{fill:#CE6DBD;}
	.st26{font-size:22.1947px;}
	.st27{fill:#393B79;}
	.st28{font-size:21.085px;}
	.st29{font-size:25.524px;}
	.st30{fill:#DE9ED6;}
	.st31{font-size:26.6337px;}
	.st32{font-size:29.9629px;}
	.st33{font-size:16.6461px;}
</style>
<text transform="matrix(0.9979 -6.540313e-02 6.540313e-02 0.9979 10.0259 307.3586)" class="st0 st1 st2">layout</text>
<text transform="matrix(0.9981 -6.235488e-02 6.235488e-02 0.9981 156.2996 345.3372)" class="st3 st1 st4">communicate</text>
<text transform="matrix(0.9976 6.994072e-02 -6.994072e-02 0.9976 191.6865 466.3268)" class="st5 st1 st6">audience</text>
<text transform="matrix(0.9998 -2.181488e-02 2.181488e-02 0.9998 10.0261 242.5196)" class="st0 st1 st7">documents</text>
<text transform="matrix(0.9979 -6.540313e-02 6.540313e-02 0.9979 678.7158 482.0357)" class="st8 st1 st9">design</text>
<text transform="matrix(0.9998 -2.181488e-02 2.181488e-02 0.9998 299.1862 166.3058)" class="st10 st1 st9">editing</text>
<text transform="matrix(0.9998 -2.181488e-02 2.181488e-02 0.9998 10.0258 376.3516)" class="st11 st1 st2">concise</text>
<text transform="matrix(0.999 -4.361938e-02 4.361938e-02 0.999 669.758 376.3513)" class="st12 st1 st9">writing</text>
<text transform="matrix(0.9983 5.766387e-02 -5.766387e-02 0.9983 514.702 182.2493)" class="st13 st1 st9">rhetoric</text>
<text transform="matrix(0.9997 -2.337348e-02 2.337348e-02 0.9997 82.7742 447.032)" class="st14 st1 st2">STEM</text>
<text transform="matrix(0.9998 -2.181488e-02 2.181488e-02 0.9998 777.8419 524.5505)" class="st15 st1 st16">manuals</text>
<text transform="matrix(0.9972 7.523144e-02 -7.523144e-02 0.9972 406.2284 382.5693)" class="st17 st1 st18">information</text>
<text transform="matrix(0.999 -4.361938e-02 4.361938e-02 0.999 255.6452 382.5704)" class="st19 st1 st16">specific</text>
<text transform="matrix(0.9962 -8.715574e-02 8.715574e-02 0.9962 21.5457 157.3045)" class="st20 st1 st16">technical</text>
<text transform="matrix(0.9979 -6.540313e-02 6.540313e-02 0.9979 208.518 573.3228)" class="st21 st1 st16">media</text>
<text transform="matrix(0.9979 -6.540313e-02 6.540313e-02 0.9979 762.134 157.3047)" class="st22 st1 st16">technology</text>
<text transform="matrix(0.9998 -2.181488e-02 2.181488e-02 0.9998 91.7677 98.2327)" class="st23 st1 st24">English</text>
<text transform="matrix(1 0 0 1 714.1472 57.9856)" class="st25 st1 st26">wordsmithing</text>
<text transform="matrix(1 0 0 1 58.3204 489.8899)" class="st27 st1 st26">effective</text>
<text transform="matrix(0.9962 -8.715574e-02 8.715574e-02 0.9962 515.9475 120.8979)" class="st3 st1 st28">ethos</text>
<text transform="matrix(0.999 -4.361938e-02 4.361938e-02 0.999 685.4338 140.5344)" class="st5 st1 st26">logos</text>
<text transform="matrix(0.9998 -2.181488e-02 2.181488e-02 0.9998 599.5496 127.9446)" class="st0 st1 st28">pathos</text>
<text transform="matrix(1 0 0 1 10.0274 447.0332)" class="st8 st1 st26">detail</text>
<text transform="matrix(0.999 -4.361938e-02 4.361938e-02 0.999 307.0205 524.5513)" class="st10 st1 st26">charts</text>
<text transform="matrix(0.9962 -8.715574e-02 8.715574e-02 0.9962 341.4111 579.2611)" class="st11 st1 st26">graphs</text>
<text transform="matrix(0.9979 -6.540313e-02 6.540313e-02 0.9979 450.5396 579.2615)" class="st12 st1 st26">reports</text>
<text transform="matrix(1 0 0 1 578.8708 573.3226)" class="st13 st1 st26">instructions</text>
<text transform="matrix(0.9998 -2.181488e-02 2.181488e-02 0.9998 156.3 147.9774)" class="st14 st1 st26">precision</text>
<text transform="matrix(0.9962 -8.715574e-02 8.715574e-02 0.9962 406.2282 206.0143)" class="st17 st1 st26">analysis</text>
<text transform="matrix(0.9979 -6.540313e-02 6.540313e-02 0.9979 504.7383 352.4679)" class="st19 st1 st26">arrangement</text>
<text transform="matrix(0.9962 -8.715574e-02 8.715574e-02 0.9962 104.5185 524.5515)" class="st20 st1 st29">web development</text>
<text transform="matrix(0.999 -4.361938e-02 4.361938e-02 0.999 634.7173 80.7477)" class="st21 st1 st26">digital</text>
<text transform="matrix(0.9998 -2.181488e-02 2.181488e-02 0.9998 622.0536 410.0639)" class="st23 st1 st26">procedure</text>
<text transform="matrix(0.9998 -2.181488e-02 2.181488e-02 0.9998 750.3977 573.3228)" class="st25 st1 st26">guidelines</text>
<text transform="matrix(0.9979 -6.540313e-02 6.540313e-02 0.9979 381.9932 48.1582)" class="st30 st1 st26">practical</text>
<text transform="matrix(0.999 -4.361938e-02 4.361938e-02 0.999 240.1449 48.1581)" class="st27 st1 st26">how-to</text>
<text transform="matrix(1 -8.982969e-03 8.982969e-03 1 202.4228 91.8083)" class="st3 st1 st31">information architecture</text>
<text transform="matrix(0.9986 5.220054e-02 -5.220054e-02 0.9986 381.9933 524.5511)" class="st5 st1 st32">document design</text>
<text transform="matrix(0.9962 -8.715574e-02 8.715574e-02 0.9962 504.7381 223.798)" class="st0 st1 st26">process</text>
<text transform="matrix(0.9979 -6.540313e-02 6.540313e-02 0.9979 15.0272 541.297)" class="st8 st1 st26">visual</text>
<text transform="matrix(1 0 0 1 599.5505 37.0496)" class="st10 st1 st26">textual</text>
<text transform="matrix(0.999 -4.361938e-02 4.361938e-02 0.999 21.5454 48.1582)" class="st11 st1 st26">clearly</text>
<text transform="matrix(0.9864 -0.1641 0.1641 0.9864 734.6883 206.0142)" class="st12 st1 st26">understandable</text>
<text transform="matrix(0.9962 -8.715574e-02 8.715574e-02 0.9962 767.8152 110.8506)" class="st13 st1 st26">instruction</text>
<text transform="matrix(1 0 0 1 504.7379 63.2314)" class="st14 st1 st26">business</text>
<text transform="matrix(1 0 0 1 147.3811 48.1581)" class="st17 st1 st33">accurate</text>
<text transform="matrix(0.9979 -6.540313e-02 6.540313e-02 0.9979 58.3202 579.2612)" class="st19 st1 st26">video</text>
<text transform="matrix(0.9962 -8.715574e-02 8.715574e-02 0.9962 648.8502 531.0967)" class="st21 st1 st26">websites</text>
</svg>
